%TF.GenerationSoftware,KiCad,Pcbnew,9.0.7*%
%TF.CreationDate,2026-05-10T13:43:30+02:00*%
%TF.ProjectId,pcb_module_LedStrip,7063625f-6d6f-4647-956c-655f4c656453,rev?*%
%TF.SameCoordinates,Original*%
%TF.FileFunction,Copper,L2,Bot*%
%TF.FilePolarity,Positive*%
%FSLAX46Y46*%
G04 Gerber Fmt 4.6, Leading zero omitted, Abs format (unit mm)*
G04 Created by KiCad (PCBNEW 9.0.7) date 2026-05-10 13:43:30*
%MOMM*%
%LPD*%
G01*
G04 APERTURE LIST*
G04 Aperture macros list*
%AMRoundRect*
0 Rectangle with rounded corners*
0 $1 Rounding radius*
0 $2 $3 $4 $5 $6 $7 $8 $9 X,Y pos of 4 corners*
0 Add a 4 corners polygon primitive as box body*
4,1,4,$2,$3,$4,$5,$6,$7,$8,$9,$2,$3,0*
0 Add four circle primitives for the rounded corners*
1,1,$1+$1,$2,$3*
1,1,$1+$1,$4,$5*
1,1,$1+$1,$6,$7*
1,1,$1+$1,$8,$9*
0 Add four rect primitives between the rounded corners*
20,1,$1+$1,$2,$3,$4,$5,0*
20,1,$1+$1,$4,$5,$6,$7,0*
20,1,$1+$1,$6,$7,$8,$9,0*
20,1,$1+$1,$8,$9,$2,$3,0*%
G04 Aperture macros list end*
%TA.AperFunction,ComponentPad*%
%ADD10C,5.600000*%
%TD*%
%TA.AperFunction,ComponentPad*%
%ADD11RoundRect,0.250000X-0.550000X0.550000X-0.550000X-0.550000X0.550000X-0.550000X0.550000X0.550000X0*%
%TD*%
%TA.AperFunction,ComponentPad*%
%ADD12C,1.600000*%
%TD*%
%TA.AperFunction,ComponentPad*%
%ADD13R,1.700000X1.700000*%
%TD*%
%TA.AperFunction,ComponentPad*%
%ADD14C,1.700000*%
%TD*%
%TA.AperFunction,ComponentPad*%
%ADD15RoundRect,0.250001X-0.949999X0.949999X-0.949999X-0.949999X0.949999X-0.949999X0.949999X0.949999X0*%
%TD*%
%TA.AperFunction,ComponentPad*%
%ADD16C,2.400000*%
%TD*%
%TA.AperFunction,ComponentPad*%
%ADD17RoundRect,0.250001X0.949999X0.949999X-0.949999X0.949999X-0.949999X-0.949999X0.949999X-0.949999X0*%
%TD*%
%TA.AperFunction,ViaPad*%
%ADD18C,0.800000*%
%TD*%
G04 APERTURE END LIST*
D10*
%TO.P,H1,1,1*%
%TO.N,GND*%
X194500000Y-87000000D03*
%TD*%
D11*
%TO.P,C1,1*%
%TO.N,+12V*%
X221000000Y-88000000D03*
D12*
%TO.P,C1,2*%
%TO.N,GND*%
X221000000Y-90000000D03*
%TD*%
D10*
%TO.P,H3,1,1*%
%TO.N,GND*%
X239500000Y-132000000D03*
%TD*%
%TO.P,H4,1,1*%
%TO.N,GND*%
X194500000Y-132000000D03*
%TD*%
D13*
%TO.P,J3,1,Pin_1*%
%TO.N,CH1_CMD*%
X237500000Y-107767800D03*
D14*
%TO.P,J3,2,Pin_2*%
%TO.N,CH2_CMD*%
X237500000Y-110307800D03*
%TO.P,J3,3,Pin_3*%
%TO.N,CH3_CMD*%
X237500000Y-112847800D03*
%TO.P,J3,4,Pin_4*%
%TO.N,CH4_CMD*%
X237500000Y-115387800D03*
%TO.P,J3,5,Pin_5*%
%TO.N,GND*%
X237500000Y-117927800D03*
%TD*%
D10*
%TO.P,H2,1,1*%
%TO.N,GND*%
X239500000Y-87000000D03*
%TD*%
D15*
%TO.P,J2,1,Pin_1*%
%TO.N,+12V*%
X199000000Y-103420000D03*
D16*
%TO.P,J2,2,Pin_2*%
%TO.N,CH1_INP*%
X199000000Y-108500000D03*
%TO.P,J2,3,Pin_3*%
%TO.N,CH2_INP*%
X199000000Y-113580000D03*
%TO.P,J2,4,Pin_4*%
%TO.N,CH3_INP*%
X199000000Y-118660000D03*
%TO.P,J2,5,Pin_5*%
%TO.N,CH4_INP*%
X199000000Y-123740000D03*
%TD*%
D17*
%TO.P,J1,1,Pin_1*%
%TO.N,GND*%
X214000000Y-90000000D03*
D16*
%TO.P,J1,2,Pin_2*%
%TO.N,+12V*%
X208920000Y-90000000D03*
%TD*%
D18*
%TO.N,GND*%
X225000000Y-106500000D03*
X239000000Y-121500000D03*
X226000000Y-88500000D03*
X225000000Y-96500000D03*
X225000000Y-127000000D03*
X225000000Y-117000000D03*
%TD*%
%TA.AperFunction,Conductor*%
%TO.N,GND*%
G36*
X239502702Y-82300617D02*
G01*
X239904202Y-82318147D01*
X239914937Y-82319087D01*
X240310693Y-82371189D01*
X240321331Y-82373064D01*
X240711043Y-82459462D01*
X240721483Y-82462260D01*
X241102168Y-82582289D01*
X241112315Y-82585982D01*
X241481102Y-82738739D01*
X241490893Y-82743305D01*
X241844942Y-82927611D01*
X241854310Y-82933019D01*
X242190959Y-83147488D01*
X242199820Y-83153693D01*
X242516487Y-83396680D01*
X242524774Y-83403634D01*
X242819056Y-83673294D01*
X242826705Y-83680943D01*
X243096365Y-83975225D01*
X243103319Y-83983512D01*
X243346306Y-84300179D01*
X243352511Y-84309040D01*
X243566980Y-84645689D01*
X243572388Y-84655057D01*
X243756691Y-85009099D01*
X243761263Y-85018903D01*
X243914013Y-85387674D01*
X243917713Y-85397840D01*
X244037738Y-85778512D01*
X244040538Y-85788960D01*
X244126933Y-86178660D01*
X244128811Y-86189314D01*
X244180910Y-86585042D01*
X244181853Y-86595818D01*
X244199382Y-86997297D01*
X244199500Y-87002706D01*
X244199500Y-131997293D01*
X244199382Y-132002702D01*
X244181853Y-132404181D01*
X244180910Y-132414957D01*
X244128811Y-132810685D01*
X244126933Y-132821339D01*
X244040538Y-133211039D01*
X244037738Y-133221487D01*
X243917713Y-133602159D01*
X243914013Y-133612325D01*
X243761263Y-133981096D01*
X243756691Y-133990900D01*
X243572388Y-134344942D01*
X243566980Y-134354310D01*
X243352511Y-134690959D01*
X243346306Y-134699820D01*
X243103319Y-135016487D01*
X243096365Y-135024774D01*
X242826705Y-135319056D01*
X242819056Y-135326705D01*
X242524774Y-135596365D01*
X242516487Y-135603319D01*
X242199820Y-135846306D01*
X242190959Y-135852511D01*
X241854310Y-136066980D01*
X241844942Y-136072388D01*
X241490900Y-136256691D01*
X241481096Y-136261263D01*
X241112325Y-136414013D01*
X241102159Y-136417713D01*
X240721487Y-136537738D01*
X240711039Y-136540538D01*
X240321339Y-136626933D01*
X240310685Y-136628811D01*
X239914957Y-136680910D01*
X239904181Y-136681853D01*
X239502703Y-136699382D01*
X239497294Y-136699500D01*
X194502706Y-136699500D01*
X194497297Y-136699382D01*
X194095818Y-136681853D01*
X194085042Y-136680910D01*
X193689314Y-136628811D01*
X193678660Y-136626933D01*
X193288960Y-136540538D01*
X193278512Y-136537738D01*
X192897840Y-136417713D01*
X192887674Y-136414013D01*
X192518903Y-136261263D01*
X192509099Y-136256691D01*
X192155057Y-136072388D01*
X192145689Y-136066980D01*
X191809040Y-135852511D01*
X191800179Y-135846306D01*
X191483512Y-135603319D01*
X191475225Y-135596365D01*
X191180943Y-135326705D01*
X191173294Y-135319056D01*
X190903634Y-135024774D01*
X190896680Y-135016487D01*
X190653693Y-134699820D01*
X190647488Y-134690959D01*
X190433019Y-134354310D01*
X190427611Y-134344942D01*
X190243308Y-133990900D01*
X190238736Y-133981096D01*
X190085982Y-133612315D01*
X190082286Y-133602159D01*
X189962261Y-133221487D01*
X189959461Y-133211039D01*
X189873066Y-132821339D01*
X189871188Y-132810685D01*
X189850849Y-132656193D01*
X189819087Y-132414937D01*
X189818147Y-132404202D01*
X189800618Y-132002702D01*
X189800500Y-131997293D01*
X189800500Y-123628549D01*
X197299500Y-123628549D01*
X197299500Y-123851450D01*
X197299501Y-123851466D01*
X197328594Y-124072452D01*
X197328595Y-124072457D01*
X197328596Y-124072463D01*
X197328597Y-124072465D01*
X197386290Y-124287780D01*
X197386293Y-124287790D01*
X197471593Y-124493722D01*
X197471595Y-124493726D01*
X197583052Y-124686774D01*
X197583057Y-124686780D01*
X197583058Y-124686782D01*
X197718751Y-124863622D01*
X197718757Y-124863629D01*
X197876370Y-125021242D01*
X197876376Y-125021247D01*
X198053226Y-125156948D01*
X198246274Y-125268405D01*
X198452219Y-125353710D01*
X198667537Y-125411404D01*
X198888543Y-125440500D01*
X198888550Y-125440500D01*
X199111450Y-125440500D01*
X199111457Y-125440500D01*
X199332463Y-125411404D01*
X199547781Y-125353710D01*
X199753726Y-125268405D01*
X199946774Y-125156948D01*
X200123624Y-125021247D01*
X200281247Y-124863624D01*
X200416948Y-124686774D01*
X200528405Y-124493726D01*
X200613710Y-124287781D01*
X200671404Y-124072463D01*
X200700500Y-123851457D01*
X200700500Y-123628543D01*
X200671404Y-123407537D01*
X200613710Y-123192219D01*
X200528405Y-122986274D01*
X200416948Y-122793226D01*
X200281247Y-122616376D01*
X200281242Y-122616370D01*
X200123629Y-122458757D01*
X200123622Y-122458751D01*
X199946782Y-122323058D01*
X199946780Y-122323057D01*
X199946774Y-122323052D01*
X199753726Y-122211595D01*
X199753722Y-122211593D01*
X199547790Y-122126293D01*
X199547783Y-122126291D01*
X199547781Y-122126290D01*
X199332463Y-122068596D01*
X199332457Y-122068595D01*
X199332452Y-122068594D01*
X199111466Y-122039501D01*
X199111463Y-122039500D01*
X199111457Y-122039500D01*
X198888543Y-122039500D01*
X198888537Y-122039500D01*
X198888533Y-122039501D01*
X198667547Y-122068594D01*
X198667540Y-122068595D01*
X198667537Y-122068596D01*
X198452219Y-122126290D01*
X198452209Y-122126293D01*
X198246277Y-122211593D01*
X198246273Y-122211595D01*
X198053226Y-122323052D01*
X198053217Y-122323058D01*
X197876377Y-122458751D01*
X197876370Y-122458757D01*
X197718757Y-122616370D01*
X197718751Y-122616377D01*
X197583058Y-122793217D01*
X197583052Y-122793226D01*
X197471595Y-122986273D01*
X197471593Y-122986277D01*
X197386293Y-123192209D01*
X197386290Y-123192219D01*
X197328597Y-123407534D01*
X197328594Y-123407547D01*
X197299501Y-123628533D01*
X197299500Y-123628549D01*
X189800500Y-123628549D01*
X189800500Y-118548549D01*
X197299500Y-118548549D01*
X197299500Y-118771450D01*
X197299501Y-118771466D01*
X197328594Y-118992452D01*
X197328595Y-118992457D01*
X197328596Y-118992463D01*
X197352701Y-119082424D01*
X197386290Y-119207780D01*
X197386293Y-119207790D01*
X197471593Y-119413722D01*
X197471595Y-119413726D01*
X197583052Y-119606774D01*
X197583057Y-119606780D01*
X197583058Y-119606782D01*
X197718751Y-119783622D01*
X197718757Y-119783629D01*
X197876370Y-119941242D01*
X197876376Y-119941247D01*
X198053226Y-120076948D01*
X198246274Y-120188405D01*
X198452219Y-120273710D01*
X198667537Y-120331404D01*
X198888543Y-120360500D01*
X198888550Y-120360500D01*
X199111450Y-120360500D01*
X199111457Y-120360500D01*
X199332463Y-120331404D01*
X199547781Y-120273710D01*
X199753726Y-120188405D01*
X199946774Y-120076948D01*
X200123624Y-119941247D01*
X200281247Y-119783624D01*
X200416948Y-119606774D01*
X200528405Y-119413726D01*
X200613710Y-119207781D01*
X200671404Y-118992463D01*
X200700500Y-118771457D01*
X200700500Y-118548543D01*
X200671404Y-118327537D01*
X200613710Y-118112219D01*
X200528405Y-117906274D01*
X200528401Y-117906267D01*
X200528397Y-117906259D01*
X200512477Y-117878685D01*
X200512475Y-117878682D01*
X200479491Y-117821553D01*
X200416948Y-117713226D01*
X200281247Y-117536376D01*
X200281242Y-117536370D01*
X200123629Y-117378757D01*
X200123622Y-117378751D01*
X199946782Y-117243058D01*
X199946780Y-117243057D01*
X199946774Y-117243052D01*
X199753726Y-117131595D01*
X199753722Y-117131593D01*
X199547790Y-117046293D01*
X199547783Y-117046291D01*
X199547781Y-117046290D01*
X199332463Y-116988596D01*
X199332457Y-116988595D01*
X199332452Y-116988594D01*
X199111466Y-116959501D01*
X199111463Y-116959500D01*
X199111457Y-116959500D01*
X198888543Y-116959500D01*
X198888537Y-116959500D01*
X198888533Y-116959501D01*
X198667547Y-116988594D01*
X198667540Y-116988595D01*
X198667537Y-116988596D01*
X198452219Y-117046290D01*
X198452209Y-117046293D01*
X198246277Y-117131593D01*
X198246273Y-117131595D01*
X198053226Y-117243052D01*
X198053217Y-117243058D01*
X197876377Y-117378751D01*
X197876370Y-117378757D01*
X197718757Y-117536370D01*
X197718751Y-117536377D01*
X197583058Y-117713217D01*
X197583052Y-117713226D01*
X197471595Y-117906273D01*
X197471593Y-117906277D01*
X197386293Y-118112209D01*
X197386290Y-118112219D01*
X197328597Y-118327534D01*
X197328594Y-118327547D01*
X197299501Y-118548533D01*
X197299500Y-118548549D01*
X189800500Y-118548549D01*
X189800500Y-113468549D01*
X197299500Y-113468549D01*
X197299500Y-113691450D01*
X197299501Y-113691466D01*
X197328594Y-113912452D01*
X197328595Y-113912457D01*
X197328596Y-113912463D01*
X197383616Y-114117800D01*
X197386290Y-114127780D01*
X197386293Y-114127790D01*
X197471593Y-114333722D01*
X197471595Y-114333726D01*
X197583052Y-114526774D01*
X197583057Y-114526780D01*
X197583058Y-114526782D01*
X197718751Y-114703622D01*
X197718757Y-114703629D01*
X197876370Y-114861242D01*
X197876377Y-114861248D01*
X198002294Y-114957867D01*
X198053226Y-114996948D01*
X198246274Y-115108405D01*
X198452219Y-115193710D01*
X198667537Y-115251404D01*
X198888543Y-115280500D01*
X198888550Y-115280500D01*
X199111450Y-115280500D01*
X199111457Y-115280500D01*
X199332463Y-115251404D01*
X199547781Y-115193710D01*
X199753726Y-115108405D01*
X199946774Y-114996948D01*
X200123624Y-114861247D01*
X200281247Y-114703624D01*
X200416948Y-114526774D01*
X200528405Y-114333726D01*
X200613710Y-114127781D01*
X200671404Y-113912463D01*
X200700500Y-113691457D01*
X200700500Y-113468543D01*
X200671404Y-113247537D01*
X200613710Y-113032219D01*
X200528405Y-112826274D01*
X200416948Y-112633226D01*
X200281247Y-112456376D01*
X200281242Y-112456370D01*
X200123629Y-112298757D01*
X200123622Y-112298751D01*
X199946782Y-112163058D01*
X199946780Y-112163057D01*
X199946774Y-112163052D01*
X199753726Y-112051595D01*
X199753722Y-112051593D01*
X199547790Y-111966293D01*
X199547783Y-111966291D01*
X199547781Y-111966290D01*
X199332463Y-111908596D01*
X199332457Y-111908595D01*
X199332452Y-111908594D01*
X199111466Y-111879501D01*
X199111463Y-111879500D01*
X199111457Y-111879500D01*
X198888543Y-111879500D01*
X198888537Y-111879500D01*
X198888533Y-111879501D01*
X198667547Y-111908594D01*
X198667540Y-111908595D01*
X198667537Y-111908596D01*
X198452219Y-111966290D01*
X198452209Y-111966293D01*
X198246277Y-112051593D01*
X198246273Y-112051595D01*
X198053226Y-112163052D01*
X198053217Y-112163058D01*
X197876377Y-112298751D01*
X197876370Y-112298757D01*
X197718757Y-112456370D01*
X197718751Y-112456377D01*
X197583058Y-112633217D01*
X197583052Y-112633226D01*
X197471595Y-112826273D01*
X197471593Y-112826277D01*
X197386293Y-113032209D01*
X197386290Y-113032219D01*
X197328597Y-113247534D01*
X197328594Y-113247547D01*
X197299501Y-113468533D01*
X197299500Y-113468549D01*
X189800500Y-113468549D01*
X189800500Y-108388549D01*
X197299500Y-108388549D01*
X197299500Y-108611450D01*
X197299501Y-108611466D01*
X197328594Y-108832452D01*
X197328595Y-108832457D01*
X197328596Y-108832463D01*
X197386290Y-109047780D01*
X197386293Y-109047790D01*
X197429658Y-109152481D01*
X197471595Y-109253726D01*
X197583052Y-109446774D01*
X197583057Y-109446780D01*
X197583058Y-109446782D01*
X197718751Y-109623622D01*
X197718757Y-109623629D01*
X197876370Y-109781242D01*
X197876377Y-109781248D01*
X198002294Y-109877867D01*
X198053226Y-109916948D01*
X198246274Y-110028405D01*
X198452219Y-110113710D01*
X198667537Y-110171404D01*
X198888543Y-110200500D01*
X198888550Y-110200500D01*
X199111450Y-110200500D01*
X199111457Y-110200500D01*
X199332463Y-110171404D01*
X199547781Y-110113710D01*
X199753726Y-110028405D01*
X199946774Y-109916948D01*
X200123624Y-109781247D01*
X200281247Y-109623624D01*
X200416948Y-109446774D01*
X200528405Y-109253726D01*
X200613710Y-109047781D01*
X200671404Y-108832463D01*
X200700500Y-108611457D01*
X200700500Y-108388543D01*
X200671404Y-108167537D01*
X200613710Y-107952219D01*
X200528405Y-107746274D01*
X200416948Y-107553226D01*
X200281247Y-107376376D01*
X200281242Y-107376370D01*
X200123629Y-107218757D01*
X200123622Y-107218751D01*
X199946782Y-107083058D01*
X199946780Y-107083056D01*
X199946774Y-107083052D01*
X199946769Y-107083049D01*
X199946766Y-107083047D01*
X199757880Y-106973993D01*
X199757878Y-106973991D01*
X199757877Y-106973991D01*
X199753734Y-106971599D01*
X199753722Y-106971593D01*
X199547790Y-106886293D01*
X199547783Y-106886291D01*
X199547781Y-106886290D01*
X199486743Y-106869935D01*
X236149500Y-106869935D01*
X236149500Y-108665670D01*
X236149501Y-108665676D01*
X236155908Y-108725283D01*
X236206202Y-108860128D01*
X236206206Y-108860135D01*
X236292452Y-108975344D01*
X236292455Y-108975347D01*
X236407664Y-109061593D01*
X236407671Y-109061597D01*
X236539082Y-109110610D01*
X236595016Y-109152481D01*
X236619433Y-109217945D01*
X236604582Y-109286218D01*
X236583431Y-109314473D01*
X236469889Y-109428015D01*
X236344951Y-109599979D01*
X236248444Y-109789385D01*
X236182753Y-109991560D01*
X236149500Y-110201513D01*
X236149500Y-110414086D01*
X236182753Y-110624039D01*
X236248444Y-110826214D01*
X236344951Y-111015620D01*
X236469890Y-111187586D01*
X236620213Y-111337909D01*
X236792182Y-111462850D01*
X236800946Y-111467316D01*
X236851742Y-111515291D01*
X236868536Y-111583112D01*
X236845998Y-111649247D01*
X236800946Y-111688284D01*
X236792182Y-111692749D01*
X236620213Y-111817690D01*
X236469890Y-111968013D01*
X236344951Y-112139979D01*
X236248444Y-112329385D01*
X236182753Y-112531560D01*
X236166651Y-112633226D01*
X236149500Y-112741513D01*
X236149500Y-112954087D01*
X236182754Y-113164043D01*
X236209886Y-113247547D01*
X236248444Y-113366214D01*
X236344951Y-113555620D01*
X236469890Y-113727586D01*
X236620213Y-113877909D01*
X236792182Y-114002850D01*
X236800946Y-114007316D01*
X236851742Y-114055291D01*
X236868536Y-114123112D01*
X236845998Y-114189247D01*
X236800946Y-114228284D01*
X236792182Y-114232749D01*
X236620213Y-114357690D01*
X236469890Y-114508013D01*
X236344951Y-114679979D01*
X236248444Y-114869385D01*
X236182753Y-115071560D01*
X236149500Y-115281513D01*
X236149500Y-115494086D01*
X236182753Y-115704039D01*
X236248444Y-115906214D01*
X236344951Y-116095620D01*
X236469890Y-116267586D01*
X236620213Y-116417909D01*
X236792179Y-116542848D01*
X236792181Y-116542849D01*
X236792184Y-116542851D01*
X236801493Y-116547594D01*
X236852290Y-116595566D01*
X236869087Y-116663387D01*
X236846552Y-116729522D01*
X236801505Y-116768560D01*
X236792446Y-116773176D01*
X236792440Y-116773180D01*
X236738282Y-116812527D01*
X236738282Y-116812528D01*
X237370591Y-117444837D01*
X237307007Y-117461875D01*
X237192993Y-117527701D01*
X237099901Y-117620793D01*
X237034075Y-117734807D01*
X237017037Y-117798391D01*
X236384728Y-117166082D01*
X236384727Y-117166082D01*
X236345380Y-117220239D01*
X236248904Y-117409582D01*
X236183242Y-117611669D01*
X236183242Y-117611672D01*
X236150000Y-117821553D01*
X236150000Y-118034046D01*
X236183242Y-118243927D01*
X236183242Y-118243930D01*
X236248904Y-118446017D01*
X236345375Y-118635350D01*
X236384728Y-118689516D01*
X237017037Y-118057208D01*
X237034075Y-118120793D01*
X237099901Y-118234807D01*
X237192993Y-118327899D01*
X237307007Y-118393725D01*
X237370590Y-118410762D01*
X236738282Y-119043069D01*
X236738282Y-119043070D01*
X236792449Y-119082424D01*
X236981782Y-119178895D01*
X237183870Y-119244557D01*
X237393754Y-119277800D01*
X237606246Y-119277800D01*
X237816127Y-119244557D01*
X237816130Y-119244557D01*
X238018217Y-119178895D01*
X238207554Y-119082422D01*
X238261716Y-119043070D01*
X238261717Y-119043070D01*
X237629408Y-118410762D01*
X237692993Y-118393725D01*
X237807007Y-118327899D01*
X237900099Y-118234807D01*
X237965925Y-118120793D01*
X237982962Y-118057209D01*
X238615270Y-118689517D01*
X238615270Y-118689516D01*
X238654622Y-118635354D01*
X238751095Y-118446017D01*
X238816757Y-118243930D01*
X238816757Y-118243927D01*
X238850000Y-118034046D01*
X238850000Y-117821553D01*
X238816757Y-117611672D01*
X238816757Y-117611669D01*
X238751095Y-117409582D01*
X238654624Y-117220249D01*
X238615270Y-117166082D01*
X238615269Y-117166082D01*
X237982962Y-117798390D01*
X237965925Y-117734807D01*
X237900099Y-117620793D01*
X237807007Y-117527701D01*
X237692993Y-117461875D01*
X237629409Y-117444837D01*
X238261716Y-116812528D01*
X238207547Y-116773173D01*
X238207547Y-116773172D01*
X238198500Y-116768563D01*
X238147706Y-116720588D01*
X238130912Y-116652766D01*
X238153451Y-116586632D01*
X238198508Y-116547593D01*
X238207816Y-116542851D01*
X238287007Y-116485315D01*
X238379786Y-116417909D01*
X238379788Y-116417906D01*
X238379792Y-116417904D01*
X238530104Y-116267592D01*
X238530106Y-116267588D01*
X238530109Y-116267586D01*
X238655048Y-116095620D01*
X238655047Y-116095620D01*
X238655051Y-116095616D01*
X238751557Y-115906212D01*
X238817246Y-115704043D01*
X238850500Y-115494087D01*
X238850500Y-115281513D01*
X238817246Y-115071557D01*
X238751557Y-114869388D01*
X238655051Y-114679984D01*
X238655049Y-114679981D01*
X238655048Y-114679979D01*
X238530109Y-114508013D01*
X238379786Y-114357690D01*
X238207820Y-114232751D01*
X238207115Y-114232391D01*
X238199054Y-114228285D01*
X238148259Y-114180312D01*
X238131463Y-114112492D01*
X238153999Y-114046356D01*
X238199054Y-114007315D01*
X238207816Y-114002851D01*
X238332223Y-113912465D01*
X238379786Y-113877909D01*
X238379788Y-113877906D01*
X238379792Y-113877904D01*
X238530104Y-113727592D01*
X238530106Y-113727588D01*
X238530109Y-113727586D01*
X238655048Y-113555620D01*
X238655047Y-113555620D01*
X238655051Y-113555616D01*
X238751557Y-113366212D01*
X238817246Y-113164043D01*
X238850500Y-112954087D01*
X238850500Y-112741513D01*
X238817246Y-112531557D01*
X238751557Y-112329388D01*
X238655051Y-112139984D01*
X238655049Y-112139981D01*
X238655048Y-112139979D01*
X238530109Y-111968013D01*
X238379786Y-111817690D01*
X238207820Y-111692751D01*
X238207115Y-111692391D01*
X238199054Y-111688285D01*
X238148259Y-111640312D01*
X238131463Y-111572492D01*
X238153999Y-111506356D01*
X238199054Y-111467315D01*
X238207816Y-111462851D01*
X238229789Y-111446886D01*
X238379786Y-111337909D01*
X238379788Y-111337906D01*
X238379792Y-111337904D01*
X238530104Y-111187592D01*
X238530106Y-111187588D01*
X238530109Y-111187586D01*
X238655048Y-111015620D01*
X238655047Y-111015620D01*
X238655051Y-111015616D01*
X238751557Y-110826212D01*
X238817246Y-110624043D01*
X238850500Y-110414087D01*
X238850500Y-110201513D01*
X238817246Y-109991557D01*
X238751557Y-109789388D01*
X238655051Y-109599984D01*
X238655049Y-109599981D01*
X238655048Y-109599979D01*
X238530109Y-109428013D01*
X238416569Y-109314473D01*
X238383084Y-109253150D01*
X238388068Y-109183458D01*
X238429940Y-109127525D01*
X238460915Y-109110610D01*
X238592331Y-109061596D01*
X238707546Y-108975346D01*
X238793796Y-108860131D01*
X238844091Y-108725283D01*
X238850500Y-108665673D01*
X238850499Y-106869928D01*
X238844091Y-106810317D01*
X238793796Y-106675469D01*
X238793795Y-106675468D01*
X238793793Y-106675464D01*
X238707547Y-106560255D01*
X238707544Y-106560252D01*
X238592335Y-106474006D01*
X238592328Y-106474002D01*
X238457482Y-106423708D01*
X238457483Y-106423708D01*
X238397883Y-106417301D01*
X238397881Y-106417300D01*
X238397873Y-106417300D01*
X238397864Y-106417300D01*
X236602129Y-106417300D01*
X236602123Y-106417301D01*
X236542516Y-106423708D01*
X236407671Y-106474002D01*
X236407664Y-106474006D01*
X236292455Y-106560252D01*
X236292452Y-106560255D01*
X236206206Y-106675464D01*
X236206202Y-106675471D01*
X236155908Y-106810317D01*
X236149501Y-106869916D01*
X236149501Y-106869923D01*
X236149500Y-106869935D01*
X199486743Y-106869935D01*
X199332463Y-106828596D01*
X199332457Y-106828595D01*
X199332452Y-106828594D01*
X199111466Y-106799501D01*
X199111463Y-106799500D01*
X199111457Y-106799500D01*
X198888543Y-106799500D01*
X198888537Y-106799500D01*
X198888533Y-106799501D01*
X198667547Y-106828594D01*
X198667540Y-106828595D01*
X198667537Y-106828596D01*
X198513257Y-106869935D01*
X198452219Y-106886290D01*
X198452209Y-106886293D01*
X198246277Y-106971593D01*
X198246273Y-106971595D01*
X198053226Y-107083052D01*
X198053217Y-107083058D01*
X197876377Y-107218751D01*
X197876370Y-107218757D01*
X197718757Y-107376370D01*
X197718751Y-107376377D01*
X197583058Y-107553217D01*
X197583052Y-107553226D01*
X197471595Y-107746273D01*
X197471593Y-107746277D01*
X197386293Y-107952209D01*
X197386290Y-107952219D01*
X197328597Y-108167534D01*
X197328594Y-108167547D01*
X197299501Y-108388533D01*
X197299500Y-108388549D01*
X189800500Y-108388549D01*
X189800500Y-102419984D01*
X197299500Y-102419984D01*
X197299500Y-104420015D01*
X197310000Y-104522795D01*
X197310001Y-104522796D01*
X197365186Y-104689335D01*
X197365187Y-104689337D01*
X197457286Y-104838651D01*
X197457289Y-104838655D01*
X197581344Y-104962710D01*
X197581348Y-104962713D01*
X197730662Y-105054812D01*
X197730664Y-105054813D01*
X197730666Y-105054814D01*
X197897203Y-105109999D01*
X197999992Y-105120500D01*
X197999997Y-105120500D01*
X200000003Y-105120500D01*
X200000008Y-105120500D01*
X200102797Y-105109999D01*
X200269334Y-105054814D01*
X200418655Y-104962711D01*
X200542711Y-104838655D01*
X200634814Y-104689334D01*
X200689999Y-104522797D01*
X200700500Y-104420008D01*
X200700500Y-102419992D01*
X200689999Y-102317203D01*
X200634814Y-102150666D01*
X200542711Y-102001345D01*
X200418655Y-101877289D01*
X200418651Y-101877286D01*
X200269337Y-101785187D01*
X200269335Y-101785186D01*
X200186065Y-101757593D01*
X200102797Y-101730001D01*
X200102795Y-101730000D01*
X200000015Y-101719500D01*
X200000008Y-101719500D01*
X197999992Y-101719500D01*
X197999984Y-101719500D01*
X197897204Y-101730000D01*
X197897203Y-101730001D01*
X197730664Y-101785186D01*
X197730662Y-101785187D01*
X197581348Y-101877286D01*
X197581344Y-101877289D01*
X197457289Y-102001344D01*
X197457286Y-102001348D01*
X197365187Y-102150662D01*
X197365186Y-102150664D01*
X197310001Y-102317203D01*
X197310000Y-102317204D01*
X197299500Y-102419984D01*
X189800500Y-102419984D01*
X189800500Y-89888549D01*
X207219500Y-89888549D01*
X207219500Y-90111450D01*
X207219501Y-90111466D01*
X207248594Y-90332452D01*
X207248595Y-90332457D01*
X207248596Y-90332463D01*
X207293228Y-90499031D01*
X207306290Y-90547780D01*
X207306293Y-90547790D01*
X207380078Y-90725922D01*
X207391595Y-90753726D01*
X207503052Y-90946774D01*
X207503057Y-90946780D01*
X207503058Y-90946782D01*
X207638751Y-91123622D01*
X207638757Y-91123629D01*
X207796370Y-91281242D01*
X207796377Y-91281248D01*
X207922294Y-91377867D01*
X207973226Y-91416948D01*
X208166274Y-91528405D01*
X208372219Y-91613710D01*
X208587537Y-91671404D01*
X208808543Y-91700500D01*
X208808550Y-91700500D01*
X209031450Y-91700500D01*
X209031457Y-91700500D01*
X209252463Y-91671404D01*
X209467781Y-91613710D01*
X209673726Y-91528405D01*
X209866774Y-91416948D01*
X210043624Y-91281247D01*
X210201247Y-91123624D01*
X210336948Y-90946774D01*
X210448405Y-90753726D01*
X210533710Y-90547781D01*
X210591404Y-90332463D01*
X210620500Y-90111457D01*
X210620500Y-89888543D01*
X210591404Y-89667537D01*
X210533710Y-89452219D01*
X210448405Y-89246274D01*
X210448403Y-89246271D01*
X210448401Y-89246266D01*
X210340204Y-89058865D01*
X210340203Y-89058864D01*
X210336954Y-89053237D01*
X210336948Y-89053226D01*
X210296117Y-89000014D01*
X212300000Y-89000014D01*
X212300000Y-89750000D01*
X213237639Y-89750000D01*
X213230743Y-89766649D01*
X213200000Y-89921207D01*
X213200000Y-90078793D01*
X213230743Y-90233351D01*
X213237639Y-90250000D01*
X212300000Y-90250000D01*
X212300000Y-90999985D01*
X212310493Y-91102689D01*
X212310494Y-91102696D01*
X212365641Y-91269118D01*
X212365643Y-91269123D01*
X212457684Y-91418344D01*
X212581655Y-91542315D01*
X212730876Y-91634356D01*
X212730881Y-91634358D01*
X212897303Y-91689505D01*
X212897310Y-91689506D01*
X213000014Y-91699999D01*
X213000027Y-91700000D01*
X213750000Y-91700000D01*
X213750000Y-90762360D01*
X213766649Y-90769257D01*
X213921207Y-90800000D01*
X214078793Y-90800000D01*
X214233351Y-90769257D01*
X214250000Y-90762360D01*
X214250000Y-91700000D01*
X214999973Y-91700000D01*
X214999985Y-91699999D01*
X215102689Y-91689506D01*
X215102696Y-91689505D01*
X215269118Y-91634358D01*
X215269123Y-91634356D01*
X215418344Y-91542315D01*
X215542315Y-91418344D01*
X215634356Y-91269123D01*
X215634358Y-91269118D01*
X215689505Y-91102696D01*
X215689506Y-91102689D01*
X215697994Y-91019612D01*
X215697994Y-91019611D01*
X215699999Y-90999982D01*
X215700000Y-90999972D01*
X215700000Y-90250000D01*
X214762361Y-90250000D01*
X214769257Y-90233351D01*
X214800000Y-90078793D01*
X214800000Y-89921207D01*
X214769257Y-89766649D01*
X214762361Y-89750000D01*
X215700000Y-89750000D01*
X215700000Y-89000027D01*
X215699999Y-89000014D01*
X215689506Y-88897310D01*
X215689505Y-88897303D01*
X215634358Y-88730881D01*
X215634356Y-88730876D01*
X215542315Y-88581655D01*
X215418344Y-88457684D01*
X215269123Y-88365643D01*
X215269118Y-88365641D01*
X215102696Y-88310494D01*
X215102689Y-88310493D01*
X214999985Y-88300000D01*
X214250000Y-88300000D01*
X214250000Y-89237639D01*
X214233351Y-89230743D01*
X214078793Y-89200000D01*
X213921207Y-89200000D01*
X213766649Y-89230743D01*
X213750000Y-89237639D01*
X213750000Y-88300000D01*
X213000014Y-88300000D01*
X212897310Y-88310493D01*
X212897303Y-88310494D01*
X212730881Y-88365641D01*
X212730876Y-88365643D01*
X212581655Y-88457684D01*
X212457684Y-88581655D01*
X212365643Y-88730876D01*
X212365641Y-88730881D01*
X212310494Y-88897303D01*
X212310493Y-88897310D01*
X212300000Y-89000014D01*
X210296117Y-89000014D01*
X210201247Y-88876376D01*
X210201242Y-88876370D01*
X210043629Y-88718757D01*
X210043622Y-88718751D01*
X209866782Y-88583058D01*
X209866780Y-88583057D01*
X209866774Y-88583052D01*
X209673726Y-88471595D01*
X209673722Y-88471593D01*
X209467790Y-88386293D01*
X209467783Y-88386291D01*
X209467781Y-88386290D01*
X209252463Y-88328596D01*
X209252457Y-88328595D01*
X209252452Y-88328594D01*
X209031466Y-88299501D01*
X209031463Y-88299500D01*
X209031457Y-88299500D01*
X208808543Y-88299500D01*
X208808537Y-88299500D01*
X208808533Y-88299501D01*
X208587547Y-88328594D01*
X208587540Y-88328595D01*
X208587537Y-88328596D01*
X208449275Y-88365643D01*
X208372219Y-88386290D01*
X208372209Y-88386293D01*
X208166277Y-88471593D01*
X208166273Y-88471595D01*
X207973226Y-88583052D01*
X207973217Y-88583058D01*
X207796377Y-88718751D01*
X207796370Y-88718757D01*
X207638757Y-88876370D01*
X207638751Y-88876377D01*
X207503058Y-89053217D01*
X207503052Y-89053226D01*
X207391595Y-89246273D01*
X207391593Y-89246277D01*
X207306293Y-89452209D01*
X207306290Y-89452219D01*
X207259389Y-89627259D01*
X207248597Y-89667534D01*
X207248594Y-89667547D01*
X207219501Y-89888533D01*
X207219500Y-89888549D01*
X189800500Y-89888549D01*
X189800500Y-87399983D01*
X219699500Y-87399983D01*
X219699500Y-88600001D01*
X219699501Y-88600018D01*
X219710000Y-88702796D01*
X219710001Y-88702799D01*
X219765185Y-88869331D01*
X219765187Y-88869336D01*
X219857289Y-89018657D01*
X219926510Y-89087878D01*
X219959995Y-89149201D01*
X219955011Y-89218893D01*
X219939148Y-89248444D01*
X219888139Y-89318651D01*
X219795244Y-89500968D01*
X219732009Y-89695582D01*
X219700000Y-89897682D01*
X219700000Y-90102317D01*
X219732009Y-90304417D01*
X219795244Y-90499031D01*
X219888141Y-90681350D01*
X219888147Y-90681359D01*
X219920523Y-90725921D01*
X219920524Y-90725922D01*
X220600000Y-90046446D01*
X220600000Y-90052661D01*
X220627259Y-90154394D01*
X220679920Y-90245606D01*
X220754394Y-90320080D01*
X220845606Y-90372741D01*
X220947339Y-90400000D01*
X220953553Y-90400000D01*
X220274076Y-91079474D01*
X220318650Y-91111859D01*
X220500968Y-91204755D01*
X220695582Y-91267990D01*
X220897683Y-91300000D01*
X221102317Y-91300000D01*
X221304417Y-91267990D01*
X221499031Y-91204755D01*
X221681349Y-91111859D01*
X221725921Y-91079474D01*
X221046447Y-90400000D01*
X221052661Y-90400000D01*
X221154394Y-90372741D01*
X221245606Y-90320080D01*
X221320080Y-90245606D01*
X221372741Y-90154394D01*
X221400000Y-90052661D01*
X221400000Y-90046447D01*
X222079474Y-90725921D01*
X222111859Y-90681349D01*
X222204755Y-90499031D01*
X222267990Y-90304417D01*
X222300000Y-90102317D01*
X222300000Y-89897682D01*
X222267990Y-89695582D01*
X222204755Y-89500968D01*
X222111857Y-89318646D01*
X222060853Y-89248446D01*
X222037372Y-89182640D01*
X222053197Y-89114586D01*
X222073489Y-89087879D01*
X222102504Y-89058864D01*
X222142712Y-89018656D01*
X222234814Y-88869334D01*
X222289999Y-88702797D01*
X222300500Y-88600009D01*
X222300499Y-87399992D01*
X222289999Y-87297203D01*
X222234814Y-87130666D01*
X222142712Y-86981344D01*
X222018656Y-86857288D01*
X221869334Y-86765186D01*
X221702797Y-86710001D01*
X221702795Y-86710000D01*
X221600010Y-86699500D01*
X220399998Y-86699500D01*
X220399981Y-86699501D01*
X220297203Y-86710000D01*
X220297200Y-86710001D01*
X220130668Y-86765185D01*
X220130663Y-86765187D01*
X219981342Y-86857289D01*
X219857289Y-86981342D01*
X219765187Y-87130663D01*
X219765186Y-87130666D01*
X219710001Y-87297203D01*
X219710001Y-87297204D01*
X219710000Y-87297204D01*
X219699500Y-87399983D01*
X189800500Y-87399983D01*
X189800500Y-87002706D01*
X189800618Y-86997297D01*
X189818147Y-86595795D01*
X189819087Y-86585064D01*
X189871189Y-86189302D01*
X189873063Y-86178672D01*
X189959463Y-85788950D01*
X189962261Y-85778512D01*
X190082291Y-85397823D01*
X190085979Y-85387691D01*
X190238742Y-85018888D01*
X190243300Y-85009114D01*
X190427617Y-84655045D01*
X190433012Y-84645700D01*
X190647495Y-84309029D01*
X190653685Y-84300189D01*
X190896687Y-83983503D01*
X190903625Y-83975234D01*
X191173304Y-83680932D01*
X191180932Y-83673304D01*
X191475234Y-83403625D01*
X191483503Y-83396687D01*
X191800189Y-83153685D01*
X191809029Y-83147495D01*
X192145700Y-82933012D01*
X192155045Y-82927617D01*
X192509114Y-82743300D01*
X192518888Y-82738742D01*
X192887691Y-82585979D01*
X192897823Y-82582291D01*
X193278521Y-82462258D01*
X193288950Y-82459463D01*
X193678672Y-82373063D01*
X193689302Y-82371189D01*
X194085064Y-82319087D01*
X194095795Y-82318147D01*
X194497297Y-82300617D01*
X194502706Y-82300500D01*
X194547595Y-82300500D01*
X239452405Y-82300500D01*
X239497294Y-82300500D01*
X239502702Y-82300617D01*
G37*
%TD.AperFunction*%
%TD*%
M02*
