%TF.GenerationSoftware,KiCad,Pcbnew,9.0.7*%
%TF.CreationDate,2026-05-10T13:43:30+02:00*%
%TF.ProjectId,pcb_module_LedStrip,7063625f-6d6f-4647-956c-655f4c656453,rev?*%
%TF.SameCoordinates,Original*%
%TF.FileFunction,Copper,L1,Top*%
%TF.FilePolarity,Positive*%
%FSLAX46Y46*%
G04 Gerber Fmt 4.6, Leading zero omitted, Abs format (unit mm)*
G04 Created by KiCad (PCBNEW 9.0.7) date 2026-05-10 13:43:30*
%MOMM*%
%LPD*%
G01*
G04 APERTURE LIST*
G04 Aperture macros list*
%AMRoundRect*
0 Rectangle with rounded corners*
0 $1 Rounding radius*
0 $2 $3 $4 $5 $6 $7 $8 $9 X,Y pos of 4 corners*
0 Add a 4 corners polygon primitive as box body*
4,1,4,$2,$3,$4,$5,$6,$7,$8,$9,$2,$3,0*
0 Add four circle primitives for the rounded corners*
1,1,$1+$1,$2,$3*
1,1,$1+$1,$4,$5*
1,1,$1+$1,$6,$7*
1,1,$1+$1,$8,$9*
0 Add four rect primitives between the rounded corners*
20,1,$1+$1,$2,$3,$4,$5,0*
20,1,$1+$1,$4,$5,$6,$7,0*
20,1,$1+$1,$6,$7,$8,$9,0*
20,1,$1+$1,$8,$9,$2,$3,0*%
G04 Aperture macros list end*
%TA.AperFunction,ComponentPad*%
%ADD10C,5.600000*%
%TD*%
%TA.AperFunction,SMDPad,CuDef*%
%ADD11RoundRect,0.237500X-0.250000X-0.237500X0.250000X-0.237500X0.250000X0.237500X-0.250000X0.237500X0*%
%TD*%
%TA.AperFunction,ComponentPad*%
%ADD12RoundRect,0.250000X-0.550000X0.550000X-0.550000X-0.550000X0.550000X-0.550000X0.550000X0.550000X0*%
%TD*%
%TA.AperFunction,ComponentPad*%
%ADD13C,1.600000*%
%TD*%
%TA.AperFunction,SMDPad,CuDef*%
%ADD14C,1.500000*%
%TD*%
%TA.AperFunction,ComponentPad*%
%ADD15R,1.700000X1.700000*%
%TD*%
%TA.AperFunction,ComponentPad*%
%ADD16C,1.700000*%
%TD*%
%TA.AperFunction,SMDPad,CuDef*%
%ADD17RoundRect,0.250000X0.850000X0.350000X-0.850000X0.350000X-0.850000X-0.350000X0.850000X-0.350000X0*%
%TD*%
%TA.AperFunction,SMDPad,CuDef*%
%ADD18RoundRect,0.249997X2.950003X2.650003X-2.950003X2.650003X-2.950003X-2.650003X2.950003X-2.650003X0*%
%TD*%
%TA.AperFunction,SMDPad,CuDef*%
%ADD19RoundRect,0.237500X0.250000X0.237500X-0.250000X0.237500X-0.250000X-0.237500X0.250000X-0.237500X0*%
%TD*%
%TA.AperFunction,SMDPad,CuDef*%
%ADD20RoundRect,0.237500X-0.300000X-0.237500X0.300000X-0.237500X0.300000X0.237500X-0.300000X0.237500X0*%
%TD*%
%TA.AperFunction,ComponentPad*%
%ADD21RoundRect,0.250001X-0.949999X0.949999X-0.949999X-0.949999X0.949999X-0.949999X0.949999X0.949999X0*%
%TD*%
%TA.AperFunction,ComponentPad*%
%ADD22C,2.400000*%
%TD*%
%TA.AperFunction,ComponentPad*%
%ADD23RoundRect,0.250001X0.949999X0.949999X-0.949999X0.949999X-0.949999X-0.949999X0.949999X-0.949999X0*%
%TD*%
%TA.AperFunction,ViaPad*%
%ADD24C,0.800000*%
%TD*%
%TA.AperFunction,Conductor*%
%ADD25C,1.000000*%
%TD*%
%TA.AperFunction,Conductor*%
%ADD26C,0.400000*%
%TD*%
G04 APERTURE END LIST*
D10*
%TO.P,H1,1,1*%
%TO.N,GND*%
X194500000Y-87000000D03*
%TD*%
D11*
%TO.P,R4,1*%
%TO.N,Net-(Q2-G)*%
X227375000Y-112000000D03*
%TO.P,R4,2*%
%TO.N,GND*%
X229200000Y-112000000D03*
%TD*%
D12*
%TO.P,C1,1*%
%TO.N,+12V*%
X221000000Y-88000000D03*
D13*
%TO.P,C1,2*%
%TO.N,GND*%
X221000000Y-90000000D03*
%TD*%
D10*
%TO.P,H3,1,1*%
%TO.N,GND*%
X239500000Y-132000000D03*
%TD*%
D14*
%TO.P,TP1,1,1*%
%TO.N,+12V*%
X194800000Y-94000000D03*
%TD*%
D10*
%TO.P,H4,1,1*%
%TO.N,GND*%
X194500000Y-132000000D03*
%TD*%
D15*
%TO.P,J3,1,Pin_1*%
%TO.N,CH1_CMD*%
X237500000Y-107767800D03*
D16*
%TO.P,J3,2,Pin_2*%
%TO.N,CH2_CMD*%
X237500000Y-110307800D03*
%TO.P,J3,3,Pin_3*%
%TO.N,CH3_CMD*%
X237500000Y-112847800D03*
%TO.P,J3,4,Pin_4*%
%TO.N,CH4_CMD*%
X237500000Y-115387800D03*
%TO.P,J3,5,Pin_5*%
%TO.N,GND*%
X237500000Y-117927800D03*
%TD*%
D17*
%TO.P,Q4,1,G*%
%TO.N,Net-(Q4-G)*%
X224175000Y-133990000D03*
D18*
%TO.P,Q4,2,D*%
%TO.N,CH4_INP*%
X217875000Y-131710000D03*
D17*
%TO.P,Q4,3,S*%
%TO.N,GND*%
X224175000Y-129430000D03*
%TD*%
D11*
%TO.P,R6,1*%
%TO.N,Net-(Q3-G)*%
X227375000Y-122750000D03*
%TO.P,R6,2*%
%TO.N,GND*%
X229200000Y-122750000D03*
%TD*%
D19*
%TO.P,R3,1*%
%TO.N,CH2_CMD*%
X229200000Y-109500000D03*
%TO.P,R3,2*%
%TO.N,Net-(Q2-G)*%
X227375000Y-109500000D03*
%TD*%
D17*
%TO.P,Q3,1,G*%
%TO.N,Net-(Q3-G)*%
X224200000Y-124000000D03*
D18*
%TO.P,Q3,2,D*%
%TO.N,CH3_INP*%
X217900000Y-121720000D03*
D17*
%TO.P,Q3,3,S*%
%TO.N,GND*%
X224200000Y-119440000D03*
%TD*%
D19*
%TO.P,R1,1*%
%TO.N,CH1_CMD*%
X229175000Y-99430000D03*
%TO.P,R1,2*%
%TO.N,Net-(Q1-G)*%
X227350000Y-99430000D03*
%TD*%
D17*
%TO.P,Q1,1,G*%
%TO.N,Net-(Q1-G)*%
X224175000Y-103500000D03*
D18*
%TO.P,Q1,2,D*%
%TO.N,CH1_INP*%
X217875000Y-101220000D03*
D17*
%TO.P,Q1,3,S*%
%TO.N,GND*%
X224175000Y-98940000D03*
%TD*%
D20*
%TO.P,C2,1*%
%TO.N,+12V*%
X206775000Y-98000000D03*
%TO.P,C2,2*%
%TO.N,GND*%
X208500000Y-98000000D03*
%TD*%
D11*
%TO.P,R8,1*%
%TO.N,Net-(Q4-G)*%
X227375000Y-132250000D03*
%TO.P,R8,2*%
%TO.N,GND*%
X229200000Y-132250000D03*
%TD*%
D14*
%TO.P,TP4,1,1*%
%TO.N,GND*%
X239400000Y-94200000D03*
%TD*%
D10*
%TO.P,H2,1,1*%
%TO.N,GND*%
X239500000Y-87000000D03*
%TD*%
D19*
%TO.P,R7,1*%
%TO.N,CH4_CMD*%
X229200000Y-129800000D03*
%TO.P,R7,2*%
%TO.N,Net-(Q4-G)*%
X227375000Y-129800000D03*
%TD*%
%TO.P,R5,1*%
%TO.N,CH3_CMD*%
X229200000Y-119800000D03*
%TO.P,R5,2*%
%TO.N,Net-(Q3-G)*%
X227375000Y-119800000D03*
%TD*%
D17*
%TO.P,Q2,1,G*%
%TO.N,Net-(Q2-G)*%
X224200000Y-113500000D03*
D18*
%TO.P,Q2,2,D*%
%TO.N,CH2_INP*%
X217900000Y-111220000D03*
D17*
%TO.P,Q2,3,S*%
%TO.N,GND*%
X224200000Y-108940000D03*
%TD*%
D21*
%TO.P,J2,1,Pin_1*%
%TO.N,+12V*%
X199000000Y-103420000D03*
D22*
%TO.P,J2,2,Pin_2*%
%TO.N,CH1_INP*%
X199000000Y-108500000D03*
%TO.P,J2,3,Pin_3*%
%TO.N,CH2_INP*%
X199000000Y-113580000D03*
%TO.P,J2,4,Pin_4*%
%TO.N,CH3_INP*%
X199000000Y-118660000D03*
%TO.P,J2,5,Pin_5*%
%TO.N,CH4_INP*%
X199000000Y-123740000D03*
%TD*%
D23*
%TO.P,J1,1,Pin_1*%
%TO.N,GND*%
X214000000Y-90000000D03*
D22*
%TO.P,J1,2,Pin_2*%
%TO.N,+12V*%
X208920000Y-90000000D03*
%TD*%
D11*
%TO.P,R2,1*%
%TO.N,Net-(Q1-G)*%
X227350000Y-102000000D03*
%TO.P,R2,2*%
%TO.N,GND*%
X229175000Y-102000000D03*
%TD*%
D24*
%TO.N,GND*%
X225000000Y-106500000D03*
X239000000Y-121500000D03*
X226000000Y-88500000D03*
X225000000Y-96500000D03*
X225000000Y-127000000D03*
X225000000Y-117000000D03*
%TD*%
D25*
%TO.N,+12V*%
X208564000Y-90356000D02*
X208564000Y-90149000D01*
X204920000Y-94000000D02*
X208920000Y-90000000D01*
X208564000Y-90149000D02*
X208564000Y-90000000D01*
X208771000Y-90000000D02*
X208920000Y-90000000D01*
X220922600Y-87922600D02*
X221000000Y-88000000D01*
X194800000Y-94000000D02*
X202775000Y-94000000D01*
X202775000Y-94000000D02*
X202982000Y-94000000D01*
X199000000Y-103420000D02*
X201355000Y-103420000D01*
X204920000Y-94000000D02*
X204920000Y-96145000D01*
X202982000Y-94000000D02*
X204920000Y-94000000D01*
X210997400Y-87922600D02*
X220922600Y-87922600D01*
X201355000Y-103420000D02*
X206775000Y-98000000D01*
X208920000Y-90000000D02*
X210997400Y-87922600D01*
X208564000Y-90000000D02*
X208771000Y-90000000D01*
X204920000Y-96145000D02*
X206775000Y-98000000D01*
%TO.N,CH1_INP*%
X210595000Y-108500000D02*
X199000000Y-108500000D01*
X217875000Y-101220000D02*
X210595000Y-108500000D01*
%TO.N,CH2_INP*%
X215540000Y-113580000D02*
X217900000Y-111220000D01*
X199000000Y-113580000D02*
X215540000Y-113580000D01*
%TO.N,CH4_INP*%
X206970000Y-131710000D02*
X217875000Y-131710000D01*
X199000000Y-123740000D02*
X206970000Y-131710000D01*
%TO.N,CH3_INP*%
X202060000Y-121720000D02*
X199000000Y-118660000D01*
X217900000Y-121720000D02*
X202060000Y-121720000D01*
D26*
%TO.N,CH4_CMD*%
X229200000Y-129800000D02*
X234910300Y-124089700D01*
X234910300Y-124089700D02*
X234910300Y-117977500D01*
X234910300Y-117977500D02*
X237500000Y-115387800D01*
%TO.N,CH2_CMD*%
X230007800Y-110307800D02*
X229200000Y-109500000D01*
X237500000Y-110307800D02*
X230007800Y-110307800D01*
%TO.N,CH3_CMD*%
X236152200Y-112847800D02*
X229200000Y-119800000D01*
X237500000Y-112847800D02*
X236152200Y-112847800D01*
%TO.N,CH1_CMD*%
X236161100Y-106416100D02*
X229175000Y-99430000D01*
X237500000Y-107767800D02*
X237500000Y-106416100D01*
X237500000Y-106416100D02*
X236161100Y-106416100D01*
%TO.N,Net-(Q1-G)*%
X227350000Y-99430000D02*
X227350000Y-102000000D01*
X225850000Y-103500000D02*
X227350000Y-102000000D01*
X224175000Y-103500000D02*
X225850000Y-103500000D01*
%TO.N,Net-(Q2-G)*%
X227375000Y-112000000D02*
X225700000Y-112000000D01*
X227375000Y-112000000D02*
X227375000Y-109500000D01*
X225700000Y-112000000D02*
X224200000Y-113500000D01*
%TO.N,Net-(Q3-G)*%
X225450000Y-122750000D02*
X224200000Y-124000000D01*
X227375000Y-122750000D02*
X225450000Y-122750000D01*
X227375000Y-122750000D02*
X227375000Y-119800000D01*
%TO.N,Net-(Q4-G)*%
X227375000Y-132250000D02*
X225915000Y-132250000D01*
X227375000Y-132250000D02*
X227375000Y-129800000D01*
X225915000Y-132250000D02*
X224175000Y-133990000D01*
%TD*%
%TA.AperFunction,Conductor*%
%TO.N,GND*%
G36*
X239502702Y-82300617D02*
G01*
X239904202Y-82318147D01*
X239914937Y-82319087D01*
X240310693Y-82371189D01*
X240321331Y-82373064D01*
X240711043Y-82459462D01*
X240721483Y-82462260D01*
X241102168Y-82582289D01*
X241112315Y-82585982D01*
X241481102Y-82738739D01*
X241490893Y-82743305D01*
X241844942Y-82927611D01*
X241854310Y-82933019D01*
X242190959Y-83147488D01*
X242199820Y-83153693D01*
X242516487Y-83396680D01*
X242524774Y-83403634D01*
X242819056Y-83673294D01*
X242826705Y-83680943D01*
X243096365Y-83975225D01*
X243103319Y-83983512D01*
X243346306Y-84300179D01*
X243352511Y-84309040D01*
X243566980Y-84645689D01*
X243572388Y-84655057D01*
X243756691Y-85009099D01*
X243761263Y-85018903D01*
X243914013Y-85387674D01*
X243917713Y-85397840D01*
X244037738Y-85778512D01*
X244040538Y-85788960D01*
X244126933Y-86178660D01*
X244128811Y-86189314D01*
X244180910Y-86585042D01*
X244181853Y-86595818D01*
X244199382Y-86997297D01*
X244199500Y-87002706D01*
X244199500Y-131997293D01*
X244199382Y-132002702D01*
X244181853Y-132404181D01*
X244180910Y-132414957D01*
X244128811Y-132810685D01*
X244126933Y-132821339D01*
X244040538Y-133211039D01*
X244037738Y-133221487D01*
X243917713Y-133602159D01*
X243914013Y-133612325D01*
X243761263Y-133981096D01*
X243756691Y-133990900D01*
X243572388Y-134344942D01*
X243566980Y-134354310D01*
X243352511Y-134690959D01*
X243346306Y-134699820D01*
X243103319Y-135016487D01*
X243096365Y-135024774D01*
X242826705Y-135319056D01*
X242819056Y-135326705D01*
X242524774Y-135596365D01*
X242516487Y-135603319D01*
X242199820Y-135846306D01*
X242190959Y-135852511D01*
X241854310Y-136066980D01*
X241844942Y-136072388D01*
X241490900Y-136256691D01*
X241481096Y-136261263D01*
X241112325Y-136414013D01*
X241102159Y-136417713D01*
X240721487Y-136537738D01*
X240711039Y-136540538D01*
X240321339Y-136626933D01*
X240310685Y-136628811D01*
X239914957Y-136680910D01*
X239904181Y-136681853D01*
X239502703Y-136699382D01*
X239497294Y-136699500D01*
X194502706Y-136699500D01*
X194497297Y-136699382D01*
X194095818Y-136681853D01*
X194085042Y-136680910D01*
X193689314Y-136628811D01*
X193678660Y-136626933D01*
X193288960Y-136540538D01*
X193278512Y-136537738D01*
X192897840Y-136417713D01*
X192887674Y-136414013D01*
X192518903Y-136261263D01*
X192509099Y-136256691D01*
X192155057Y-136072388D01*
X192145689Y-136066980D01*
X191809040Y-135852511D01*
X191800179Y-135846306D01*
X191483512Y-135603319D01*
X191475225Y-135596365D01*
X191180943Y-135326705D01*
X191173294Y-135319056D01*
X190903634Y-135024774D01*
X190896680Y-135016487D01*
X190653693Y-134699820D01*
X190647488Y-134690959D01*
X190433019Y-134354310D01*
X190427611Y-134344942D01*
X190243308Y-133990900D01*
X190238736Y-133981096D01*
X190085982Y-133612315D01*
X190082286Y-133602159D01*
X190078449Y-133589991D01*
X189962260Y-133221483D01*
X189959461Y-133211039D01*
X189950661Y-133171344D01*
X189873064Y-132821331D01*
X189871188Y-132810685D01*
X189869954Y-132801311D01*
X189819087Y-132414937D01*
X189818147Y-132404202D01*
X189800618Y-132002702D01*
X189800500Y-131997293D01*
X189800500Y-123628549D01*
X197299500Y-123628549D01*
X197299500Y-123851450D01*
X197299501Y-123851466D01*
X197328594Y-124072452D01*
X197328595Y-124072457D01*
X197328596Y-124072463D01*
X197351702Y-124158696D01*
X197386290Y-124287780D01*
X197386293Y-124287790D01*
X197471593Y-124493722D01*
X197471595Y-124493726D01*
X197583052Y-124686774D01*
X197583057Y-124686780D01*
X197583058Y-124686782D01*
X197718751Y-124863622D01*
X197718757Y-124863629D01*
X197876370Y-125021242D01*
X197876377Y-125021248D01*
X198002294Y-125117867D01*
X198053226Y-125156948D01*
X198246274Y-125268405D01*
X198452219Y-125353710D01*
X198667537Y-125411404D01*
X198888543Y-125440500D01*
X198888550Y-125440500D01*
X199111450Y-125440500D01*
X199111457Y-125440500D01*
X199204697Y-125428224D01*
X199273730Y-125438989D01*
X199308562Y-125463482D01*
X206189735Y-132344655D01*
X206189764Y-132344686D01*
X206332217Y-132487139D01*
X206496080Y-132596628D01*
X206496086Y-132596632D01*
X206595362Y-132637753D01*
X206678164Y-132672051D01*
X206774812Y-132691275D01*
X206853538Y-132706935D01*
X206871458Y-132710500D01*
X206871459Y-132710500D01*
X206871460Y-132710500D01*
X207068540Y-132710500D01*
X214050500Y-132710500D01*
X214117539Y-132730185D01*
X214163294Y-132782989D01*
X214174500Y-132834500D01*
X214174500Y-134410019D01*
X214185001Y-134512801D01*
X214240184Y-134679333D01*
X214240189Y-134679344D01*
X214332285Y-134828653D01*
X214332288Y-134828657D01*
X214456342Y-134952711D01*
X214456346Y-134952714D01*
X214605655Y-135044810D01*
X214605658Y-135044811D01*
X214605664Y-135044815D01*
X214772200Y-135099999D01*
X214874988Y-135110500D01*
X214874993Y-135110500D01*
X220875007Y-135110500D01*
X220875012Y-135110500D01*
X220977800Y-135099999D01*
X221144336Y-135044815D01*
X221293657Y-134952712D01*
X221417712Y-134828657D01*
X221509815Y-134679336D01*
X221564999Y-134512800D01*
X221575500Y-134410012D01*
X221575500Y-129829986D01*
X222575001Y-129829986D01*
X222585494Y-129932697D01*
X222640641Y-130099119D01*
X222640643Y-130099124D01*
X222732684Y-130248345D01*
X222856654Y-130372315D01*
X223005875Y-130464356D01*
X223005880Y-130464358D01*
X223172302Y-130519505D01*
X223172309Y-130519506D01*
X223275019Y-130529999D01*
X223924999Y-130529999D01*
X224425000Y-130529999D01*
X225074972Y-130529999D01*
X225074986Y-130529998D01*
X225177697Y-130519505D01*
X225344119Y-130464358D01*
X225344124Y-130464356D01*
X225493345Y-130372315D01*
X225617315Y-130248345D01*
X225709356Y-130099124D01*
X225709358Y-130099119D01*
X225764505Y-129932697D01*
X225764506Y-129932690D01*
X225774999Y-129829986D01*
X225775000Y-129829973D01*
X225775000Y-129680000D01*
X224425000Y-129680000D01*
X224425000Y-130529999D01*
X223924999Y-130529999D01*
X223925000Y-130529998D01*
X223925000Y-129680000D01*
X222575001Y-129680000D01*
X222575001Y-129829986D01*
X221575500Y-129829986D01*
X221575500Y-129030013D01*
X222575000Y-129030013D01*
X222575000Y-129180000D01*
X223925000Y-129180000D01*
X224425000Y-129180000D01*
X225774999Y-129180000D01*
X225774999Y-129030028D01*
X225774998Y-129030013D01*
X225764505Y-128927302D01*
X225709358Y-128760880D01*
X225709356Y-128760875D01*
X225617315Y-128611654D01*
X225493345Y-128487684D01*
X225344124Y-128395643D01*
X225344119Y-128395641D01*
X225177697Y-128340494D01*
X225177690Y-128340493D01*
X225074986Y-128330000D01*
X224425000Y-128330000D01*
X224425000Y-129180000D01*
X223925000Y-129180000D01*
X223925000Y-128330000D01*
X223275028Y-128330000D01*
X223275012Y-128330001D01*
X223172302Y-128340494D01*
X223005880Y-128395641D01*
X223005875Y-128395643D01*
X222856654Y-128487684D01*
X222732684Y-128611654D01*
X222640643Y-128760875D01*
X222640641Y-128760880D01*
X222585494Y-128927302D01*
X222585493Y-128927309D01*
X222575000Y-129030013D01*
X221575500Y-129030013D01*
X221575500Y-129009988D01*
X221564999Y-128907200D01*
X221509815Y-128740664D01*
X221509811Y-128740658D01*
X221509810Y-128740655D01*
X221417714Y-128591346D01*
X221417711Y-128591342D01*
X221293657Y-128467288D01*
X221293653Y-128467285D01*
X221144344Y-128375189D01*
X221144338Y-128375186D01*
X221144336Y-128375185D01*
X221144333Y-128375184D01*
X220977801Y-128320001D01*
X220875019Y-128309500D01*
X220875012Y-128309500D01*
X214874988Y-128309500D01*
X214874980Y-128309500D01*
X214772198Y-128320001D01*
X214605666Y-128375184D01*
X214605655Y-128375189D01*
X214456346Y-128467285D01*
X214456342Y-128467288D01*
X214332288Y-128591342D01*
X214332285Y-128591346D01*
X214240189Y-128740655D01*
X214240184Y-128740666D01*
X214185001Y-128907198D01*
X214174500Y-129009980D01*
X214174500Y-130585500D01*
X214154815Y-130652539D01*
X214102011Y-130698294D01*
X214050500Y-130709500D01*
X207435782Y-130709500D01*
X207368743Y-130689815D01*
X207348101Y-130673181D01*
X200723482Y-124048562D01*
X200689997Y-123987239D01*
X200688224Y-123944699D01*
X200700500Y-123851457D01*
X200700500Y-123628543D01*
X200671404Y-123407537D01*
X200613710Y-123192219D01*
X200609205Y-123181344D01*
X200557820Y-123057288D01*
X200528405Y-122986274D01*
X200416948Y-122793226D01*
X200376248Y-122740185D01*
X200281248Y-122616377D01*
X200281242Y-122616370D01*
X200123629Y-122458757D01*
X200123622Y-122458751D01*
X199946782Y-122323058D01*
X199946780Y-122323057D01*
X199946774Y-122323052D01*
X199753726Y-122211595D01*
X199753722Y-122211593D01*
X199547790Y-122126293D01*
X199547783Y-122126291D01*
X199547781Y-122126290D01*
X199332463Y-122068596D01*
X199332457Y-122068595D01*
X199332452Y-122068594D01*
X199111466Y-122039501D01*
X199111463Y-122039500D01*
X199111457Y-122039500D01*
X198888543Y-122039500D01*
X198888537Y-122039500D01*
X198888533Y-122039501D01*
X198667547Y-122068594D01*
X198667540Y-122068595D01*
X198667537Y-122068596D01*
X198452219Y-122126290D01*
X198452209Y-122126293D01*
X198246277Y-122211593D01*
X198246273Y-122211595D01*
X198053226Y-122323052D01*
X198053217Y-122323058D01*
X197876377Y-122458751D01*
X197876370Y-122458757D01*
X197718757Y-122616370D01*
X197718751Y-122616377D01*
X197583058Y-122793217D01*
X197583052Y-122793226D01*
X197471595Y-122986273D01*
X197471593Y-122986277D01*
X197386293Y-123192209D01*
X197386290Y-123192219D01*
X197349194Y-123330666D01*
X197328597Y-123407534D01*
X197328594Y-123407547D01*
X197299501Y-123628533D01*
X197299500Y-123628549D01*
X189800500Y-123628549D01*
X189800500Y-118548549D01*
X197299500Y-118548549D01*
X197299500Y-118771450D01*
X197299501Y-118771466D01*
X197328594Y-118992452D01*
X197328595Y-118992457D01*
X197328596Y-118992463D01*
X197378550Y-119178895D01*
X197386290Y-119207780D01*
X197386293Y-119207790D01*
X197471593Y-119413722D01*
X197471595Y-119413726D01*
X197583052Y-119606774D01*
X197583057Y-119606780D01*
X197583058Y-119606782D01*
X197718751Y-119783622D01*
X197718757Y-119783629D01*
X197876370Y-119941242D01*
X197876377Y-119941248D01*
X198002294Y-120037867D01*
X198053226Y-120076948D01*
X198246274Y-120188405D01*
X198376140Y-120242197D01*
X198415124Y-120258345D01*
X198452219Y-120273710D01*
X198667537Y-120331404D01*
X198888543Y-120360500D01*
X198888550Y-120360500D01*
X199111450Y-120360500D01*
X199111457Y-120360500D01*
X199204696Y-120348224D01*
X199273729Y-120358989D01*
X199308561Y-120383482D01*
X201422215Y-122497137D01*
X201422219Y-122497140D01*
X201586079Y-122606628D01*
X201586085Y-122606631D01*
X201586086Y-122606632D01*
X201768165Y-122682052D01*
X201961455Y-122720500D01*
X201961458Y-122720501D01*
X201961460Y-122720501D01*
X202164655Y-122720501D01*
X202164675Y-122720500D01*
X214075500Y-122720500D01*
X214142539Y-122740185D01*
X214188294Y-122792989D01*
X214199500Y-122844500D01*
X214199500Y-124420019D01*
X214210001Y-124522801D01*
X214265184Y-124689333D01*
X214265189Y-124689344D01*
X214357285Y-124838653D01*
X214357288Y-124838657D01*
X214481342Y-124962711D01*
X214481346Y-124962714D01*
X214630655Y-125054810D01*
X214630658Y-125054811D01*
X214630664Y-125054815D01*
X214797200Y-125109999D01*
X214899988Y-125120500D01*
X214899993Y-125120500D01*
X220900007Y-125120500D01*
X220900012Y-125120500D01*
X221002800Y-125109999D01*
X221169336Y-125054815D01*
X221318657Y-124962712D01*
X221442712Y-124838657D01*
X221534815Y-124689336D01*
X221589999Y-124522800D01*
X221600500Y-124420012D01*
X221600500Y-119839986D01*
X222600001Y-119839986D01*
X222610494Y-119942697D01*
X222665641Y-120109119D01*
X222665643Y-120109124D01*
X222757684Y-120258345D01*
X222881654Y-120382315D01*
X223030875Y-120474356D01*
X223030880Y-120474358D01*
X223197302Y-120529505D01*
X223197309Y-120529506D01*
X223300019Y-120539999D01*
X223949999Y-120539999D01*
X224450000Y-120539999D01*
X225099972Y-120539999D01*
X225099986Y-120539998D01*
X225202697Y-120529505D01*
X225369119Y-120474358D01*
X225369124Y-120474356D01*
X225518345Y-120382315D01*
X225642315Y-120258345D01*
X225734356Y-120109124D01*
X225734358Y-120109119D01*
X225789505Y-119942697D01*
X225789506Y-119942690D01*
X225799999Y-119839986D01*
X225800000Y-119839973D01*
X225800000Y-119690000D01*
X224450000Y-119690000D01*
X224450000Y-120539999D01*
X223949999Y-120539999D01*
X223950000Y-120539998D01*
X223950000Y-119690000D01*
X222600001Y-119690000D01*
X222600001Y-119839986D01*
X221600500Y-119839986D01*
X221600500Y-119040013D01*
X222600000Y-119040013D01*
X222600000Y-119190000D01*
X223950000Y-119190000D01*
X224450000Y-119190000D01*
X225799999Y-119190000D01*
X225799999Y-119040028D01*
X225799998Y-119040013D01*
X225789505Y-118937302D01*
X225734358Y-118770880D01*
X225734356Y-118770875D01*
X225642315Y-118621654D01*
X225518345Y-118497684D01*
X225369124Y-118405643D01*
X225369119Y-118405641D01*
X225202697Y-118350494D01*
X225202690Y-118350493D01*
X225099986Y-118340000D01*
X224450000Y-118340000D01*
X224450000Y-119190000D01*
X223950000Y-119190000D01*
X223950000Y-118340000D01*
X223300028Y-118340000D01*
X223300012Y-118340001D01*
X223197302Y-118350494D01*
X223030880Y-118405641D01*
X223030875Y-118405643D01*
X222881654Y-118497684D01*
X222757684Y-118621654D01*
X222665643Y-118770875D01*
X222665641Y-118770880D01*
X222610494Y-118937302D01*
X222610493Y-118937309D01*
X222600000Y-119040013D01*
X221600500Y-119040013D01*
X221600500Y-119019988D01*
X221589999Y-118917200D01*
X221534815Y-118750664D01*
X221534811Y-118750658D01*
X221534810Y-118750655D01*
X221442714Y-118601346D01*
X221442711Y-118601342D01*
X221318657Y-118477288D01*
X221318653Y-118477285D01*
X221169344Y-118385189D01*
X221169338Y-118385186D01*
X221169336Y-118385185D01*
X221169333Y-118385184D01*
X221002801Y-118330001D01*
X220900019Y-118319500D01*
X220900012Y-118319500D01*
X214899988Y-118319500D01*
X214899980Y-118319500D01*
X214797198Y-118330001D01*
X214630666Y-118385184D01*
X214630655Y-118385189D01*
X214481346Y-118477285D01*
X214481342Y-118477288D01*
X214357288Y-118601342D01*
X214357285Y-118601346D01*
X214265189Y-118750655D01*
X214265184Y-118750666D01*
X214210001Y-118917198D01*
X214199500Y-119019980D01*
X214199500Y-120595500D01*
X214179815Y-120662539D01*
X214127011Y-120708294D01*
X214075500Y-120719500D01*
X202525783Y-120719500D01*
X202458744Y-120699815D01*
X202438102Y-120683181D01*
X200723482Y-118968561D01*
X200689997Y-118907238D01*
X200688224Y-118864699D01*
X200700500Y-118771457D01*
X200700500Y-118548543D01*
X200671404Y-118327537D01*
X200613710Y-118112219D01*
X200528405Y-117906274D01*
X200416948Y-117713226D01*
X200281247Y-117536376D01*
X200281242Y-117536370D01*
X200123629Y-117378757D01*
X200123622Y-117378751D01*
X199946782Y-117243058D01*
X199946780Y-117243057D01*
X199946774Y-117243052D01*
X199753726Y-117131595D01*
X199753722Y-117131593D01*
X199547790Y-117046293D01*
X199547783Y-117046291D01*
X199547781Y-117046290D01*
X199332463Y-116988596D01*
X199332457Y-116988595D01*
X199332452Y-116988594D01*
X199111466Y-116959501D01*
X199111463Y-116959500D01*
X199111457Y-116959500D01*
X198888543Y-116959500D01*
X198888537Y-116959500D01*
X198888533Y-116959501D01*
X198667547Y-116988594D01*
X198667540Y-116988595D01*
X198667537Y-116988596D01*
X198452219Y-117046290D01*
X198452209Y-117046293D01*
X198246277Y-117131593D01*
X198246273Y-117131595D01*
X198053226Y-117243052D01*
X198053217Y-117243058D01*
X197876377Y-117378751D01*
X197876370Y-117378757D01*
X197718757Y-117536370D01*
X197718751Y-117536377D01*
X197583058Y-117713217D01*
X197583052Y-117713226D01*
X197471595Y-117906273D01*
X197471593Y-117906277D01*
X197386293Y-118112209D01*
X197386290Y-118112219D01*
X197330750Y-118319500D01*
X197328597Y-118327534D01*
X197328594Y-118327547D01*
X197299501Y-118548533D01*
X197299500Y-118548549D01*
X189800500Y-118548549D01*
X189800500Y-113468549D01*
X197299500Y-113468549D01*
X197299500Y-113691450D01*
X197299501Y-113691466D01*
X197328594Y-113912452D01*
X197328595Y-113912457D01*
X197328596Y-113912463D01*
X197383616Y-114117800D01*
X197386290Y-114127780D01*
X197386293Y-114127790D01*
X197465353Y-114318657D01*
X197471595Y-114333726D01*
X197583052Y-114526774D01*
X197583057Y-114526780D01*
X197583058Y-114526782D01*
X197718751Y-114703622D01*
X197718757Y-114703629D01*
X197876370Y-114861242D01*
X197876377Y-114861248D01*
X198002294Y-114957867D01*
X198053226Y-114996948D01*
X198246274Y-115108405D01*
X198452219Y-115193710D01*
X198667537Y-115251404D01*
X198888543Y-115280500D01*
X198888550Y-115280500D01*
X199111450Y-115280500D01*
X199111457Y-115280500D01*
X199332463Y-115251404D01*
X199547781Y-115193710D01*
X199753726Y-115108405D01*
X199946774Y-114996948D01*
X200123624Y-114861247D01*
X200281247Y-114703624D01*
X200338497Y-114629013D01*
X200394924Y-114587811D01*
X200436873Y-114580500D01*
X214688167Y-114580500D01*
X214727171Y-114586794D01*
X214797200Y-114609999D01*
X214899988Y-114620500D01*
X214899993Y-114620500D01*
X220900007Y-114620500D01*
X220900012Y-114620500D01*
X221002800Y-114609999D01*
X221169336Y-114554815D01*
X221318657Y-114462712D01*
X221442712Y-114338657D01*
X221534815Y-114189336D01*
X221589999Y-114022800D01*
X221600500Y-113920012D01*
X221600500Y-109339986D01*
X222600001Y-109339986D01*
X222610494Y-109442697D01*
X222665641Y-109609119D01*
X222665643Y-109609124D01*
X222757684Y-109758345D01*
X222881654Y-109882315D01*
X223030875Y-109974356D01*
X223030880Y-109974358D01*
X223197302Y-110029505D01*
X223197309Y-110029506D01*
X223300019Y-110039999D01*
X223949999Y-110039999D01*
X224450000Y-110039999D01*
X225099972Y-110039999D01*
X225099986Y-110039998D01*
X225202697Y-110029505D01*
X225369119Y-109974358D01*
X225369124Y-109974356D01*
X225518345Y-109882315D01*
X225642315Y-109758345D01*
X225734356Y-109609124D01*
X225734358Y-109609119D01*
X225789505Y-109442697D01*
X225789506Y-109442690D01*
X225799999Y-109339986D01*
X225800000Y-109339973D01*
X225800000Y-109190000D01*
X224450000Y-109190000D01*
X224450000Y-110039999D01*
X223949999Y-110039999D01*
X223950000Y-110039998D01*
X223950000Y-109190000D01*
X222600001Y-109190000D01*
X222600001Y-109339986D01*
X221600500Y-109339986D01*
X221600500Y-108540013D01*
X222600000Y-108540013D01*
X222600000Y-108690000D01*
X223950000Y-108690000D01*
X224450000Y-108690000D01*
X225799999Y-108690000D01*
X225799999Y-108540028D01*
X225799998Y-108540013D01*
X225789505Y-108437302D01*
X225734358Y-108270880D01*
X225734356Y-108270875D01*
X225642315Y-108121654D01*
X225518345Y-107997684D01*
X225369124Y-107905643D01*
X225369119Y-107905641D01*
X225202697Y-107850494D01*
X225202690Y-107850493D01*
X225099986Y-107840000D01*
X224450000Y-107840000D01*
X224450000Y-108690000D01*
X223950000Y-108690000D01*
X223950000Y-107840000D01*
X223300028Y-107840000D01*
X223300012Y-107840001D01*
X223197302Y-107850494D01*
X223030880Y-107905641D01*
X223030875Y-107905643D01*
X222881654Y-107997684D01*
X222757684Y-108121654D01*
X222665643Y-108270875D01*
X222665641Y-108270880D01*
X222610494Y-108437302D01*
X222610493Y-108437309D01*
X222600000Y-108540013D01*
X221600500Y-108540013D01*
X221600500Y-108519988D01*
X221589999Y-108417200D01*
X221534815Y-108250664D01*
X221534811Y-108250658D01*
X221534810Y-108250655D01*
X221442714Y-108101346D01*
X221442711Y-108101342D01*
X221318657Y-107977288D01*
X221318653Y-107977285D01*
X221169344Y-107885189D01*
X221169338Y-107885186D01*
X221169336Y-107885185D01*
X221169333Y-107885184D01*
X221002801Y-107830001D01*
X220900019Y-107819500D01*
X220900012Y-107819500D01*
X214899988Y-107819500D01*
X214899980Y-107819500D01*
X214797198Y-107830001D01*
X214630666Y-107885184D01*
X214630655Y-107885189D01*
X214481346Y-107977285D01*
X214481342Y-107977288D01*
X214357288Y-108101342D01*
X214357285Y-108101346D01*
X214265189Y-108250655D01*
X214265184Y-108250666D01*
X214210001Y-108417198D01*
X214199500Y-108519980D01*
X214199500Y-112455500D01*
X214179815Y-112522539D01*
X214127011Y-112568294D01*
X214075500Y-112579500D01*
X200436873Y-112579500D01*
X200369834Y-112559815D01*
X200338497Y-112530986D01*
X200281248Y-112456377D01*
X200281242Y-112456370D01*
X200123629Y-112298757D01*
X200123622Y-112298751D01*
X199946782Y-112163058D01*
X199946780Y-112163057D01*
X199946774Y-112163052D01*
X199753726Y-112051595D01*
X199753722Y-112051593D01*
X199547790Y-111966293D01*
X199547783Y-111966291D01*
X199547781Y-111966290D01*
X199332463Y-111908596D01*
X199332457Y-111908595D01*
X199332452Y-111908594D01*
X199111466Y-111879501D01*
X199111463Y-111879500D01*
X199111457Y-111879500D01*
X198888543Y-111879500D01*
X198888537Y-111879500D01*
X198888533Y-111879501D01*
X198667547Y-111908594D01*
X198667540Y-111908595D01*
X198667537Y-111908596D01*
X198452219Y-111966290D01*
X198452209Y-111966293D01*
X198246277Y-112051593D01*
X198246273Y-112051595D01*
X198053226Y-112163052D01*
X198053217Y-112163058D01*
X197876377Y-112298751D01*
X197876370Y-112298757D01*
X197718757Y-112456370D01*
X197718751Y-112456377D01*
X197583058Y-112633217D01*
X197583052Y-112633226D01*
X197471595Y-112826273D01*
X197471593Y-112826277D01*
X197386293Y-113032209D01*
X197386290Y-113032219D01*
X197328597Y-113247534D01*
X197328594Y-113247547D01*
X197299501Y-113468533D01*
X197299500Y-113468549D01*
X189800500Y-113468549D01*
X189800500Y-108388549D01*
X197299500Y-108388549D01*
X197299500Y-108611450D01*
X197299501Y-108611466D01*
X197328594Y-108832452D01*
X197328595Y-108832457D01*
X197328596Y-108832463D01*
X197386290Y-109047780D01*
X197386293Y-109047790D01*
X197454860Y-109213324D01*
X197471595Y-109253726D01*
X197583052Y-109446774D01*
X197583057Y-109446780D01*
X197583058Y-109446782D01*
X197718751Y-109623622D01*
X197718757Y-109623629D01*
X197876370Y-109781242D01*
X197876377Y-109781248D01*
X198002294Y-109877867D01*
X198053226Y-109916948D01*
X198246274Y-110028405D01*
X198452219Y-110113710D01*
X198667537Y-110171404D01*
X198888543Y-110200500D01*
X198888550Y-110200500D01*
X199111450Y-110200500D01*
X199111457Y-110200500D01*
X199332463Y-110171404D01*
X199547781Y-110113710D01*
X199753726Y-110028405D01*
X199946774Y-109916948D01*
X200123624Y-109781247D01*
X200281247Y-109623624D01*
X200338497Y-109549013D01*
X200394924Y-109507811D01*
X200436873Y-109500500D01*
X210693542Y-109500500D01*
X210709417Y-109497342D01*
X210790188Y-109481275D01*
X210886836Y-109462051D01*
X210961782Y-109431007D01*
X211068914Y-109386632D01*
X211232782Y-109277139D01*
X211372139Y-109137782D01*
X211372139Y-109137780D01*
X211382347Y-109127573D01*
X211382348Y-109127570D01*
X215853102Y-104656819D01*
X215914425Y-104623334D01*
X215940783Y-104620500D01*
X220875007Y-104620500D01*
X220875012Y-104620500D01*
X220977800Y-104609999D01*
X221144336Y-104554815D01*
X221293657Y-104462712D01*
X221417712Y-104338657D01*
X221509815Y-104189336D01*
X221564999Y-104022800D01*
X221575500Y-103920012D01*
X221575500Y-103099983D01*
X222574500Y-103099983D01*
X222574500Y-103900001D01*
X222574501Y-103900019D01*
X222585000Y-104002796D01*
X222585001Y-104002799D01*
X222640185Y-104169331D01*
X222640187Y-104169336D01*
X222652521Y-104189333D01*
X222732288Y-104318656D01*
X222856344Y-104442712D01*
X223005666Y-104534814D01*
X223172203Y-104589999D01*
X223274991Y-104600500D01*
X225075008Y-104600499D01*
X225177797Y-104589999D01*
X225344334Y-104534814D01*
X225493656Y-104442712D01*
X225617712Y-104318656D01*
X225654259Y-104259402D01*
X225706207Y-104212679D01*
X225759798Y-104200500D01*
X225918996Y-104200500D01*
X226010040Y-104182389D01*
X226054328Y-104173580D01*
X226118069Y-104147177D01*
X226181807Y-104120777D01*
X226181808Y-104120776D01*
X226181811Y-104120775D01*
X226296543Y-104044114D01*
X227328837Y-103011817D01*
X227390160Y-102978333D01*
X227416518Y-102975499D01*
X227649170Y-102975499D01*
X227649176Y-102975499D01*
X227750253Y-102965174D01*
X227914016Y-102910908D01*
X228060850Y-102820340D01*
X228175175Y-102706014D01*
X228236494Y-102672532D01*
X228306186Y-102677516D01*
X228350534Y-102706017D01*
X228464461Y-102819944D01*
X228464465Y-102819947D01*
X228611188Y-102910448D01*
X228611199Y-102910453D01*
X228774847Y-102964680D01*
X228875851Y-102974999D01*
X229425000Y-102974999D01*
X229474140Y-102974999D01*
X229474154Y-102974998D01*
X229575152Y-102964680D01*
X229738800Y-102910453D01*
X229738811Y-102910448D01*
X229885534Y-102819947D01*
X229885538Y-102819944D01*
X230007444Y-102698038D01*
X230007447Y-102698034D01*
X230097948Y-102551311D01*
X230097953Y-102551300D01*
X230152180Y-102387652D01*
X230162499Y-102286654D01*
X230162500Y-102286641D01*
X230162500Y-102250000D01*
X229425000Y-102250000D01*
X229425000Y-102974999D01*
X228875851Y-102974999D01*
X228924999Y-102974998D01*
X228925000Y-102974998D01*
X228925000Y-101025000D01*
X228924999Y-101024999D01*
X228875861Y-101025000D01*
X228875843Y-101025001D01*
X228774847Y-101035319D01*
X228611199Y-101089546D01*
X228611188Y-101089551D01*
X228464465Y-101180052D01*
X228350534Y-101293983D01*
X228342587Y-101298322D01*
X228337163Y-101305568D01*
X228312405Y-101314802D01*
X228289211Y-101327467D01*
X228280181Y-101326821D01*
X228271699Y-101329985D01*
X228245878Y-101324368D01*
X228219519Y-101322483D01*
X228210465Y-101316664D01*
X228203426Y-101315133D01*
X228175172Y-101293982D01*
X228086819Y-101205629D01*
X228053334Y-101144306D01*
X228050500Y-101117948D01*
X228050500Y-100312052D01*
X228070185Y-100245013D01*
X228086819Y-100224371D01*
X228174819Y-100136371D01*
X228236142Y-100102886D01*
X228305834Y-100107870D01*
X228350181Y-100136371D01*
X228464150Y-100250340D01*
X228610984Y-100340908D01*
X228774747Y-100395174D01*
X228875823Y-100405500D01*
X229108479Y-100405499D01*
X229175519Y-100425183D01*
X229196161Y-100441818D01*
X229567805Y-100813462D01*
X229601290Y-100874785D01*
X229596306Y-100944477D01*
X229554434Y-101000410D01*
X229488970Y-101024827D01*
X229477304Y-101024948D01*
X229477304Y-101025000D01*
X229425000Y-101025000D01*
X229425000Y-101750000D01*
X230162499Y-101750000D01*
X230162499Y-101710198D01*
X230163351Y-101710198D01*
X230178761Y-101645734D01*
X230229166Y-101597349D01*
X230297729Y-101583897D01*
X230362680Y-101609647D01*
X230374036Y-101619693D01*
X233013747Y-104259403D01*
X235616986Y-106862642D01*
X235714558Y-106960214D01*
X235714559Y-106960215D01*
X235829282Y-107036871D01*
X235829286Y-107036873D01*
X235829289Y-107036875D01*
X235903966Y-107067807D01*
X235956771Y-107089680D01*
X235983691Y-107095034D01*
X236049694Y-107108163D01*
X236111604Y-107140549D01*
X236146177Y-107201266D01*
X236149500Y-107229780D01*
X236149500Y-108665670D01*
X236149501Y-108665676D01*
X236155908Y-108725283D01*
X236206202Y-108860128D01*
X236206206Y-108860135D01*
X236292452Y-108975344D01*
X236292455Y-108975347D01*
X236407664Y-109061593D01*
X236407671Y-109061597D01*
X236539082Y-109110610D01*
X236595016Y-109152481D01*
X236619433Y-109217945D01*
X236604582Y-109286218D01*
X236583431Y-109314473D01*
X236469890Y-109428014D01*
X236419522Y-109497342D01*
X236376770Y-109556185D01*
X236321442Y-109598851D01*
X236276453Y-109607300D01*
X230349319Y-109607300D01*
X230319878Y-109598655D01*
X230289892Y-109592132D01*
X230284876Y-109588377D01*
X230282280Y-109587615D01*
X230261638Y-109570981D01*
X230224318Y-109533661D01*
X230190833Y-109472338D01*
X230187999Y-109445980D01*
X230187999Y-109213330D01*
X230187998Y-109213313D01*
X230177674Y-109112247D01*
X230156312Y-109047781D01*
X230123408Y-108948484D01*
X230032840Y-108801650D01*
X229910850Y-108679660D01*
X229800290Y-108611466D01*
X229764018Y-108589093D01*
X229764013Y-108589091D01*
X229762569Y-108588612D01*
X229600253Y-108534826D01*
X229600251Y-108534825D01*
X229499178Y-108524500D01*
X228900830Y-108524500D01*
X228900812Y-108524501D01*
X228799747Y-108534825D01*
X228635984Y-108589092D01*
X228635981Y-108589093D01*
X228489148Y-108679661D01*
X228375181Y-108793629D01*
X228313858Y-108827114D01*
X228244166Y-108822130D01*
X228199819Y-108793629D01*
X228085851Y-108679661D01*
X228085850Y-108679660D01*
X227975290Y-108611466D01*
X227939018Y-108589093D01*
X227939013Y-108589091D01*
X227937569Y-108588612D01*
X227775253Y-108534826D01*
X227775251Y-108534825D01*
X227674178Y-108524500D01*
X227075830Y-108524500D01*
X227075812Y-108524501D01*
X226974747Y-108534825D01*
X226810984Y-108589092D01*
X226810981Y-108589093D01*
X226664148Y-108679661D01*
X226542161Y-108801648D01*
X226451593Y-108948481D01*
X226451592Y-108948484D01*
X226397326Y-109112247D01*
X226397326Y-109112248D01*
X226397325Y-109112248D01*
X226387000Y-109213315D01*
X226387000Y-109786669D01*
X226387001Y-109786687D01*
X226397325Y-109887752D01*
X226426024Y-109974358D01*
X226447775Y-110039998D01*
X226451592Y-110051515D01*
X226451593Y-110051518D01*
X226485895Y-110107129D01*
X226525538Y-110171402D01*
X226542161Y-110198351D01*
X226638181Y-110294371D01*
X226671666Y-110355694D01*
X226674500Y-110382052D01*
X226674500Y-111117948D01*
X226665855Y-111147388D01*
X226659332Y-111177375D01*
X226655577Y-111182390D01*
X226654815Y-111184987D01*
X226638181Y-111205629D01*
X226580629Y-111263181D01*
X226519306Y-111296666D01*
X226492948Y-111299500D01*
X225631003Y-111299500D01*
X225522590Y-111321065D01*
X225522589Y-111321065D01*
X225506379Y-111324289D01*
X225495669Y-111326420D01*
X225467946Y-111337904D01*
X225368188Y-111379225D01*
X225368188Y-111379226D01*
X225253456Y-111455886D01*
X225253453Y-111455889D01*
X224346160Y-112363181D01*
X224284837Y-112396666D01*
X224258479Y-112399500D01*
X223299998Y-112399500D01*
X223299980Y-112399501D01*
X223197203Y-112410000D01*
X223197200Y-112410001D01*
X223030668Y-112465185D01*
X223030663Y-112465187D01*
X222881342Y-112557289D01*
X222757289Y-112681342D01*
X222665187Y-112830663D01*
X222665186Y-112830666D01*
X222610001Y-112997203D01*
X222610001Y-112997204D01*
X222610000Y-112997204D01*
X222599500Y-113099983D01*
X222599500Y-113900001D01*
X222599501Y-113900019D01*
X222610000Y-114002796D01*
X222610001Y-114002799D01*
X222654221Y-114136243D01*
X222665186Y-114169334D01*
X222757288Y-114318656D01*
X222881344Y-114442712D01*
X223030666Y-114534814D01*
X223197203Y-114589999D01*
X223299991Y-114600500D01*
X225100008Y-114600499D01*
X225202797Y-114589999D01*
X225369334Y-114534814D01*
X225518656Y-114442712D01*
X225642712Y-114318656D01*
X225734814Y-114169334D01*
X225789999Y-114002797D01*
X225800500Y-113900009D01*
X225800499Y-113099992D01*
X225789999Y-112997203D01*
X225789998Y-112997200D01*
X225789998Y-112997198D01*
X225788582Y-112990580D01*
X225789788Y-112990321D01*
X225789492Y-112981722D01*
X225784049Y-112967128D01*
X225788315Y-112947516D01*
X225787625Y-112927461D01*
X225795794Y-112913136D01*
X225798901Y-112898855D01*
X225820045Y-112870609D01*
X225953838Y-112736816D01*
X226015161Y-112703334D01*
X226041518Y-112700500D01*
X226492948Y-112700500D01*
X226559987Y-112720185D01*
X226580628Y-112736818D01*
X226664150Y-112820340D01*
X226810984Y-112910908D01*
X226974747Y-112965174D01*
X227075823Y-112975500D01*
X227674176Y-112975499D01*
X227674184Y-112975498D01*
X227674187Y-112975498D01*
X227756124Y-112967128D01*
X227775253Y-112965174D01*
X227939016Y-112910908D01*
X228085850Y-112820340D01*
X228200175Y-112706014D01*
X228261494Y-112672532D01*
X228331186Y-112677516D01*
X228375534Y-112706017D01*
X228489461Y-112819944D01*
X228489465Y-112819947D01*
X228636188Y-112910448D01*
X228636199Y-112910453D01*
X228799847Y-112964680D01*
X228900851Y-112974999D01*
X229450000Y-112974999D01*
X229499140Y-112974999D01*
X229499154Y-112974998D01*
X229600152Y-112964680D01*
X229763800Y-112910453D01*
X229763811Y-112910448D01*
X229910534Y-112819947D01*
X229910538Y-112819944D01*
X230032444Y-112698038D01*
X230032447Y-112698034D01*
X230122948Y-112551311D01*
X230122953Y-112551300D01*
X230177180Y-112387652D01*
X230187499Y-112286654D01*
X230187500Y-112286641D01*
X230187500Y-112250000D01*
X229450000Y-112250000D01*
X229450000Y-112974999D01*
X228900851Y-112974999D01*
X228949999Y-112974998D01*
X228950000Y-112974998D01*
X228950000Y-111025000D01*
X228949999Y-111024999D01*
X228900861Y-111025000D01*
X228900843Y-111025001D01*
X228799847Y-111035319D01*
X228636199Y-111089546D01*
X228636188Y-111089551D01*
X228489465Y-111180052D01*
X228375534Y-111293983D01*
X228367587Y-111298322D01*
X228362163Y-111305568D01*
X228337405Y-111314802D01*
X228314211Y-111327467D01*
X228305181Y-111326821D01*
X228296699Y-111329985D01*
X228270878Y-111324368D01*
X228244519Y-111322483D01*
X228235465Y-111316664D01*
X228228426Y-111315133D01*
X228200172Y-111293982D01*
X228111819Y-111205629D01*
X228078334Y-111144306D01*
X228075500Y-111117948D01*
X228075500Y-110382052D01*
X228095185Y-110315013D01*
X228111819Y-110294371D01*
X228199819Y-110206371D01*
X228261142Y-110172886D01*
X228330834Y-110177870D01*
X228375181Y-110206371D01*
X228489150Y-110320340D01*
X228635984Y-110410908D01*
X228799747Y-110465174D01*
X228900823Y-110475500D01*
X229133479Y-110475499D01*
X229200519Y-110495183D01*
X229221161Y-110511818D01*
X229522661Y-110813319D01*
X229556146Y-110874642D01*
X229551162Y-110944334D01*
X229509290Y-111000267D01*
X229454176Y-111020823D01*
X229450000Y-111025000D01*
X229450000Y-111750000D01*
X230187499Y-111750000D01*
X230187499Y-111713360D01*
X230187498Y-111713345D01*
X230177180Y-111612347D01*
X230122953Y-111448699D01*
X230122948Y-111448688D01*
X230032447Y-111301965D01*
X230032444Y-111301961D01*
X229950464Y-111219981D01*
X229916979Y-111158658D01*
X229921963Y-111088966D01*
X229963835Y-111033033D01*
X230029299Y-111008616D01*
X230038145Y-111008300D01*
X236276453Y-111008300D01*
X236343492Y-111027985D01*
X236376769Y-111059414D01*
X236398241Y-111088966D01*
X236469892Y-111187588D01*
X236620213Y-111337909D01*
X236792182Y-111462850D01*
X236800946Y-111467316D01*
X236851742Y-111515291D01*
X236868536Y-111583112D01*
X236845998Y-111649247D01*
X236800946Y-111688284D01*
X236792182Y-111692749D01*
X236620213Y-111817690D01*
X236469892Y-111968011D01*
X236409168Y-112051593D01*
X236376770Y-112096185D01*
X236321442Y-112138851D01*
X236276453Y-112147300D01*
X236083205Y-112147300D01*
X235947877Y-112174218D01*
X235947867Y-112174221D01*
X235820392Y-112227022D01*
X235705654Y-112303687D01*
X229221160Y-118788181D01*
X229159837Y-118821666D01*
X229133480Y-118824500D01*
X228900831Y-118824500D01*
X228900812Y-118824501D01*
X228799747Y-118834825D01*
X228635984Y-118889092D01*
X228635981Y-118889093D01*
X228489148Y-118979661D01*
X228375181Y-119093629D01*
X228313858Y-119127114D01*
X228244166Y-119122130D01*
X228199819Y-119093629D01*
X228085851Y-118979661D01*
X228085850Y-118979660D01*
X227984583Y-118917198D01*
X227939018Y-118889093D01*
X227939013Y-118889091D01*
X227937569Y-118888612D01*
X227775253Y-118834826D01*
X227775251Y-118834825D01*
X227674178Y-118824500D01*
X227075830Y-118824500D01*
X227075812Y-118824501D01*
X226974747Y-118834825D01*
X226810984Y-118889092D01*
X226810981Y-118889093D01*
X226664148Y-118979661D01*
X226542161Y-119101648D01*
X226451593Y-119248481D01*
X226451591Y-119248486D01*
X226424219Y-119331088D01*
X226397326Y-119412247D01*
X226397326Y-119412248D01*
X226397325Y-119412248D01*
X226387000Y-119513315D01*
X226387000Y-120086669D01*
X226387001Y-120086687D01*
X226397325Y-120187752D01*
X226397542Y-120188406D01*
X226447856Y-120340243D01*
X226451592Y-120351515D01*
X226451593Y-120351518D01*
X226470589Y-120382315D01*
X226527360Y-120474356D01*
X226542161Y-120498351D01*
X226638181Y-120594371D01*
X226671666Y-120655694D01*
X226674500Y-120682052D01*
X226674500Y-121867948D01*
X226665855Y-121897388D01*
X226659332Y-121927375D01*
X226655577Y-121932390D01*
X226654815Y-121934987D01*
X226638181Y-121955629D01*
X226580629Y-122013181D01*
X226519306Y-122046666D01*
X226492948Y-122049500D01*
X225381004Y-122049500D01*
X225245677Y-122076418D01*
X225245667Y-122076421D01*
X225118192Y-122129222D01*
X225003454Y-122205887D01*
X224346160Y-122863181D01*
X224284837Y-122896666D01*
X224258479Y-122899500D01*
X223299998Y-122899500D01*
X223299980Y-122899501D01*
X223197203Y-122910000D01*
X223197200Y-122910001D01*
X223030668Y-122965185D01*
X223030663Y-122965187D01*
X222881342Y-123057289D01*
X222757289Y-123181342D01*
X222665187Y-123330663D01*
X222665186Y-123330666D01*
X222610001Y-123497203D01*
X222610001Y-123497204D01*
X222610000Y-123497204D01*
X222599500Y-123599983D01*
X222599500Y-124400001D01*
X222599501Y-124400019D01*
X222610000Y-124502796D01*
X222610001Y-124502799D01*
X222665185Y-124669331D01*
X222665186Y-124669334D01*
X222757288Y-124818656D01*
X222881344Y-124942712D01*
X223030666Y-125034814D01*
X223197203Y-125089999D01*
X223299991Y-125100500D01*
X225100008Y-125100499D01*
X225202797Y-125089999D01*
X225369334Y-125034814D01*
X225518656Y-124942712D01*
X225642712Y-124818656D01*
X225734814Y-124669334D01*
X225789999Y-124502797D01*
X225800500Y-124400009D01*
X225800499Y-123599992D01*
X225799182Y-123587102D01*
X225811950Y-123518411D01*
X225859830Y-123467526D01*
X225922540Y-123450500D01*
X226492948Y-123450500D01*
X226559987Y-123470185D01*
X226580629Y-123486819D01*
X226664150Y-123570340D01*
X226810984Y-123660908D01*
X226974747Y-123715174D01*
X227075823Y-123725500D01*
X227674176Y-123725499D01*
X227674184Y-123725498D01*
X227674187Y-123725498D01*
X227729530Y-123719844D01*
X227775253Y-123715174D01*
X227939016Y-123660908D01*
X228085850Y-123570340D01*
X228200175Y-123456014D01*
X228261494Y-123422532D01*
X228331186Y-123427516D01*
X228375534Y-123456017D01*
X228489461Y-123569944D01*
X228489465Y-123569947D01*
X228636188Y-123660448D01*
X228636199Y-123660453D01*
X228799847Y-123714680D01*
X228900851Y-123724999D01*
X229450000Y-123724999D01*
X229499140Y-123724999D01*
X229499154Y-123724998D01*
X229600152Y-123714680D01*
X229763800Y-123660453D01*
X229763811Y-123660448D01*
X229910534Y-123569947D01*
X229910538Y-123569944D01*
X230032444Y-123448038D01*
X230032447Y-123448034D01*
X230122948Y-123301311D01*
X230122953Y-123301300D01*
X230177180Y-123137652D01*
X230187499Y-123036654D01*
X230187500Y-123036641D01*
X230187500Y-123000000D01*
X229450000Y-123000000D01*
X229450000Y-123724999D01*
X228900851Y-123724999D01*
X228949999Y-123724998D01*
X228950000Y-123724998D01*
X228950000Y-122500000D01*
X229450000Y-122500000D01*
X230187499Y-122500000D01*
X230187499Y-122463360D01*
X230187498Y-122463345D01*
X230177180Y-122362347D01*
X230122953Y-122198699D01*
X230122948Y-122198688D01*
X230032447Y-122051965D01*
X230032444Y-122051961D01*
X229910538Y-121930055D01*
X229910534Y-121930052D01*
X229763811Y-121839551D01*
X229763800Y-121839546D01*
X229600152Y-121785319D01*
X229499154Y-121775000D01*
X229450000Y-121775000D01*
X229450000Y-122500000D01*
X228950000Y-122500000D01*
X228950000Y-121775000D01*
X228949999Y-121774999D01*
X228900861Y-121775000D01*
X228900843Y-121775001D01*
X228799847Y-121785319D01*
X228636199Y-121839546D01*
X228636188Y-121839551D01*
X228489465Y-121930052D01*
X228375534Y-122043983D01*
X228367587Y-122048322D01*
X228362163Y-122055568D01*
X228337405Y-122064802D01*
X228314211Y-122077467D01*
X228305181Y-122076821D01*
X228296699Y-122079985D01*
X228270878Y-122074368D01*
X228244519Y-122072483D01*
X228235465Y-122066664D01*
X228228426Y-122065133D01*
X228200172Y-122043982D01*
X228111819Y-121955629D01*
X228078334Y-121894306D01*
X228075500Y-121867948D01*
X228075500Y-120682052D01*
X228095185Y-120615013D01*
X228111819Y-120594371D01*
X228199819Y-120506371D01*
X228261142Y-120472886D01*
X228330834Y-120477870D01*
X228375181Y-120506371D01*
X228489150Y-120620340D01*
X228635984Y-120710908D01*
X228799747Y-120765174D01*
X228900823Y-120775500D01*
X229499176Y-120775499D01*
X229499184Y-120775498D01*
X229499187Y-120775498D01*
X229554530Y-120769844D01*
X229600253Y-120765174D01*
X229764016Y-120710908D01*
X229910850Y-120620340D01*
X230032840Y-120498350D01*
X230123408Y-120351516D01*
X230177674Y-120187753D01*
X230188000Y-120086677D01*
X230187999Y-119854018D01*
X230207683Y-119786979D01*
X230224313Y-119766342D01*
X236280199Y-113710456D01*
X236341520Y-113676973D01*
X236411212Y-113681957D01*
X236467145Y-113723829D01*
X236468194Y-113725250D01*
X236469894Y-113727590D01*
X236620213Y-113877909D01*
X236792182Y-114002850D01*
X236800946Y-114007316D01*
X236851742Y-114055291D01*
X236868536Y-114123112D01*
X236845998Y-114189247D01*
X236800946Y-114228284D01*
X236792182Y-114232749D01*
X236620213Y-114357690D01*
X236469890Y-114508013D01*
X236344951Y-114679979D01*
X236248444Y-114869385D01*
X236182753Y-115071560D01*
X236149500Y-115281513D01*
X236149500Y-115494087D01*
X236149499Y-115494087D01*
X236174284Y-115650571D01*
X236165329Y-115719864D01*
X236139492Y-115757649D01*
X234366187Y-117530954D01*
X234289522Y-117645692D01*
X234236721Y-117773167D01*
X234236718Y-117773177D01*
X234209800Y-117908504D01*
X234209800Y-123748180D01*
X234190115Y-123815219D01*
X234173481Y-123835861D01*
X229221160Y-128788181D01*
X229159837Y-128821666D01*
X229133480Y-128824500D01*
X228900831Y-128824500D01*
X228900812Y-128824501D01*
X228799747Y-128834825D01*
X228635984Y-128889092D01*
X228635981Y-128889093D01*
X228489148Y-128979661D01*
X228375181Y-129093629D01*
X228313858Y-129127114D01*
X228244166Y-129122130D01*
X228199819Y-129093629D01*
X228085851Y-128979661D01*
X228085850Y-128979660D01*
X227968374Y-128907200D01*
X227939018Y-128889093D01*
X227939013Y-128889091D01*
X227937569Y-128888612D01*
X227775253Y-128834826D01*
X227775251Y-128834825D01*
X227674178Y-128824500D01*
X227075830Y-128824500D01*
X227075812Y-128824501D01*
X226974747Y-128834825D01*
X226810984Y-128889092D01*
X226810981Y-128889093D01*
X226664148Y-128979661D01*
X226542161Y-129101648D01*
X226451593Y-129248481D01*
X226451592Y-129248484D01*
X226397326Y-129412247D01*
X226397326Y-129412248D01*
X226397325Y-129412248D01*
X226387000Y-129513315D01*
X226387000Y-130086669D01*
X226387001Y-130086687D01*
X226397325Y-130187752D01*
X226451592Y-130351515D01*
X226451593Y-130351518D01*
X226464421Y-130372315D01*
X226521192Y-130464356D01*
X226542161Y-130498351D01*
X226638181Y-130594371D01*
X226671666Y-130655694D01*
X226674500Y-130682052D01*
X226674500Y-131367948D01*
X226665855Y-131397388D01*
X226659332Y-131427375D01*
X226655577Y-131432390D01*
X226654815Y-131434987D01*
X226638181Y-131455629D01*
X226580629Y-131513181D01*
X226519306Y-131546666D01*
X226492948Y-131549500D01*
X225846004Y-131549500D01*
X225710677Y-131576418D01*
X225710667Y-131576421D01*
X225583192Y-131629222D01*
X225468454Y-131705887D01*
X224321160Y-132853181D01*
X224259837Y-132886666D01*
X224233479Y-132889500D01*
X223274998Y-132889500D01*
X223274980Y-132889501D01*
X223172203Y-132900000D01*
X223172200Y-132900001D01*
X223005668Y-132955185D01*
X223005663Y-132955187D01*
X222856342Y-133047289D01*
X222732289Y-133171342D01*
X222640187Y-133320663D01*
X222640186Y-133320666D01*
X222585001Y-133487203D01*
X222585001Y-133487204D01*
X222585000Y-133487204D01*
X222574500Y-133589983D01*
X222574500Y-134390001D01*
X222574501Y-134390019D01*
X222585000Y-134492796D01*
X222585001Y-134492799D01*
X222640185Y-134659331D01*
X222640186Y-134659334D01*
X222732288Y-134808656D01*
X222856344Y-134932712D01*
X223005666Y-135024814D01*
X223172203Y-135079999D01*
X223274991Y-135090500D01*
X225075008Y-135090499D01*
X225177797Y-135079999D01*
X225344334Y-135024814D01*
X225493656Y-134932712D01*
X225617712Y-134808656D01*
X225709814Y-134659334D01*
X225764999Y-134492797D01*
X225775500Y-134390009D01*
X225775499Y-133589992D01*
X225764999Y-133487203D01*
X225764997Y-133487197D01*
X225763582Y-133480586D01*
X225764786Y-133480328D01*
X225762626Y-133417456D01*
X225795050Y-133360605D01*
X226168838Y-132986819D01*
X226195765Y-132972115D01*
X226221584Y-132955523D01*
X226227784Y-132954631D01*
X226230161Y-132953334D01*
X226256519Y-132950500D01*
X226492948Y-132950500D01*
X226559987Y-132970185D01*
X226580629Y-132986819D01*
X226664150Y-133070340D01*
X226810984Y-133160908D01*
X226974747Y-133215174D01*
X227075823Y-133225500D01*
X227674176Y-133225499D01*
X227674184Y-133225498D01*
X227674187Y-133225498D01*
X227729530Y-133219844D01*
X227775253Y-133215174D01*
X227939016Y-133160908D01*
X228085850Y-133070340D01*
X228200175Y-132956014D01*
X228261494Y-132922532D01*
X228331186Y-132927516D01*
X228375534Y-132956017D01*
X228489461Y-133069944D01*
X228489465Y-133069947D01*
X228636188Y-133160448D01*
X228636199Y-133160453D01*
X228799847Y-133214680D01*
X228900851Y-133224999D01*
X229450000Y-133224999D01*
X229499140Y-133224999D01*
X229499154Y-133224998D01*
X229600152Y-133214680D01*
X229763800Y-133160453D01*
X229763811Y-133160448D01*
X229910534Y-133069947D01*
X229910538Y-133069944D01*
X230032444Y-132948038D01*
X230032447Y-132948034D01*
X230122948Y-132801311D01*
X230122953Y-132801300D01*
X230177180Y-132637652D01*
X230187499Y-132536654D01*
X230187500Y-132536641D01*
X230187500Y-132500000D01*
X229450000Y-132500000D01*
X229450000Y-133224999D01*
X228900851Y-133224999D01*
X228949999Y-133224998D01*
X228950000Y-133224998D01*
X228950000Y-132000000D01*
X229450000Y-132000000D01*
X230187499Y-132000000D01*
X230187499Y-131963360D01*
X230187498Y-131963345D01*
X230177180Y-131862347D01*
X230122953Y-131698699D01*
X230122948Y-131698688D01*
X230032447Y-131551965D01*
X230032444Y-131551961D01*
X229910538Y-131430055D01*
X229910534Y-131430052D01*
X229763811Y-131339551D01*
X229763800Y-131339546D01*
X229600152Y-131285319D01*
X229499154Y-131275000D01*
X229450000Y-131275000D01*
X229450000Y-132000000D01*
X228950000Y-132000000D01*
X228950000Y-131275000D01*
X228949999Y-131274999D01*
X228900861Y-131275000D01*
X228900843Y-131275001D01*
X228799847Y-131285319D01*
X228636199Y-131339546D01*
X228636188Y-131339551D01*
X228489465Y-131430052D01*
X228375534Y-131543983D01*
X228367587Y-131548322D01*
X228362163Y-131555568D01*
X228337405Y-131564802D01*
X228314211Y-131577467D01*
X228305181Y-131576821D01*
X228296699Y-131579985D01*
X228270878Y-131574368D01*
X228244519Y-131572483D01*
X228235465Y-131566664D01*
X228228426Y-131565133D01*
X228200172Y-131543982D01*
X228111819Y-131455629D01*
X228078334Y-131394306D01*
X228075500Y-131367948D01*
X228075500Y-130682052D01*
X228095185Y-130615013D01*
X228111819Y-130594371D01*
X228199819Y-130506371D01*
X228261142Y-130472886D01*
X228330834Y-130477870D01*
X228375181Y-130506371D01*
X228489150Y-130620340D01*
X228635984Y-130710908D01*
X228799747Y-130765174D01*
X228900823Y-130775500D01*
X229499176Y-130775499D01*
X229499184Y-130775498D01*
X229499187Y-130775498D01*
X229554530Y-130769844D01*
X229600253Y-130765174D01*
X229764016Y-130710908D01*
X229910850Y-130620340D01*
X230032840Y-130498350D01*
X230123408Y-130351516D01*
X230177674Y-130187753D01*
X230188000Y-130086677D01*
X230187999Y-129854018D01*
X230207683Y-129786979D01*
X230224313Y-129766342D01*
X235454414Y-124536243D01*
X235531075Y-124421511D01*
X235531699Y-124420006D01*
X235583878Y-124294032D01*
X235583880Y-124294028D01*
X235610800Y-124158694D01*
X235610800Y-124020706D01*
X235610800Y-118319018D01*
X235630485Y-118251979D01*
X235647114Y-118231342D01*
X235938320Y-117940136D01*
X235999642Y-117906652D01*
X236069334Y-117911636D01*
X236125267Y-117953508D01*
X236149684Y-118018972D01*
X236150000Y-118027818D01*
X236150000Y-118034046D01*
X236183242Y-118243927D01*
X236183242Y-118243930D01*
X236248904Y-118446017D01*
X236345375Y-118635350D01*
X236384728Y-118689516D01*
X237017037Y-118057208D01*
X237034075Y-118120793D01*
X237099901Y-118234807D01*
X237192993Y-118327899D01*
X237307007Y-118393725D01*
X237370590Y-118410762D01*
X236738282Y-119043069D01*
X236738282Y-119043070D01*
X236792449Y-119082424D01*
X236981782Y-119178895D01*
X237183870Y-119244557D01*
X237393754Y-119277800D01*
X237606246Y-119277800D01*
X237816127Y-119244557D01*
X237816130Y-119244557D01*
X238018217Y-119178895D01*
X238207554Y-119082422D01*
X238261716Y-119043070D01*
X238261717Y-119043070D01*
X237629408Y-118410762D01*
X237692993Y-118393725D01*
X237807007Y-118327899D01*
X237900099Y-118234807D01*
X237965925Y-118120793D01*
X237982962Y-118057209D01*
X238615270Y-118689517D01*
X238615270Y-118689516D01*
X238654622Y-118635354D01*
X238751095Y-118446017D01*
X238816757Y-118243930D01*
X238816757Y-118243927D01*
X238850000Y-118034046D01*
X238850000Y-117821553D01*
X238816757Y-117611672D01*
X238816757Y-117611669D01*
X238751095Y-117409582D01*
X238654624Y-117220249D01*
X238615270Y-117166082D01*
X238615269Y-117166082D01*
X237982962Y-117798390D01*
X237965925Y-117734807D01*
X237900099Y-117620793D01*
X237807007Y-117527701D01*
X237692993Y-117461875D01*
X237629408Y-117444837D01*
X238261716Y-116812528D01*
X238207547Y-116773173D01*
X238207547Y-116773172D01*
X238198500Y-116768563D01*
X238147706Y-116720588D01*
X238130912Y-116652766D01*
X238153451Y-116586632D01*
X238198508Y-116547593D01*
X238207816Y-116542851D01*
X238287007Y-116485315D01*
X238379786Y-116417909D01*
X238379788Y-116417906D01*
X238379792Y-116417904D01*
X238530104Y-116267592D01*
X238530106Y-116267588D01*
X238530109Y-116267586D01*
X238655048Y-116095620D01*
X238655047Y-116095620D01*
X238655051Y-116095616D01*
X238751557Y-115906212D01*
X238817246Y-115704043D01*
X238850500Y-115494087D01*
X238850500Y-115281513D01*
X238817246Y-115071557D01*
X238751557Y-114869388D01*
X238655051Y-114679984D01*
X238655049Y-114679981D01*
X238655048Y-114679979D01*
X238530109Y-114508013D01*
X238379786Y-114357690D01*
X238207820Y-114232751D01*
X238207115Y-114232391D01*
X238199054Y-114228285D01*
X238148259Y-114180312D01*
X238131463Y-114112492D01*
X238153999Y-114046356D01*
X238199054Y-114007315D01*
X238207816Y-114002851D01*
X238229789Y-113986886D01*
X238379786Y-113877909D01*
X238379788Y-113877906D01*
X238379792Y-113877904D01*
X238530104Y-113727592D01*
X238530106Y-113727588D01*
X238530109Y-113727586D01*
X238655048Y-113555620D01*
X238655047Y-113555620D01*
X238655051Y-113555616D01*
X238751557Y-113366212D01*
X238817246Y-113164043D01*
X238850500Y-112954087D01*
X238850500Y-112741513D01*
X238817246Y-112531557D01*
X238751557Y-112329388D01*
X238655051Y-112139984D01*
X238655049Y-112139981D01*
X238655048Y-112139979D01*
X238530109Y-111968013D01*
X238379786Y-111817690D01*
X238207820Y-111692751D01*
X238207115Y-111692391D01*
X238199054Y-111688285D01*
X238148259Y-111640312D01*
X238131463Y-111572492D01*
X238153999Y-111506356D01*
X238199054Y-111467315D01*
X238207816Y-111462851D01*
X238322917Y-111379226D01*
X238379786Y-111337909D01*
X238379792Y-111337904D01*
X238454515Y-111263181D01*
X238530104Y-111187592D01*
X238530106Y-111187588D01*
X238530109Y-111187586D01*
X238655048Y-111015620D01*
X238655047Y-111015620D01*
X238655051Y-111015616D01*
X238751557Y-110826212D01*
X238817246Y-110624043D01*
X238850500Y-110414087D01*
X238850500Y-110201513D01*
X238817246Y-109991557D01*
X238751557Y-109789388D01*
X238655051Y-109599984D01*
X238655049Y-109599981D01*
X238655048Y-109599979D01*
X238530109Y-109428013D01*
X238416569Y-109314473D01*
X238383084Y-109253150D01*
X238388068Y-109183458D01*
X238429940Y-109127525D01*
X238460915Y-109110610D01*
X238592331Y-109061596D01*
X238707546Y-108975346D01*
X238793796Y-108860131D01*
X238844091Y-108725283D01*
X238850500Y-108665673D01*
X238850499Y-106869928D01*
X238844091Y-106810317D01*
X238793796Y-106675469D01*
X238793795Y-106675468D01*
X238793793Y-106675464D01*
X238707547Y-106560255D01*
X238707544Y-106560252D01*
X238592335Y-106474006D01*
X238592328Y-106474002D01*
X238457482Y-106423708D01*
X238457483Y-106423708D01*
X238397883Y-106417301D01*
X238397881Y-106417300D01*
X238397873Y-106417300D01*
X238397865Y-106417300D01*
X238316227Y-106417300D01*
X238249188Y-106397615D01*
X238203433Y-106344811D01*
X238194610Y-106317492D01*
X238173581Y-106211777D01*
X238173580Y-106211776D01*
X238173580Y-106211772D01*
X238173578Y-106211767D01*
X238120778Y-106084295D01*
X238120771Y-106084282D01*
X238044114Y-105969558D01*
X238044111Y-105969554D01*
X237946545Y-105871988D01*
X237946541Y-105871985D01*
X237831817Y-105795328D01*
X237831804Y-105795321D01*
X237704332Y-105742521D01*
X237704322Y-105742518D01*
X237568995Y-105715600D01*
X237568993Y-105715600D01*
X236502618Y-105715600D01*
X236435579Y-105695915D01*
X236414937Y-105679281D01*
X230199318Y-99463661D01*
X230165833Y-99402338D01*
X230162999Y-99375980D01*
X230162999Y-99143330D01*
X230162998Y-99143313D01*
X230152674Y-99042247D01*
X230098408Y-98878484D01*
X230007840Y-98731650D01*
X229885850Y-98609660D01*
X229739016Y-98519092D01*
X229575253Y-98464826D01*
X229575251Y-98464825D01*
X229474178Y-98454500D01*
X228875830Y-98454500D01*
X228875812Y-98454501D01*
X228774747Y-98464825D01*
X228610984Y-98519092D01*
X228610981Y-98519093D01*
X228464148Y-98609661D01*
X228350181Y-98723629D01*
X228288858Y-98757114D01*
X228219166Y-98752130D01*
X228174819Y-98723629D01*
X228060851Y-98609661D01*
X228060850Y-98609660D01*
X227914016Y-98519092D01*
X227750253Y-98464826D01*
X227750251Y-98464825D01*
X227649178Y-98454500D01*
X227050830Y-98454500D01*
X227050812Y-98454501D01*
X226949747Y-98464825D01*
X226785984Y-98519092D01*
X226785981Y-98519093D01*
X226639148Y-98609661D01*
X226517161Y-98731648D01*
X226426593Y-98878481D01*
X226426591Y-98878486D01*
X226400846Y-98956181D01*
X226372326Y-99042247D01*
X226372326Y-99042248D01*
X226372325Y-99042248D01*
X226362000Y-99143315D01*
X226362000Y-99716669D01*
X226362001Y-99716687D01*
X226372325Y-99817752D01*
X226393720Y-99882315D01*
X226424219Y-99974356D01*
X226426592Y-99981515D01*
X226426593Y-99981518D01*
X226517161Y-100128351D01*
X226613181Y-100224371D01*
X226646666Y-100285694D01*
X226649500Y-100312052D01*
X226649500Y-101117948D01*
X226629815Y-101184987D01*
X226613181Y-101205629D01*
X226517161Y-101301648D01*
X226426593Y-101448481D01*
X226426592Y-101448484D01*
X226372326Y-101612247D01*
X226372326Y-101612248D01*
X226372325Y-101612248D01*
X226362000Y-101713315D01*
X226362000Y-101945980D01*
X226342315Y-102013019D01*
X226325681Y-102033661D01*
X225735536Y-102623806D01*
X225674213Y-102657291D01*
X225604521Y-102652307D01*
X225560174Y-102623806D01*
X225493657Y-102557289D01*
X225493656Y-102557288D01*
X225344334Y-102465186D01*
X225177797Y-102410001D01*
X225177795Y-102410000D01*
X225075010Y-102399500D01*
X223274998Y-102399500D01*
X223274981Y-102399501D01*
X223172203Y-102410000D01*
X223172200Y-102410001D01*
X223005668Y-102465185D01*
X223005663Y-102465187D01*
X222856342Y-102557289D01*
X222732289Y-102681342D01*
X222640187Y-102830663D01*
X222640186Y-102830666D01*
X222585001Y-102997203D01*
X222585001Y-102997204D01*
X222585000Y-102997204D01*
X222574500Y-103099983D01*
X221575500Y-103099983D01*
X221575500Y-99339986D01*
X222575001Y-99339986D01*
X222585494Y-99442697D01*
X222640641Y-99609119D01*
X222640643Y-99609124D01*
X222732684Y-99758345D01*
X222856654Y-99882315D01*
X223005875Y-99974356D01*
X223005880Y-99974358D01*
X223172302Y-100029505D01*
X223172309Y-100029506D01*
X223275019Y-100039999D01*
X223924999Y-100039999D01*
X224425000Y-100039999D01*
X225074972Y-100039999D01*
X225074986Y-100039998D01*
X225177697Y-100029505D01*
X225344119Y-99974358D01*
X225344124Y-99974356D01*
X225493345Y-99882315D01*
X225617315Y-99758345D01*
X225709356Y-99609124D01*
X225709358Y-99609119D01*
X225764505Y-99442697D01*
X225764506Y-99442690D01*
X225774999Y-99339986D01*
X225775000Y-99339973D01*
X225775000Y-99190000D01*
X224425000Y-99190000D01*
X224425000Y-100039999D01*
X223924999Y-100039999D01*
X223925000Y-100039998D01*
X223925000Y-99190000D01*
X222575001Y-99190000D01*
X222575001Y-99339986D01*
X221575500Y-99339986D01*
X221575500Y-98540013D01*
X222575000Y-98540013D01*
X222575000Y-98690000D01*
X223925000Y-98690000D01*
X224425000Y-98690000D01*
X225774999Y-98690000D01*
X225774999Y-98540028D01*
X225774998Y-98540013D01*
X225764505Y-98437302D01*
X225709358Y-98270880D01*
X225709356Y-98270875D01*
X225617315Y-98121654D01*
X225493345Y-97997684D01*
X225344124Y-97905643D01*
X225344119Y-97905641D01*
X225177697Y-97850494D01*
X225177690Y-97850493D01*
X225074986Y-97840000D01*
X224425000Y-97840000D01*
X224425000Y-98690000D01*
X223925000Y-98690000D01*
X223925000Y-97840000D01*
X223275028Y-97840000D01*
X223275012Y-97840001D01*
X223172302Y-97850494D01*
X223005880Y-97905641D01*
X223005875Y-97905643D01*
X222856654Y-97997684D01*
X222732684Y-98121654D01*
X222640643Y-98270875D01*
X222640641Y-98270880D01*
X222585494Y-98437302D01*
X222585493Y-98437309D01*
X222575000Y-98540013D01*
X221575500Y-98540013D01*
X221575500Y-98519988D01*
X221564999Y-98417200D01*
X221509815Y-98250664D01*
X221509811Y-98250658D01*
X221509810Y-98250655D01*
X221417714Y-98101346D01*
X221417711Y-98101342D01*
X221293657Y-97977288D01*
X221293653Y-97977285D01*
X221144344Y-97885189D01*
X221144338Y-97885186D01*
X221144336Y-97885185D01*
X221144333Y-97885184D01*
X220977801Y-97830001D01*
X220875019Y-97819500D01*
X220875012Y-97819500D01*
X214874988Y-97819500D01*
X214874980Y-97819500D01*
X214772198Y-97830001D01*
X214605666Y-97885184D01*
X214605655Y-97885189D01*
X214456346Y-97977285D01*
X214456342Y-97977288D01*
X214332288Y-98101342D01*
X214332285Y-98101346D01*
X214240189Y-98250655D01*
X214240184Y-98250666D01*
X214185001Y-98417198D01*
X214174500Y-98519980D01*
X214174500Y-103454217D01*
X214154815Y-103521256D01*
X214138181Y-103541898D01*
X210216899Y-107463181D01*
X210155576Y-107496666D01*
X210129218Y-107499500D01*
X200436873Y-107499500D01*
X200369834Y-107479815D01*
X200338497Y-107450986D01*
X200281248Y-107376377D01*
X200281242Y-107376370D01*
X200123629Y-107218757D01*
X200123622Y-107218751D01*
X199946782Y-107083058D01*
X199946780Y-107083057D01*
X199946774Y-107083052D01*
X199753726Y-106971595D01*
X199753722Y-106971593D01*
X199547790Y-106886293D01*
X199547783Y-106886291D01*
X199547781Y-106886290D01*
X199332463Y-106828596D01*
X199332457Y-106828595D01*
X199332452Y-106828594D01*
X199111466Y-106799501D01*
X199111463Y-106799500D01*
X199111457Y-106799500D01*
X198888543Y-106799500D01*
X198888537Y-106799500D01*
X198888533Y-106799501D01*
X198667547Y-106828594D01*
X198667540Y-106828595D01*
X198667537Y-106828596D01*
X198452219Y-106886290D01*
X198452209Y-106886293D01*
X198246277Y-106971593D01*
X198246273Y-106971595D01*
X198053226Y-107083052D01*
X198053217Y-107083058D01*
X197876377Y-107218751D01*
X197876370Y-107218757D01*
X197718757Y-107376370D01*
X197718751Y-107376377D01*
X197583058Y-107553217D01*
X197583052Y-107553226D01*
X197471595Y-107746273D01*
X197471593Y-107746277D01*
X197386293Y-107952209D01*
X197386290Y-107952219D01*
X197328597Y-108167534D01*
X197328594Y-108167547D01*
X197299501Y-108388533D01*
X197299500Y-108388549D01*
X189800500Y-108388549D01*
X189800500Y-93901577D01*
X193549500Y-93901577D01*
X193549500Y-94098422D01*
X193580290Y-94292826D01*
X193641117Y-94480029D01*
X193678580Y-94553553D01*
X193730476Y-94655405D01*
X193846172Y-94814646D01*
X193985354Y-94953828D01*
X194144595Y-95069524D01*
X194227455Y-95111743D01*
X194319970Y-95158882D01*
X194319972Y-95158882D01*
X194319975Y-95158884D01*
X194420317Y-95191487D01*
X194507173Y-95219709D01*
X194701578Y-95250500D01*
X194701583Y-95250500D01*
X194898422Y-95250500D01*
X195092826Y-95219709D01*
X195280025Y-95158884D01*
X195455405Y-95069524D01*
X195483896Y-95048823D01*
X195517814Y-95024182D01*
X195583620Y-95000702D01*
X195590699Y-95000500D01*
X202676459Y-95000500D01*
X202883459Y-95000500D01*
X203795500Y-95000500D01*
X203862539Y-95020185D01*
X203908294Y-95072989D01*
X203919500Y-95124500D01*
X203919500Y-96243541D01*
X203919500Y-96243543D01*
X203919499Y-96243543D01*
X203957947Y-96436829D01*
X203957950Y-96436839D01*
X204033364Y-96618907D01*
X204033371Y-96618920D01*
X204142860Y-96782781D01*
X204142863Y-96782785D01*
X204286537Y-96926459D01*
X204286559Y-96926479D01*
X205272398Y-97912318D01*
X205305883Y-97973641D01*
X205300899Y-98043333D01*
X205272398Y-98087680D01*
X200976899Y-102383181D01*
X200949971Y-102397884D01*
X200924153Y-102414477D01*
X200917952Y-102415368D01*
X200915576Y-102416666D01*
X200889218Y-102419500D01*
X200812163Y-102419500D01*
X200745124Y-102399815D01*
X200699369Y-102347011D01*
X200690912Y-102321467D01*
X200689999Y-102317204D01*
X200689999Y-102317203D01*
X200634814Y-102150666D01*
X200542711Y-102001345D01*
X200418655Y-101877289D01*
X200418651Y-101877286D01*
X200269337Y-101785187D01*
X200269335Y-101785186D01*
X200163150Y-101750000D01*
X200102797Y-101730001D01*
X200102795Y-101730000D01*
X200000015Y-101719500D01*
X200000008Y-101719500D01*
X197999992Y-101719500D01*
X197999984Y-101719500D01*
X197897204Y-101730000D01*
X197897203Y-101730001D01*
X197730664Y-101785186D01*
X197730662Y-101785187D01*
X197581348Y-101877286D01*
X197581344Y-101877289D01*
X197457289Y-102001344D01*
X197457286Y-102001348D01*
X197365187Y-102150662D01*
X197365186Y-102150664D01*
X197310001Y-102317203D01*
X197310000Y-102317204D01*
X197299500Y-102419984D01*
X197299500Y-104420015D01*
X197310000Y-104522795D01*
X197310001Y-104522797D01*
X197313983Y-104534814D01*
X197365186Y-104689335D01*
X197365187Y-104689337D01*
X197457286Y-104838651D01*
X197457289Y-104838655D01*
X197581344Y-104962710D01*
X197581348Y-104962713D01*
X197730662Y-105054812D01*
X197730664Y-105054813D01*
X197730666Y-105054814D01*
X197897203Y-105109999D01*
X197999992Y-105120500D01*
X197999997Y-105120500D01*
X200000003Y-105120500D01*
X200000008Y-105120500D01*
X200102797Y-105109999D01*
X200269334Y-105054814D01*
X200418655Y-104962711D01*
X200542711Y-104838655D01*
X200634814Y-104689334D01*
X200689999Y-104522797D01*
X200689999Y-104522793D01*
X200690912Y-104518533D01*
X200724199Y-104457102D01*
X200785414Y-104423419D01*
X200812163Y-104420500D01*
X201453542Y-104420500D01*
X201484566Y-104414328D01*
X201550188Y-104401275D01*
X201646836Y-104382051D01*
X201700165Y-104359961D01*
X201828914Y-104306632D01*
X201992782Y-104197139D01*
X202132139Y-104057782D01*
X202132139Y-104057780D01*
X202142347Y-104047573D01*
X202142348Y-104047570D01*
X207203715Y-98986204D01*
X207252387Y-98956182D01*
X207389016Y-98910908D01*
X207535850Y-98820340D01*
X207550171Y-98806018D01*
X207611489Y-98772533D01*
X207681181Y-98777514D01*
X207725534Y-98806017D01*
X207739461Y-98819944D01*
X207739465Y-98819947D01*
X207886188Y-98910448D01*
X207886199Y-98910453D01*
X208049847Y-98964680D01*
X208150851Y-98974999D01*
X208750000Y-98974999D01*
X208849140Y-98974999D01*
X208849154Y-98974998D01*
X208950152Y-98964680D01*
X209113800Y-98910453D01*
X209113811Y-98910448D01*
X209260534Y-98819947D01*
X209260538Y-98819944D01*
X209382444Y-98698038D01*
X209382447Y-98698034D01*
X209472948Y-98551311D01*
X209472953Y-98551300D01*
X209527180Y-98387652D01*
X209537499Y-98286654D01*
X209537500Y-98286641D01*
X209537500Y-98250000D01*
X208750000Y-98250000D01*
X208750000Y-98974999D01*
X208150851Y-98974999D01*
X208250000Y-98974998D01*
X208250000Y-97750000D01*
X208750000Y-97750000D01*
X209537499Y-97750000D01*
X209537499Y-97713360D01*
X209537498Y-97713345D01*
X209527180Y-97612347D01*
X209472953Y-97448699D01*
X209472948Y-97448688D01*
X209382447Y-97301965D01*
X209382444Y-97301961D01*
X209260538Y-97180055D01*
X209260534Y-97180052D01*
X209113811Y-97089551D01*
X209113800Y-97089546D01*
X208950152Y-97035319D01*
X208849154Y-97025000D01*
X208750000Y-97025000D01*
X208750000Y-97750000D01*
X208250000Y-97750000D01*
X208250000Y-97024999D01*
X208150860Y-97025000D01*
X208150844Y-97025001D01*
X208049847Y-97035319D01*
X207886199Y-97089546D01*
X207886188Y-97089551D01*
X207739465Y-97180052D01*
X207725532Y-97193985D01*
X207664208Y-97227468D01*
X207594516Y-97222482D01*
X207550172Y-97193982D01*
X207535851Y-97179661D01*
X207535850Y-97179660D01*
X207444629Y-97123395D01*
X207389018Y-97089093D01*
X207389017Y-97089092D01*
X207389016Y-97089092D01*
X207252389Y-97043818D01*
X207203713Y-97013793D01*
X205956819Y-95766899D01*
X205923334Y-95705576D01*
X205920500Y-95679218D01*
X205920500Y-95243677D01*
X238709873Y-95243677D01*
X238709873Y-95243678D01*
X238744858Y-95269096D01*
X238920164Y-95358418D01*
X239107294Y-95419221D01*
X239301618Y-95450000D01*
X239498382Y-95450000D01*
X239692705Y-95419221D01*
X239879835Y-95358418D01*
X240055143Y-95269095D01*
X240090125Y-95243678D01*
X240090126Y-95243678D01*
X239400001Y-94553553D01*
X239400000Y-94553553D01*
X238709873Y-95243677D01*
X205920500Y-95243677D01*
X205920500Y-94465782D01*
X205940185Y-94398743D01*
X205956819Y-94378101D01*
X206233303Y-94101617D01*
X238150000Y-94101617D01*
X238150000Y-94298382D01*
X238180778Y-94492705D01*
X238241581Y-94679835D01*
X238330905Y-94855145D01*
X238356319Y-94890125D01*
X238356320Y-94890125D01*
X239046446Y-94200000D01*
X239046446Y-94199999D01*
X239753553Y-94199999D01*
X239753553Y-94200001D01*
X240443678Y-94890126D01*
X240443678Y-94890125D01*
X240469095Y-94855143D01*
X240558418Y-94679835D01*
X240619221Y-94492705D01*
X240650000Y-94298382D01*
X240650000Y-94101617D01*
X240619221Y-93907294D01*
X240558418Y-93720164D01*
X240469096Y-93544858D01*
X240443678Y-93509873D01*
X240443677Y-93509873D01*
X239753553Y-94199999D01*
X239046446Y-94199999D01*
X238356320Y-93509872D01*
X238356320Y-93509873D01*
X238330902Y-93544859D01*
X238330899Y-93544863D01*
X238241582Y-93720161D01*
X238180778Y-93907294D01*
X238150000Y-94101617D01*
X206233303Y-94101617D01*
X207178600Y-93156320D01*
X238709872Y-93156320D01*
X239400000Y-93846446D01*
X239400001Y-93846446D01*
X240090125Y-93156320D01*
X240090125Y-93156319D01*
X240055145Y-93130905D01*
X239879835Y-93041581D01*
X239692705Y-92980778D01*
X239498382Y-92950000D01*
X239301618Y-92950000D01*
X239107294Y-92980778D01*
X238920161Y-93041582D01*
X238744863Y-93130899D01*
X238744859Y-93130902D01*
X238709873Y-93156320D01*
X238709872Y-93156320D01*
X207178600Y-93156320D01*
X207219022Y-93115898D01*
X207585420Y-92749500D01*
X208611439Y-91723480D01*
X208672760Y-91689997D01*
X208715299Y-91688224D01*
X208802415Y-91699693D01*
X208808527Y-91700498D01*
X208808543Y-91700500D01*
X208808550Y-91700500D01*
X209031450Y-91700500D01*
X209031457Y-91700500D01*
X209252463Y-91671404D01*
X209467781Y-91613710D01*
X209673726Y-91528405D01*
X209866774Y-91416948D01*
X210043624Y-91281247D01*
X210201247Y-91123624D01*
X210336948Y-90946774D01*
X210448405Y-90753726D01*
X210533710Y-90547781D01*
X210591404Y-90332463D01*
X210620500Y-90111457D01*
X210620500Y-89888543D01*
X210608224Y-89795301D01*
X210618989Y-89726269D01*
X210643479Y-89691440D01*
X211375502Y-88959419D01*
X211436825Y-88925934D01*
X211463183Y-88923100D01*
X212176000Y-88923100D01*
X212243039Y-88942785D01*
X212288794Y-88995589D01*
X212300000Y-89047100D01*
X212300000Y-89750000D01*
X213237639Y-89750000D01*
X213230743Y-89766649D01*
X213200000Y-89921207D01*
X213200000Y-90078793D01*
X213230743Y-90233351D01*
X213237639Y-90250000D01*
X212300000Y-90250000D01*
X212300000Y-90999985D01*
X212310493Y-91102689D01*
X212310494Y-91102696D01*
X212365641Y-91269118D01*
X212365643Y-91269123D01*
X212457684Y-91418344D01*
X212581655Y-91542315D01*
X212730876Y-91634356D01*
X212730881Y-91634358D01*
X212897303Y-91689505D01*
X212897310Y-91689506D01*
X213000014Y-91699999D01*
X213000027Y-91700000D01*
X213750000Y-91700000D01*
X213750000Y-90762360D01*
X213766649Y-90769257D01*
X213921207Y-90800000D01*
X214078793Y-90800000D01*
X214233351Y-90769257D01*
X214250000Y-90762360D01*
X214250000Y-91700000D01*
X214999973Y-91700000D01*
X214999985Y-91699999D01*
X215102689Y-91689506D01*
X215102696Y-91689505D01*
X215269118Y-91634358D01*
X215269123Y-91634356D01*
X215418344Y-91542315D01*
X215542315Y-91418344D01*
X215634356Y-91269123D01*
X215634358Y-91269118D01*
X215689505Y-91102696D01*
X215689506Y-91102689D01*
X215697994Y-91019612D01*
X215697994Y-91019611D01*
X215699999Y-90999982D01*
X215700000Y-90999972D01*
X215700000Y-90250000D01*
X214762361Y-90250000D01*
X214769257Y-90233351D01*
X214800000Y-90078793D01*
X214800000Y-89921207D01*
X214769257Y-89766649D01*
X214762361Y-89750000D01*
X215700000Y-89750000D01*
X215700000Y-89047100D01*
X215719685Y-88980061D01*
X215772489Y-88934306D01*
X215824000Y-88923100D01*
X219729142Y-88923100D01*
X219796181Y-88942785D01*
X219823442Y-88966580D01*
X219829656Y-88973858D01*
X219857288Y-89018656D01*
X219929962Y-89091330D01*
X219933129Y-89095039D01*
X219945497Y-89122651D01*
X219959995Y-89149201D01*
X219959636Y-89154215D01*
X219961692Y-89158804D01*
X219957169Y-89188715D01*
X219955011Y-89218893D01*
X219951663Y-89225129D01*
X219951246Y-89227888D01*
X219948515Y-89230993D01*
X219939148Y-89248444D01*
X219888139Y-89318651D01*
X219795244Y-89500968D01*
X219732009Y-89695582D01*
X219700000Y-89897682D01*
X219700000Y-90102317D01*
X219732009Y-90304417D01*
X219795244Y-90499031D01*
X219888141Y-90681350D01*
X219888147Y-90681359D01*
X219920523Y-90725921D01*
X219920524Y-90725922D01*
X220600000Y-90046446D01*
X220600000Y-90052661D01*
X220627259Y-90154394D01*
X220679920Y-90245606D01*
X220754394Y-90320080D01*
X220845606Y-90372741D01*
X220947339Y-90400000D01*
X220953553Y-90400000D01*
X220274076Y-91079474D01*
X220318650Y-91111859D01*
X220500968Y-91204755D01*
X220695582Y-91267990D01*
X220897683Y-91300000D01*
X221102317Y-91300000D01*
X221304417Y-91267990D01*
X221499031Y-91204755D01*
X221681349Y-91111859D01*
X221725921Y-91079474D01*
X221046447Y-90400000D01*
X221052661Y-90400000D01*
X221154394Y-90372741D01*
X221245606Y-90320080D01*
X221320080Y-90245606D01*
X221372741Y-90154394D01*
X221400000Y-90052661D01*
X221400000Y-90046447D01*
X222079474Y-90725921D01*
X222111859Y-90681349D01*
X222204755Y-90499031D01*
X222267990Y-90304417D01*
X222300000Y-90102317D01*
X222300000Y-89897682D01*
X222267990Y-89695582D01*
X222204755Y-89500968D01*
X222111857Y-89318646D01*
X222060853Y-89248446D01*
X222037372Y-89182640D01*
X222053197Y-89114586D01*
X222073489Y-89087879D01*
X222142712Y-89018656D01*
X222234814Y-88869334D01*
X222289999Y-88702797D01*
X222300500Y-88600009D01*
X222300499Y-87399992D01*
X222289999Y-87297203D01*
X222234814Y-87130666D01*
X222142712Y-86981344D01*
X222018656Y-86857288D01*
X221869334Y-86765186D01*
X221702797Y-86710001D01*
X221702795Y-86710000D01*
X221600010Y-86699500D01*
X220399998Y-86699500D01*
X220399981Y-86699501D01*
X220297203Y-86710000D01*
X220297200Y-86710001D01*
X220130668Y-86765185D01*
X220130663Y-86765187D01*
X219981342Y-86857289D01*
X219952851Y-86885781D01*
X219891528Y-86919266D01*
X219865170Y-86922100D01*
X210898855Y-86922100D01*
X210806692Y-86940432D01*
X210806680Y-86940435D01*
X210802212Y-86941324D01*
X210705564Y-86960549D01*
X210655361Y-86981344D01*
X210648328Y-86984256D01*
X210648321Y-86984259D01*
X210523492Y-87035964D01*
X210523479Y-87035971D01*
X210376612Y-87134106D01*
X210376611Y-87134107D01*
X210359615Y-87145462D01*
X209228561Y-88276516D01*
X209167238Y-88310001D01*
X209124696Y-88311774D01*
X209031459Y-88299500D01*
X209031457Y-88299500D01*
X208808543Y-88299500D01*
X208808537Y-88299500D01*
X208808533Y-88299501D01*
X208587547Y-88328594D01*
X208587540Y-88328595D01*
X208587537Y-88328596D01*
X208372219Y-88386290D01*
X208372209Y-88386293D01*
X208166277Y-88471593D01*
X208166273Y-88471595D01*
X207973226Y-88583052D01*
X207973217Y-88583058D01*
X207796377Y-88718751D01*
X207796370Y-88718757D01*
X207638757Y-88876370D01*
X207638751Y-88876377D01*
X207503058Y-89053217D01*
X207503052Y-89053226D01*
X207391595Y-89246273D01*
X207391593Y-89246277D01*
X207306293Y-89452209D01*
X207306290Y-89452219D01*
X207259389Y-89627259D01*
X207248597Y-89667534D01*
X207248594Y-89667547D01*
X207219501Y-89888533D01*
X207219500Y-89888549D01*
X207219500Y-90111459D01*
X207231774Y-90204696D01*
X207221008Y-90273731D01*
X207196516Y-90308561D01*
X204541899Y-92963181D01*
X204480576Y-92996666D01*
X204454218Y-92999500D01*
X195590699Y-92999500D01*
X195523660Y-92979815D01*
X195517814Y-92975818D01*
X195455408Y-92930478D01*
X195455407Y-92930477D01*
X195455405Y-92930476D01*
X195400636Y-92902569D01*
X195280029Y-92841117D01*
X195092826Y-92780290D01*
X194898422Y-92749500D01*
X194898417Y-92749500D01*
X194701583Y-92749500D01*
X194701578Y-92749500D01*
X194507173Y-92780290D01*
X194319970Y-92841117D01*
X194144594Y-92930476D01*
X194053741Y-92996485D01*
X193985354Y-93046172D01*
X193985352Y-93046174D01*
X193985351Y-93046174D01*
X193846174Y-93185351D01*
X193846174Y-93185352D01*
X193846172Y-93185354D01*
X193796485Y-93253741D01*
X193730476Y-93344594D01*
X193641117Y-93519970D01*
X193580290Y-93707173D01*
X193549500Y-93901577D01*
X189800500Y-93901577D01*
X189800500Y-87002706D01*
X189800618Y-86997297D01*
X189801187Y-86984259D01*
X189818147Y-86595795D01*
X189819087Y-86585064D01*
X189871189Y-86189302D01*
X189873063Y-86178672D01*
X189959463Y-85788950D01*
X189962261Y-85778512D01*
X190082291Y-85397823D01*
X190085979Y-85387691D01*
X190238742Y-85018888D01*
X190243300Y-85009114D01*
X190427617Y-84655045D01*
X190433012Y-84645700D01*
X190647495Y-84309029D01*
X190653685Y-84300189D01*
X190896687Y-83983503D01*
X190903625Y-83975234D01*
X191173304Y-83680932D01*
X191180932Y-83673304D01*
X191475234Y-83403625D01*
X191483503Y-83396687D01*
X191800189Y-83153685D01*
X191809029Y-83147495D01*
X192145700Y-82933012D01*
X192155045Y-82927617D01*
X192509114Y-82743300D01*
X192518888Y-82738742D01*
X192887691Y-82585979D01*
X192897823Y-82582291D01*
X193278521Y-82462258D01*
X193288950Y-82459463D01*
X193678672Y-82373063D01*
X193689302Y-82371189D01*
X194085064Y-82319087D01*
X194095795Y-82318147D01*
X194497297Y-82300617D01*
X194502706Y-82300500D01*
X194547595Y-82300500D01*
X239452405Y-82300500D01*
X239497294Y-82300500D01*
X239502702Y-82300617D01*
G37*
%TD.AperFunction*%
%TD*%
M02*
