%TF.GenerationSoftware,KiCad,Pcbnew,9.0.7*%
%TF.CreationDate,2026-05-10T13:38:55+02:00*%
%TF.ProjectId,pcb_alimentation,7063625f-616c-4696-9d65-6e746174696f,rev?*%
%TF.SameCoordinates,Original*%
%TF.FileFunction,Copper,L2,Bot*%
%TF.FilePolarity,Positive*%
%FSLAX46Y46*%
G04 Gerber Fmt 4.6, Leading zero omitted, Abs format (unit mm)*
G04 Created by KiCad (PCBNEW 9.0.7) date 2026-05-10 13:38:55*
%MOMM*%
%LPD*%
G01*
G04 APERTURE LIST*
G04 Aperture macros list*
%AMRoundRect*
0 Rectangle with rounded corners*
0 $1 Rounding radius*
0 $2 $3 $4 $5 $6 $7 $8 $9 X,Y pos of 4 corners*
0 Add a 4 corners polygon primitive as box body*
4,1,4,$2,$3,$4,$5,$6,$7,$8,$9,$2,$3,0*
0 Add four circle primitives for the rounded corners*
1,1,$1+$1,$2,$3*
1,1,$1+$1,$4,$5*
1,1,$1+$1,$6,$7*
1,1,$1+$1,$8,$9*
0 Add four rect primitives between the rounded corners*
20,1,$1+$1,$2,$3,$4,$5,0*
20,1,$1+$1,$4,$5,$6,$7,0*
20,1,$1+$1,$6,$7,$8,$9,0*
20,1,$1+$1,$8,$9,$2,$3,0*%
G04 Aperture macros list end*
%TA.AperFunction,ComponentPad*%
%ADD10C,5.600000*%
%TD*%
%TA.AperFunction,ComponentPad*%
%ADD11RoundRect,0.250001X-0.949999X0.949999X-0.949999X-0.949999X0.949999X-0.949999X0.949999X0.949999X0*%
%TD*%
%TA.AperFunction,ComponentPad*%
%ADD12C,2.400000*%
%TD*%
%TA.AperFunction,ComponentPad*%
%ADD13R,1.700000X1.700000*%
%TD*%
%TA.AperFunction,ComponentPad*%
%ADD14C,1.700000*%
%TD*%
%TA.AperFunction,ComponentPad*%
%ADD15RoundRect,0.250000X-0.550000X-0.550000X0.550000X-0.550000X0.550000X0.550000X-0.550000X0.550000X0*%
%TD*%
%TA.AperFunction,ComponentPad*%
%ADD16C,1.600000*%
%TD*%
%TA.AperFunction,ComponentPad*%
%ADD17R,3.500000X3.500000*%
%TD*%
%TA.AperFunction,ComponentPad*%
%ADD18RoundRect,0.750000X1.000000X-0.750000X1.000000X0.750000X-1.000000X0.750000X-1.000000X-0.750000X0*%
%TD*%
%TA.AperFunction,ComponentPad*%
%ADD19RoundRect,0.875000X0.875000X-0.875000X0.875000X0.875000X-0.875000X0.875000X-0.875000X-0.875000X0*%
%TD*%
%TA.AperFunction,ComponentPad*%
%ADD20RoundRect,0.250001X0.949999X-0.949999X0.949999X0.949999X-0.949999X0.949999X-0.949999X-0.949999X0*%
%TD*%
%TA.AperFunction,ViaPad*%
%ADD21C,0.800000*%
%TD*%
%TA.AperFunction,Conductor*%
%ADD22C,1.000000*%
%TD*%
G04 APERTURE END LIST*
D10*
%TO.P,H3,1,1*%
%TO.N,GND*%
X148500000Y-148000000D03*
%TD*%
D11*
%TO.P,J5,1,Pin_1*%
%TO.N,+12V*%
X97000000Y-118420000D03*
D12*
%TO.P,J5,2,Pin_2*%
%TO.N,GND*%
X97000000Y-123500000D03*
%TD*%
D11*
%TO.P,J4,1,Pin_1*%
%TO.N,+12V*%
X97000000Y-134250000D03*
D12*
%TO.P,J4,2,Pin_2*%
%TO.N,GND*%
X97000000Y-139330000D03*
%TD*%
D13*
%TO.P,J1,1,Pin_1*%
%TO.N,+3.3V*%
X96750000Y-102960000D03*
D14*
%TO.P,J1,2,Pin_2*%
%TO.N,GND*%
X96750000Y-105500000D03*
%TD*%
D13*
%TO.P,J6,1,Pin_1*%
%TO.N,GND*%
X137725000Y-92500000D03*
D14*
%TO.P,J6,2,Pin_2*%
X140265000Y-92500000D03*
%TD*%
D15*
%TO.P,C3,1*%
%TO.N,+12V*%
X107292500Y-130750000D03*
D16*
%TO.P,C3,2*%
%TO.N,GND*%
X110792500Y-130750000D03*
%TD*%
D17*
%TO.P,J7,1*%
%TO.N,/Vin_12V*%
X120292500Y-136750000D03*
D18*
%TO.P,J7,2*%
%TO.N,GND*%
X120292500Y-142750000D03*
D19*
%TO.P,J7,3*%
%TO.N,N/C*%
X124992500Y-139750000D03*
%TD*%
D10*
%TO.P,H1,1,1*%
%TO.N,GND*%
X93500000Y-93000000D03*
%TD*%
D20*
%TO.P,J8,1,Pin_1*%
%TO.N,+5V*%
X144250000Y-108500000D03*
D12*
%TO.P,J8,2,Pin_2*%
%TO.N,GND*%
X144250000Y-103420000D03*
%TD*%
D20*
%TO.P,J9,1,Pin_1*%
%TO.N,+12V*%
X144000000Y-138750000D03*
D12*
%TO.P,J9,2,Pin_2*%
%TO.N,GND*%
X144000000Y-133670000D03*
%TD*%
D20*
%TO.P,J2,1,Pin_1*%
%TO.N,+5V*%
X144000000Y-123250000D03*
D12*
%TO.P,J2,2,Pin_2*%
%TO.N,GND*%
X144000000Y-118170000D03*
%TD*%
D10*
%TO.P,H2,1,1*%
%TO.N,GND*%
X148500000Y-93000000D03*
%TD*%
%TO.P,H4,1,1*%
%TO.N,GND*%
X93500000Y-148000000D03*
%TD*%
D13*
%TO.P,J3,1,Pin_1*%
%TO.N,+5V*%
X119960000Y-92250000D03*
D14*
%TO.P,J3,2,Pin_2*%
%TO.N,GND*%
X122500000Y-92250000D03*
%TD*%
D21*
%TO.N,GND*%
X100750000Y-113000000D03*
X100250000Y-129500000D03*
X123250000Y-144750000D03*
X132250000Y-99750000D03*
X150000000Y-98000000D03*
%TD*%
D22*
%TO.N,+12V*%
X97000000Y-118420000D02*
X94983800Y-120436000D01*
X94983800Y-132234000D02*
X97000000Y-134250000D01*
X94983800Y-120436000D02*
X94983800Y-132234000D01*
%TO.N,+5V*%
X144000000Y-123250000D02*
X146012000Y-121238000D01*
X146012000Y-121238000D02*
X146012000Y-110262000D01*
X146012000Y-110262000D02*
X144250000Y-108500000D01*
%TD*%
%TA.AperFunction,Conductor*%
%TO.N,GND*%
G36*
X148503252Y-88300642D02*
G01*
X148903096Y-88318099D01*
X148916032Y-88319231D01*
X149309609Y-88371046D01*
X149322404Y-88373302D01*
X149709979Y-88459226D01*
X149722511Y-88462584D01*
X150029545Y-88559391D01*
X150101120Y-88581959D01*
X150113335Y-88586405D01*
X150480079Y-88738315D01*
X150491859Y-88743808D01*
X150843985Y-88927113D01*
X150855235Y-88933608D01*
X150883814Y-88951815D01*
X151190034Y-89146899D01*
X151200681Y-89154354D01*
X151515628Y-89396020D01*
X151525570Y-89404363D01*
X151661800Y-89529195D01*
X151818251Y-89672557D01*
X151827442Y-89681748D01*
X152095629Y-89974421D01*
X152103985Y-89984379D01*
X152345645Y-90299318D01*
X152353100Y-90309965D01*
X152566386Y-90644756D01*
X152572886Y-90656014D01*
X152756191Y-91008140D01*
X152761684Y-91019920D01*
X152913594Y-91386664D01*
X152918040Y-91398879D01*
X153037412Y-91777477D01*
X153040776Y-91790032D01*
X153126696Y-92177592D01*
X153128953Y-92190394D01*
X153180767Y-92583960D01*
X153181900Y-92596908D01*
X153199358Y-92996746D01*
X153199500Y-93003246D01*
X153199500Y-147996753D01*
X153199358Y-148003253D01*
X153181900Y-148403091D01*
X153180767Y-148416039D01*
X153128953Y-148809605D01*
X153126696Y-148822407D01*
X153040776Y-149209967D01*
X153037412Y-149222522D01*
X152918040Y-149601120D01*
X152913594Y-149613335D01*
X152761684Y-149980079D01*
X152756191Y-149991859D01*
X152572886Y-150343985D01*
X152566386Y-150355243D01*
X152353100Y-150690034D01*
X152345645Y-150700681D01*
X152103985Y-151015620D01*
X152095629Y-151025578D01*
X151827442Y-151318251D01*
X151818251Y-151327442D01*
X151525578Y-151595629D01*
X151515620Y-151603985D01*
X151200681Y-151845645D01*
X151190034Y-151853100D01*
X150855243Y-152066386D01*
X150843985Y-152072886D01*
X150491859Y-152256191D01*
X150480079Y-152261684D01*
X150113335Y-152413594D01*
X150101120Y-152418040D01*
X149722522Y-152537412D01*
X149709967Y-152540776D01*
X149322407Y-152626696D01*
X149309605Y-152628953D01*
X148916039Y-152680767D01*
X148903091Y-152681900D01*
X148519990Y-152698627D01*
X148503251Y-152699358D01*
X148496753Y-152699500D01*
X93503247Y-152699500D01*
X93496748Y-152699358D01*
X93478886Y-152698578D01*
X93096908Y-152681900D01*
X93083960Y-152680767D01*
X92690394Y-152628953D01*
X92677592Y-152626696D01*
X92290032Y-152540776D01*
X92277477Y-152537412D01*
X91898879Y-152418040D01*
X91886664Y-152413594D01*
X91519920Y-152261684D01*
X91508140Y-152256191D01*
X91156014Y-152072886D01*
X91144756Y-152066386D01*
X90809965Y-151853100D01*
X90799318Y-151845645D01*
X90484379Y-151603985D01*
X90474427Y-151595634D01*
X90292183Y-151428638D01*
X90181748Y-151327442D01*
X90172557Y-151318251D01*
X89956650Y-151082631D01*
X89904363Y-151025570D01*
X89896020Y-151015628D01*
X89654354Y-150700681D01*
X89646899Y-150690034D01*
X89433613Y-150355243D01*
X89427113Y-150343985D01*
X89243808Y-149991859D01*
X89238315Y-149980079D01*
X89086405Y-149613335D01*
X89081959Y-149601120D01*
X88962587Y-149222522D01*
X88959226Y-149209979D01*
X88873302Y-148822404D01*
X88871046Y-148809605D01*
X88819232Y-148416039D01*
X88818099Y-148403090D01*
X88800642Y-148003252D01*
X88800500Y-147996753D01*
X88800500Y-141935815D01*
X118042500Y-141935815D01*
X118042500Y-142500000D01*
X118859488Y-142500000D01*
X118826575Y-142557007D01*
X118792500Y-142684174D01*
X118792500Y-142815826D01*
X118826575Y-142942993D01*
X118859488Y-143000000D01*
X118042501Y-143000000D01*
X118042501Y-143564185D01*
X118052899Y-143696331D01*
X118052900Y-143696335D01*
X118107875Y-143914511D01*
X118107878Y-143914519D01*
X118200927Y-144119373D01*
X118329065Y-144304331D01*
X118488168Y-144463434D01*
X118673126Y-144591572D01*
X118877980Y-144684621D01*
X118877987Y-144684624D01*
X119096170Y-144739600D01*
X119228315Y-144749999D01*
X120042500Y-144749999D01*
X120042500Y-143250000D01*
X120542500Y-143250000D01*
X120542500Y-144749999D01*
X121356683Y-144749999D01*
X121356685Y-144749998D01*
X121488831Y-144739600D01*
X121488835Y-144739599D01*
X121707011Y-144684624D01*
X121707019Y-144684621D01*
X121911873Y-144591572D01*
X122096831Y-144463434D01*
X122255934Y-144304331D01*
X122384072Y-144119373D01*
X122477121Y-143914519D01*
X122477124Y-143914512D01*
X122532100Y-143696330D01*
X122532100Y-143696327D01*
X122542500Y-143564184D01*
X122542500Y-143000000D01*
X121725512Y-143000000D01*
X121758425Y-142942993D01*
X121792500Y-142815826D01*
X121792500Y-142684174D01*
X121758425Y-142557007D01*
X121725512Y-142500000D01*
X122542499Y-142500000D01*
X122542499Y-141935817D01*
X122542498Y-141935814D01*
X122532100Y-141803668D01*
X122532099Y-141803664D01*
X122477124Y-141585488D01*
X122477121Y-141585480D01*
X122384072Y-141380626D01*
X122255934Y-141195668D01*
X122096831Y-141036565D01*
X121911873Y-140908427D01*
X121707019Y-140815378D01*
X121707012Y-140815375D01*
X121488829Y-140760399D01*
X121356685Y-140750000D01*
X120542500Y-140750000D01*
X120542500Y-142250000D01*
X120042500Y-142250000D01*
X120042500Y-140750000D01*
X119228317Y-140750000D01*
X119228314Y-140750001D01*
X119096168Y-140760399D01*
X119096164Y-140760400D01*
X118877988Y-140815375D01*
X118877980Y-140815378D01*
X118673126Y-140908427D01*
X118488168Y-141036565D01*
X118329065Y-141195668D01*
X118200927Y-141380626D01*
X118107878Y-141585480D01*
X118107875Y-141585487D01*
X118052899Y-141803669D01*
X118052899Y-141803672D01*
X118042500Y-141935815D01*
X88800500Y-141935815D01*
X88800500Y-139218570D01*
X95300000Y-139218570D01*
X95300000Y-139441429D01*
X95329084Y-139662349D01*
X95329087Y-139662366D01*
X95386761Y-139877615D01*
X95472047Y-140083508D01*
X95583469Y-140276498D01*
X95634040Y-140342403D01*
X96284152Y-139692291D01*
X96291049Y-139708942D01*
X96378599Y-139839970D01*
X96490030Y-139951401D01*
X96621058Y-140038951D01*
X96637706Y-140045846D01*
X95987594Y-140695958D01*
X96053500Y-140746529D01*
X96246491Y-140857952D01*
X96452384Y-140943238D01*
X96667633Y-141000912D01*
X96667650Y-141000915D01*
X96888570Y-141029999D01*
X96888576Y-141030000D01*
X97111424Y-141030000D01*
X97111429Y-141029999D01*
X97332349Y-141000915D01*
X97332366Y-141000912D01*
X97547615Y-140943238D01*
X97753508Y-140857952D01*
X97946495Y-140746532D01*
X98012403Y-140695957D01*
X97362293Y-140045847D01*
X97378942Y-140038951D01*
X97509970Y-139951401D01*
X97621401Y-139839970D01*
X97708951Y-139708942D01*
X97715847Y-139692293D01*
X98365957Y-140342403D01*
X98416532Y-140276495D01*
X98527952Y-140083508D01*
X98613238Y-139877615D01*
X98670912Y-139662366D01*
X98670915Y-139662349D01*
X98699999Y-139441429D01*
X98700000Y-139441424D01*
X98700000Y-139218576D01*
X98699999Y-139218570D01*
X98670915Y-138997650D01*
X98670912Y-138997633D01*
X98613238Y-138782384D01*
X98527952Y-138576491D01*
X98416529Y-138383500D01*
X98416529Y-138383499D01*
X98365958Y-138317594D01*
X97715846Y-138967705D01*
X97708951Y-138951058D01*
X97621401Y-138820030D01*
X97509970Y-138708599D01*
X97378942Y-138621049D01*
X97362291Y-138614152D01*
X98012404Y-137964040D01*
X97946498Y-137913469D01*
X97753508Y-137802047D01*
X97547615Y-137716761D01*
X97332366Y-137659087D01*
X97332349Y-137659084D01*
X97111429Y-137630000D01*
X96888570Y-137630000D01*
X96667650Y-137659084D01*
X96667633Y-137659087D01*
X96452384Y-137716761D01*
X96246491Y-137802047D01*
X96053500Y-137913470D01*
X95987595Y-137964041D01*
X96637706Y-138614152D01*
X96621058Y-138621049D01*
X96490030Y-138708599D01*
X96378599Y-138820030D01*
X96291049Y-138951058D01*
X96284152Y-138967706D01*
X95634041Y-138317595D01*
X95583470Y-138383500D01*
X95472047Y-138576491D01*
X95386761Y-138782384D01*
X95329087Y-138997633D01*
X95329084Y-138997650D01*
X95300000Y-139218570D01*
X88800500Y-139218570D01*
X88800500Y-120541793D01*
X93983295Y-120541793D01*
X93983300Y-120541894D01*
X93983300Y-132128379D01*
X93983295Y-132128485D01*
X93983295Y-132135507D01*
X93983295Y-132135509D01*
X93983299Y-132234034D01*
X93983300Y-132234050D01*
X93983300Y-132332548D01*
X93983301Y-132332573D01*
X94003150Y-132432333D01*
X94003149Y-132432333D01*
X94003376Y-132433469D01*
X94021749Y-132525835D01*
X94021757Y-132525855D01*
X94021763Y-132525883D01*
X94058759Y-132615186D01*
X94097171Y-132707922D01*
X94097191Y-132707958D01*
X94097290Y-132708105D01*
X94150896Y-132788324D01*
X94150898Y-132788330D01*
X94150899Y-132788329D01*
X94150900Y-132788330D01*
X94206661Y-132871782D01*
X94206662Y-132871783D01*
X94206667Y-132871790D01*
X94206698Y-132871828D01*
X94277200Y-132942322D01*
X94277201Y-132942322D01*
X94346018Y-133011139D01*
X94346036Y-133011151D01*
X94351563Y-133016677D01*
X95255854Y-133920877D01*
X95294421Y-133987670D01*
X95299500Y-134026241D01*
X95299500Y-135250008D01*
X95302895Y-135283238D01*
X95310001Y-135352798D01*
X95337350Y-135435332D01*
X95365186Y-135519334D01*
X95457289Y-135668655D01*
X95581345Y-135792711D01*
X95730666Y-135884814D01*
X95897203Y-135939999D01*
X95999992Y-135950500D01*
X95999996Y-135950500D01*
X98000004Y-135950500D01*
X98000008Y-135950500D01*
X98102797Y-135939999D01*
X98269334Y-135884814D01*
X98418655Y-135792711D01*
X98542711Y-135668655D01*
X98634814Y-135519334D01*
X98689999Y-135352797D01*
X98700500Y-135250008D01*
X98700500Y-134952114D01*
X118042000Y-134952114D01*
X118042000Y-138547863D01*
X118042002Y-138547888D01*
X118048408Y-138607478D01*
X118048409Y-138607484D01*
X118098702Y-138742329D01*
X118098704Y-138742333D01*
X118184952Y-138857544D01*
X118184955Y-138857547D01*
X118300166Y-138943795D01*
X118300170Y-138943797D01*
X118435017Y-138994091D01*
X118494614Y-139000499D01*
X118494618Y-139000499D01*
X118494627Y-139000500D01*
X122090372Y-139000499D01*
X122149983Y-138994091D01*
X122265361Y-138951058D01*
X122284829Y-138943797D01*
X122284833Y-138943795D01*
X122342438Y-138900671D01*
X122400046Y-138857546D01*
X122437248Y-138807849D01*
X122473720Y-138759131D01*
X122534347Y-138711454D01*
X122610690Y-138700478D01*
X122682293Y-138729144D01*
X122729970Y-138789771D01*
X122742000Y-138848424D01*
X122742000Y-140718626D01*
X122744794Y-140771239D01*
X122789254Y-141001124D01*
X122871924Y-141220186D01*
X122871930Y-141220199D01*
X122990424Y-141422124D01*
X122990428Y-141422129D01*
X122990430Y-141422132D01*
X123141358Y-141601142D01*
X123320368Y-141752070D01*
X123320370Y-141752071D01*
X123320375Y-141752075D01*
X123522300Y-141870569D01*
X123522306Y-141870572D01*
X123522310Y-141870574D01*
X123741374Y-141953245D01*
X123971259Y-141997705D01*
X123981782Y-141998264D01*
X124023874Y-142000500D01*
X124023878Y-142000500D01*
X125961126Y-142000500D01*
X125996201Y-141998636D01*
X126013741Y-141997705D01*
X126243626Y-141953245D01*
X126462690Y-141870574D01*
X126462699Y-141870569D01*
X126664624Y-141752075D01*
X126664625Y-141752073D01*
X126664632Y-141752070D01*
X126843642Y-141601142D01*
X126994570Y-141422132D01*
X127113074Y-141220190D01*
X127195745Y-141001126D01*
X127240205Y-140771241D01*
X127241333Y-140750000D01*
X127243000Y-140718626D01*
X127243000Y-138781373D01*
X127240205Y-138728760D01*
X127207711Y-138560743D01*
X127195745Y-138498874D01*
X127113074Y-138279810D01*
X127113072Y-138279806D01*
X127113069Y-138279800D01*
X126994575Y-138077875D01*
X126994571Y-138077870D01*
X126994570Y-138077868D01*
X126843642Y-137898858D01*
X126667078Y-137749992D01*
X142299500Y-137749992D01*
X142299500Y-139750008D01*
X142310001Y-139852797D01*
X142365186Y-140019334D01*
X142457289Y-140168655D01*
X142581345Y-140292711D01*
X142730666Y-140384814D01*
X142897203Y-140439999D01*
X142999992Y-140450500D01*
X142999996Y-140450500D01*
X145000004Y-140450500D01*
X145000008Y-140450500D01*
X145102797Y-140439999D01*
X145269334Y-140384814D01*
X145418655Y-140292711D01*
X145542711Y-140168655D01*
X145634814Y-140019334D01*
X145689999Y-139852797D01*
X145700500Y-139750008D01*
X145700500Y-137749992D01*
X145689999Y-137647203D01*
X145634814Y-137480666D01*
X145542711Y-137331345D01*
X145418655Y-137207289D01*
X145269334Y-137115186D01*
X145185332Y-137087350D01*
X145102798Y-137060001D01*
X145102799Y-137060001D01*
X145068534Y-137056500D01*
X145000008Y-137049500D01*
X142999992Y-137049500D01*
X142931466Y-137056500D01*
X142897201Y-137060001D01*
X142730663Y-137115187D01*
X142581344Y-137207289D01*
X142457289Y-137331344D01*
X142365187Y-137480663D01*
X142310001Y-137647201D01*
X142310001Y-137647203D01*
X142299500Y-137749992D01*
X126667078Y-137749992D01*
X126664632Y-137747930D01*
X126664629Y-137747928D01*
X126664624Y-137747924D01*
X126462699Y-137629430D01*
X126462686Y-137629424D01*
X126243624Y-137546754D01*
X126013739Y-137502294D01*
X125961126Y-137499500D01*
X125961122Y-137499500D01*
X124023878Y-137499500D01*
X124023874Y-137499500D01*
X123971260Y-137502294D01*
X123741375Y-137546754D01*
X123522313Y-137629424D01*
X123522300Y-137629430D01*
X123320375Y-137747924D01*
X123320370Y-137747928D01*
X123141358Y-137898858D01*
X122990428Y-138077870D01*
X122990424Y-138077875D01*
X122871930Y-138279800D01*
X122871921Y-138279820D01*
X122831402Y-138387188D01*
X122786421Y-138449842D01*
X122716139Y-138481610D01*
X122639390Y-138473982D01*
X122576736Y-138429001D01*
X122544968Y-138358719D01*
X122542999Y-138334590D01*
X122542999Y-134952128D01*
X122536591Y-134892517D01*
X122522088Y-134853633D01*
X122486297Y-134757670D01*
X122486295Y-134757666D01*
X122400047Y-134642455D01*
X122400044Y-134642452D01*
X122284833Y-134556204D01*
X122284829Y-134556202D01*
X122149982Y-134505908D01*
X122090376Y-134499500D01*
X118494636Y-134499500D01*
X118494611Y-134499502D01*
X118435021Y-134505908D01*
X118435015Y-134505909D01*
X118300170Y-134556202D01*
X118300166Y-134556204D01*
X118184955Y-134642452D01*
X118184952Y-134642455D01*
X118098704Y-134757666D01*
X118098702Y-134757670D01*
X118048408Y-134892517D01*
X118042000Y-134952114D01*
X98700500Y-134952114D01*
X98700500Y-133558570D01*
X142300000Y-133558570D01*
X142300000Y-133781429D01*
X142329084Y-134002349D01*
X142329087Y-134002366D01*
X142386761Y-134217615D01*
X142472047Y-134423508D01*
X142583469Y-134616498D01*
X142634040Y-134682403D01*
X143284152Y-134032291D01*
X143291049Y-134048942D01*
X143378599Y-134179970D01*
X143490030Y-134291401D01*
X143621058Y-134378951D01*
X143637706Y-134385846D01*
X142987594Y-135035958D01*
X143053500Y-135086529D01*
X143246491Y-135197952D01*
X143452384Y-135283238D01*
X143667633Y-135340912D01*
X143667650Y-135340915D01*
X143888570Y-135369999D01*
X143888576Y-135370000D01*
X144111424Y-135370000D01*
X144111429Y-135369999D01*
X144332349Y-135340915D01*
X144332366Y-135340912D01*
X144547615Y-135283238D01*
X144753508Y-135197952D01*
X144946495Y-135086532D01*
X145012403Y-135035957D01*
X144362293Y-134385847D01*
X144378942Y-134378951D01*
X144509970Y-134291401D01*
X144621401Y-134179970D01*
X144708951Y-134048942D01*
X144715847Y-134032293D01*
X145365957Y-134682403D01*
X145416532Y-134616495D01*
X145527952Y-134423508D01*
X145613238Y-134217615D01*
X145670912Y-134002366D01*
X145670915Y-134002349D01*
X145699999Y-133781429D01*
X145700000Y-133781424D01*
X145700000Y-133558576D01*
X145699999Y-133558570D01*
X145670915Y-133337650D01*
X145670912Y-133337633D01*
X145613238Y-133122384D01*
X145527952Y-132916491D01*
X145416529Y-132723500D01*
X145416529Y-132723499D01*
X145365958Y-132657594D01*
X144715846Y-133307705D01*
X144708951Y-133291058D01*
X144621401Y-133160030D01*
X144509970Y-133048599D01*
X144378942Y-132961049D01*
X144362291Y-132954152D01*
X145012404Y-132304040D01*
X144946498Y-132253469D01*
X144753508Y-132142047D01*
X144547615Y-132056761D01*
X144332366Y-131999087D01*
X144332349Y-131999084D01*
X144111429Y-131970000D01*
X143888570Y-131970000D01*
X143667650Y-131999084D01*
X143667633Y-131999087D01*
X143452384Y-132056761D01*
X143246491Y-132142047D01*
X143053500Y-132253470D01*
X142987595Y-132304041D01*
X143637706Y-132954152D01*
X143621058Y-132961049D01*
X143490030Y-133048599D01*
X143378599Y-133160030D01*
X143291049Y-133291058D01*
X143284152Y-133307706D01*
X142634041Y-132657595D01*
X142583470Y-132723500D01*
X142472047Y-132916491D01*
X142386761Y-133122384D01*
X142329087Y-133337633D01*
X142329084Y-133337650D01*
X142300000Y-133558570D01*
X98700500Y-133558570D01*
X98700500Y-133249992D01*
X98689999Y-133147203D01*
X98634814Y-132980666D01*
X98542711Y-132831345D01*
X98418655Y-132707289D01*
X98269334Y-132615186D01*
X98185332Y-132587350D01*
X98102798Y-132560001D01*
X98102799Y-132560001D01*
X98068534Y-132556500D01*
X98000008Y-132549500D01*
X98000004Y-132549500D01*
X96776036Y-132549500D01*
X96757091Y-132544423D01*
X96737479Y-132544425D01*
X96720487Y-132534616D01*
X96701536Y-132529538D01*
X96670683Y-132505864D01*
X96631844Y-132467029D01*
X96631840Y-132467026D01*
X96027946Y-131863190D01*
X95989379Y-131796397D01*
X95984300Y-131757826D01*
X95984300Y-130149995D01*
X105992000Y-130149995D01*
X105992000Y-131350003D01*
X105992001Y-131350008D01*
X106002501Y-131452797D01*
X106057686Y-131619334D01*
X106149788Y-131768656D01*
X106273844Y-131892712D01*
X106423166Y-131984814D01*
X106589703Y-132039999D01*
X106692491Y-132050500D01*
X107892508Y-132050499D01*
X107995297Y-132039999D01*
X108161834Y-131984814D01*
X108311156Y-131892712D01*
X108435212Y-131768656D01*
X108527314Y-131619334D01*
X108582499Y-131452797D01*
X108593000Y-131350009D01*
X108592999Y-130647692D01*
X109492500Y-130647692D01*
X109492500Y-130852307D01*
X109524510Y-131054416D01*
X109587741Y-131249020D01*
X109587746Y-131249032D01*
X109680641Y-131431349D01*
X109680641Y-131431350D01*
X109713024Y-131475921D01*
X110392500Y-130796445D01*
X110392500Y-130802661D01*
X110419759Y-130904394D01*
X110472420Y-130995606D01*
X110546894Y-131070080D01*
X110638106Y-131122741D01*
X110739839Y-131150000D01*
X110746053Y-131150000D01*
X110066577Y-131829474D01*
X110066577Y-131829475D01*
X110111145Y-131861856D01*
X110293467Y-131954753D01*
X110293479Y-131954758D01*
X110488083Y-132017989D01*
X110690193Y-132050000D01*
X110894807Y-132050000D01*
X111096916Y-132017989D01*
X111291520Y-131954758D01*
X111291538Y-131954751D01*
X111473845Y-131861861D01*
X111473852Y-131861857D01*
X111518421Y-131829475D01*
X111518421Y-131829474D01*
X110838947Y-131150000D01*
X110845161Y-131150000D01*
X110946894Y-131122741D01*
X111038106Y-131070080D01*
X111112580Y-130995606D01*
X111165241Y-130904394D01*
X111192500Y-130802661D01*
X111192500Y-130796447D01*
X111871974Y-131475921D01*
X111871975Y-131475921D01*
X111904357Y-131431352D01*
X111904361Y-131431345D01*
X111997251Y-131249038D01*
X111997258Y-131249020D01*
X112060489Y-131054416D01*
X112092500Y-130852307D01*
X112092500Y-130647692D01*
X112060489Y-130445583D01*
X111997258Y-130250979D01*
X111997253Y-130250967D01*
X111904356Y-130068645D01*
X111871974Y-130024077D01*
X111192500Y-130703551D01*
X111192500Y-130697339D01*
X111165241Y-130595606D01*
X111112580Y-130504394D01*
X111038106Y-130429920D01*
X110946894Y-130377259D01*
X110845161Y-130350000D01*
X110838946Y-130350000D01*
X111518421Y-129670524D01*
X111473850Y-129638141D01*
X111291532Y-129545246D01*
X111291520Y-129545241D01*
X111096916Y-129482010D01*
X110894807Y-129450000D01*
X110690193Y-129450000D01*
X110488083Y-129482010D01*
X110293479Y-129545241D01*
X110293461Y-129545248D01*
X110111164Y-129638132D01*
X110111151Y-129638140D01*
X110066577Y-129670523D01*
X110746054Y-130350000D01*
X110739839Y-130350000D01*
X110638106Y-130377259D01*
X110546894Y-130429920D01*
X110472420Y-130504394D01*
X110419759Y-130595606D01*
X110392500Y-130697339D01*
X110392500Y-130703554D01*
X109713023Y-130024077D01*
X109680640Y-130068651D01*
X109680632Y-130068664D01*
X109587748Y-130250961D01*
X109587741Y-130250979D01*
X109524510Y-130445583D01*
X109492500Y-130647692D01*
X108592999Y-130647692D01*
X108592999Y-130149992D01*
X108582499Y-130047203D01*
X108527314Y-129880666D01*
X108435212Y-129731344D01*
X108311156Y-129607288D01*
X108161834Y-129515186D01*
X108061716Y-129482010D01*
X107995298Y-129460001D01*
X107978165Y-129458250D01*
X107892509Y-129449500D01*
X107892504Y-129449500D01*
X106692496Y-129449500D01*
X106589702Y-129460001D01*
X106423166Y-129515186D01*
X106273843Y-129607288D01*
X106149788Y-129731343D01*
X106057686Y-129880666D01*
X106002501Y-130047201D01*
X105992000Y-130149995D01*
X95984300Y-130149995D01*
X95984300Y-125134652D01*
X96004262Y-125060152D01*
X96058800Y-125005614D01*
X96133300Y-124985652D01*
X96207800Y-125005614D01*
X96246491Y-125027952D01*
X96452384Y-125113238D01*
X96667633Y-125170912D01*
X96667650Y-125170915D01*
X96888570Y-125199999D01*
X96888576Y-125200000D01*
X97111424Y-125200000D01*
X97111429Y-125199999D01*
X97332349Y-125170915D01*
X97332366Y-125170912D01*
X97547615Y-125113238D01*
X97753508Y-125027952D01*
X97946495Y-124916532D01*
X98012403Y-124865957D01*
X97362293Y-124215847D01*
X97378942Y-124208951D01*
X97509970Y-124121401D01*
X97621401Y-124009970D01*
X97708951Y-123878942D01*
X97715847Y-123862293D01*
X98365957Y-124512403D01*
X98416532Y-124446495D01*
X98527952Y-124253508D01*
X98613238Y-124047615D01*
X98670912Y-123832366D01*
X98670915Y-123832349D01*
X98699999Y-123611429D01*
X98700000Y-123611424D01*
X98700000Y-123388576D01*
X98699999Y-123388570D01*
X98670915Y-123167650D01*
X98670912Y-123167633D01*
X98613238Y-122952384D01*
X98527952Y-122746491D01*
X98416529Y-122553500D01*
X98416529Y-122553499D01*
X98365958Y-122487594D01*
X97715846Y-123137705D01*
X97708951Y-123121058D01*
X97621401Y-122990030D01*
X97509970Y-122878599D01*
X97378942Y-122791049D01*
X97362291Y-122784152D01*
X97896452Y-122249992D01*
X142299500Y-122249992D01*
X142299500Y-124250008D01*
X142310001Y-124352797D01*
X142365186Y-124519334D01*
X142457289Y-124668655D01*
X142581345Y-124792711D01*
X142730666Y-124884814D01*
X142897203Y-124939999D01*
X142999992Y-124950500D01*
X142999996Y-124950500D01*
X145000004Y-124950500D01*
X145000008Y-124950500D01*
X145102797Y-124939999D01*
X145269334Y-124884814D01*
X145418655Y-124792711D01*
X145542711Y-124668655D01*
X145634814Y-124519334D01*
X145689999Y-124352797D01*
X145700500Y-124250008D01*
X145700500Y-123026138D01*
X145720462Y-122951638D01*
X145744141Y-122920779D01*
X146177326Y-122487594D01*
X146789140Y-121875781D01*
X146898632Y-121711914D01*
X146974052Y-121529835D01*
X147012500Y-121336540D01*
X147012500Y-121139459D01*
X147012500Y-110163459D01*
X146993275Y-110066812D01*
X146974051Y-109970164D01*
X146951961Y-109916834D01*
X146898632Y-109788086D01*
X146898631Y-109788083D01*
X146832876Y-109689675D01*
X146789139Y-109624218D01*
X146649782Y-109484861D01*
X146649781Y-109484860D01*
X145994141Y-108829220D01*
X145955577Y-108762425D01*
X145950500Y-108723861D01*
X145950500Y-107499996D01*
X145950500Y-107499992D01*
X145939999Y-107397203D01*
X145884814Y-107230666D01*
X145792711Y-107081345D01*
X145668655Y-106957289D01*
X145519334Y-106865186D01*
X145435332Y-106837350D01*
X145352798Y-106810001D01*
X145352799Y-106810001D01*
X145318534Y-106806500D01*
X145250008Y-106799500D01*
X143249992Y-106799500D01*
X143181466Y-106806500D01*
X143147201Y-106810001D01*
X142980663Y-106865187D01*
X142831344Y-106957289D01*
X142707289Y-107081344D01*
X142615187Y-107230663D01*
X142560001Y-107397201D01*
X142560001Y-107397203D01*
X142549500Y-107499992D01*
X142549500Y-109500008D01*
X142558250Y-109585665D01*
X142560001Y-109602798D01*
X142615187Y-109769336D01*
X142626752Y-109788086D01*
X142707289Y-109918655D01*
X142831345Y-110042711D01*
X142980666Y-110134814D01*
X143147203Y-110189999D01*
X143249992Y-110200500D01*
X144473861Y-110200500D01*
X144548361Y-110220462D01*
X144579220Y-110244141D01*
X144967859Y-110632779D01*
X145006423Y-110699574D01*
X145011500Y-110738138D01*
X145011500Y-116532922D01*
X144991538Y-116607422D01*
X144937000Y-116661960D01*
X144862500Y-116681922D01*
X144788003Y-116661961D01*
X144753514Y-116642050D01*
X144753513Y-116642049D01*
X144547615Y-116556761D01*
X144332366Y-116499087D01*
X144332349Y-116499084D01*
X144111429Y-116470000D01*
X143888570Y-116470000D01*
X143667650Y-116499084D01*
X143667633Y-116499087D01*
X143452384Y-116556761D01*
X143246491Y-116642047D01*
X143053500Y-116753470D01*
X142987595Y-116804041D01*
X143637706Y-117454152D01*
X143621058Y-117461049D01*
X143490030Y-117548599D01*
X143378599Y-117660030D01*
X143291049Y-117791058D01*
X143284152Y-117807706D01*
X142634041Y-117157595D01*
X142583470Y-117223500D01*
X142472047Y-117416491D01*
X142386761Y-117622384D01*
X142329087Y-117837633D01*
X142329084Y-117837650D01*
X142300000Y-118058570D01*
X142300000Y-118281429D01*
X142329084Y-118502349D01*
X142329087Y-118502366D01*
X142386761Y-118717615D01*
X142472047Y-118923508D01*
X142583469Y-119116498D01*
X142634040Y-119182403D01*
X143284152Y-118532291D01*
X143291049Y-118548942D01*
X143378599Y-118679970D01*
X143490030Y-118791401D01*
X143621058Y-118878951D01*
X143637705Y-118885846D01*
X142987594Y-119535957D01*
X142987594Y-119535958D01*
X143053500Y-119586529D01*
X143246491Y-119697952D01*
X143452384Y-119783238D01*
X143667633Y-119840912D01*
X143667650Y-119840915D01*
X143888570Y-119869999D01*
X143888576Y-119870000D01*
X144111424Y-119870000D01*
X144111429Y-119869999D01*
X144332349Y-119840915D01*
X144332366Y-119840912D01*
X144547615Y-119783238D01*
X144753508Y-119697952D01*
X144788000Y-119678039D01*
X144862500Y-119658077D01*
X144937000Y-119678039D01*
X144991538Y-119732577D01*
X145011500Y-119807077D01*
X145011500Y-120761861D01*
X144991538Y-120836361D01*
X144967859Y-120867220D01*
X144329221Y-121505859D01*
X144262426Y-121544423D01*
X144223862Y-121549500D01*
X142999992Y-121549500D01*
X142931466Y-121556500D01*
X142897201Y-121560001D01*
X142730663Y-121615187D01*
X142581344Y-121707289D01*
X142457289Y-121831344D01*
X142365187Y-121980663D01*
X142310001Y-122147201D01*
X142310001Y-122147203D01*
X142299500Y-122249992D01*
X97896452Y-122249992D01*
X98005604Y-122140840D01*
X98012403Y-122134040D01*
X97946498Y-122083469D01*
X97753508Y-121972047D01*
X97547615Y-121886761D01*
X97332366Y-121829087D01*
X97332349Y-121829084D01*
X97111429Y-121800000D01*
X96888570Y-121800000D01*
X96667650Y-121829084D01*
X96667633Y-121829087D01*
X96452384Y-121886761D01*
X96246489Y-121972048D01*
X96207798Y-121994386D01*
X96133298Y-122014347D01*
X96058798Y-121994384D01*
X96004261Y-121939845D01*
X95984300Y-121865347D01*
X95984300Y-120912172D01*
X96004262Y-120837672D01*
X96027946Y-120806808D01*
X96072898Y-120761861D01*
X96497391Y-120337410D01*
X96670682Y-120164136D01*
X96737479Y-120125575D01*
X96776036Y-120120500D01*
X98000004Y-120120500D01*
X98000008Y-120120500D01*
X98102797Y-120109999D01*
X98269334Y-120054814D01*
X98418655Y-119962711D01*
X98542711Y-119838655D01*
X98634814Y-119689334D01*
X98689999Y-119522797D01*
X98700500Y-119420008D01*
X98700500Y-117419992D01*
X98689999Y-117317203D01*
X98634814Y-117150666D01*
X98542711Y-117001345D01*
X98418655Y-116877289D01*
X98269336Y-116785187D01*
X98269335Y-116785186D01*
X98269334Y-116785186D01*
X98173622Y-116753470D01*
X98102798Y-116730001D01*
X98102799Y-116730001D01*
X98068534Y-116726500D01*
X98000008Y-116719500D01*
X95999992Y-116719500D01*
X95931466Y-116726500D01*
X95897201Y-116730001D01*
X95730663Y-116785187D01*
X95581344Y-116877289D01*
X95457289Y-117001344D01*
X95365187Y-117150663D01*
X95310001Y-117317201D01*
X95310001Y-117317203D01*
X95301467Y-117400743D01*
X95299500Y-117419996D01*
X95299500Y-118643757D01*
X95279538Y-118718257D01*
X95255854Y-118749121D01*
X94468940Y-119535957D01*
X94346038Y-119658847D01*
X94346018Y-119658861D01*
X94277208Y-119727669D01*
X94277207Y-119727671D01*
X94277198Y-119727680D01*
X94206672Y-119798199D01*
X94150963Y-119881572D01*
X94150964Y-119881573D01*
X94150900Y-119881669D01*
X94097192Y-119962042D01*
X94097183Y-119962063D01*
X94097168Y-119962086D01*
X94097031Y-119962414D01*
X94097029Y-119962419D01*
X94059826Y-120052236D01*
X94059824Y-120052241D01*
X94021760Y-120144123D01*
X94021752Y-120144148D01*
X94003184Y-120237495D01*
X94003183Y-120237500D01*
X93983303Y-120337419D01*
X93983300Y-120337446D01*
X93983300Y-120435957D01*
X93983295Y-120541793D01*
X88800500Y-120541793D01*
X88800500Y-102062114D01*
X95399500Y-102062114D01*
X95399500Y-103857863D01*
X95399502Y-103857888D01*
X95405908Y-103917478D01*
X95405909Y-103917484D01*
X95456202Y-104052329D01*
X95456204Y-104052333D01*
X95542452Y-104167544D01*
X95542455Y-104167547D01*
X95657666Y-104253795D01*
X95657670Y-104253797D01*
X95792517Y-104304091D01*
X95852114Y-104310499D01*
X95852118Y-104310499D01*
X95852127Y-104310500D01*
X95852303Y-104310499D01*
X95852346Y-104310511D01*
X95856108Y-104310713D01*
X95856065Y-104311506D01*
X95926804Y-104330443D01*
X95957694Y-104354140D01*
X96620591Y-105017037D01*
X96557007Y-105034075D01*
X96442993Y-105099901D01*
X96349901Y-105192993D01*
X96284075Y-105307007D01*
X96267037Y-105370590D01*
X95634729Y-104738282D01*
X95634728Y-104738282D01*
X95595378Y-104792444D01*
X95498906Y-104981779D01*
X95433242Y-105183871D01*
X95400000Y-105393757D01*
X95400000Y-105606242D01*
X95433242Y-105816128D01*
X95498906Y-106018220D01*
X95595378Y-106207555D01*
X95634728Y-106261716D01*
X95634729Y-106261716D01*
X96267037Y-105629408D01*
X96284075Y-105692993D01*
X96349901Y-105807007D01*
X96442993Y-105900099D01*
X96557007Y-105965925D01*
X96620590Y-105982962D01*
X95988282Y-106615270D01*
X96042444Y-106654621D01*
X96042444Y-106654622D01*
X96231779Y-106751093D01*
X96433871Y-106816757D01*
X96643758Y-106850000D01*
X96856242Y-106850000D01*
X97066128Y-106816757D01*
X97268220Y-106751093D01*
X97457555Y-106654622D01*
X97457557Y-106654620D01*
X97511716Y-106615270D01*
X97511716Y-106615269D01*
X96879409Y-105982962D01*
X96942993Y-105965925D01*
X97057007Y-105900099D01*
X97150099Y-105807007D01*
X97215925Y-105692993D01*
X97232962Y-105629409D01*
X97865269Y-106261716D01*
X97865270Y-106261716D01*
X97904620Y-106207557D01*
X97904622Y-106207555D01*
X98001093Y-106018220D01*
X98066757Y-105816128D01*
X98100000Y-105606242D01*
X98100000Y-105393757D01*
X98066757Y-105183871D01*
X98001093Y-104981779D01*
X97906424Y-104795981D01*
X97906423Y-104795979D01*
X97904625Y-104792450D01*
X97904621Y-104792444D01*
X97865270Y-104738282D01*
X97232962Y-105370589D01*
X97215925Y-105307007D01*
X97150099Y-105192993D01*
X97057007Y-105099901D01*
X96942993Y-105034075D01*
X96879408Y-105017037D01*
X97542306Y-104354140D01*
X97609101Y-104315576D01*
X97643904Y-104310994D01*
X97643889Y-104310712D01*
X97647528Y-104310516D01*
X97647664Y-104310499D01*
X97647872Y-104310499D01*
X97707483Y-104304091D01*
X97803447Y-104268298D01*
X97842329Y-104253797D01*
X97842333Y-104253795D01*
X97928544Y-104189257D01*
X97957546Y-104167546D01*
X98043796Y-104052331D01*
X98094091Y-103917483D01*
X98095823Y-103901370D01*
X98100499Y-103857885D01*
X98100500Y-103857867D01*
X98100500Y-103308570D01*
X142550000Y-103308570D01*
X142550000Y-103531429D01*
X142579084Y-103752349D01*
X142579087Y-103752366D01*
X142636761Y-103967615D01*
X142722047Y-104173508D01*
X142833469Y-104366498D01*
X142884040Y-104432403D01*
X143534152Y-103782291D01*
X143541049Y-103798942D01*
X143628599Y-103929970D01*
X143740030Y-104041401D01*
X143871058Y-104128951D01*
X143887706Y-104135846D01*
X143237594Y-104785958D01*
X143303500Y-104836529D01*
X143496491Y-104947952D01*
X143702384Y-105033238D01*
X143917633Y-105090912D01*
X143917650Y-105090915D01*
X144138570Y-105119999D01*
X144138576Y-105120000D01*
X144361424Y-105120000D01*
X144361429Y-105119999D01*
X144582349Y-105090915D01*
X144582366Y-105090912D01*
X144797615Y-105033238D01*
X145003508Y-104947952D01*
X145196495Y-104836532D01*
X145262403Y-104785957D01*
X144612293Y-104135847D01*
X144628942Y-104128951D01*
X144759970Y-104041401D01*
X144871401Y-103929970D01*
X144958951Y-103798942D01*
X144965847Y-103782293D01*
X145615957Y-104432403D01*
X145666532Y-104366495D01*
X145777952Y-104173508D01*
X145863238Y-103967615D01*
X145920912Y-103752366D01*
X145920915Y-103752349D01*
X145949999Y-103531429D01*
X145950000Y-103531424D01*
X145950000Y-103308576D01*
X145949999Y-103308570D01*
X145920915Y-103087650D01*
X145920912Y-103087633D01*
X145863238Y-102872384D01*
X145777952Y-102666491D01*
X145666529Y-102473500D01*
X145666529Y-102473499D01*
X145615958Y-102407594D01*
X144965846Y-103057705D01*
X144958951Y-103041058D01*
X144871401Y-102910030D01*
X144759970Y-102798599D01*
X144628942Y-102711049D01*
X144612291Y-102704152D01*
X145262404Y-102054040D01*
X145196498Y-102003469D01*
X145003508Y-101892047D01*
X144797615Y-101806761D01*
X144582366Y-101749087D01*
X144582349Y-101749084D01*
X144361429Y-101720000D01*
X144138570Y-101720000D01*
X143917650Y-101749084D01*
X143917633Y-101749087D01*
X143702384Y-101806761D01*
X143496491Y-101892047D01*
X143303500Y-102003470D01*
X143237595Y-102054041D01*
X143887706Y-102704152D01*
X143871058Y-102711049D01*
X143740030Y-102798599D01*
X143628599Y-102910030D01*
X143541049Y-103041058D01*
X143534152Y-103057706D01*
X142884041Y-102407595D01*
X142833470Y-102473500D01*
X142722047Y-102666491D01*
X142636761Y-102872384D01*
X142579087Y-103087633D01*
X142579084Y-103087650D01*
X142550000Y-103308570D01*
X98100500Y-103308570D01*
X98100500Y-103303698D01*
X98100499Y-102111662D01*
X98100499Y-102062136D01*
X98100499Y-102062128D01*
X98094091Y-102002517D01*
X98079588Y-101963633D01*
X98043797Y-101867670D01*
X98043795Y-101867666D01*
X97957547Y-101752455D01*
X97957544Y-101752452D01*
X97842333Y-101666204D01*
X97842329Y-101666202D01*
X97707482Y-101615908D01*
X97647876Y-101609500D01*
X95852136Y-101609500D01*
X95852111Y-101609502D01*
X95792521Y-101615908D01*
X95792515Y-101615909D01*
X95657670Y-101666202D01*
X95657666Y-101666204D01*
X95542455Y-101752452D01*
X95542452Y-101752455D01*
X95456204Y-101867666D01*
X95456202Y-101867670D01*
X95405908Y-102002517D01*
X95399500Y-102062114D01*
X88800500Y-102062114D01*
X88800500Y-93003246D01*
X88800642Y-92996747D01*
X88810072Y-92780770D01*
X88818099Y-92596901D01*
X88819232Y-92583960D01*
X88821581Y-92566122D01*
X88871047Y-92190386D01*
X88873303Y-92177592D01*
X88890527Y-92099901D01*
X88959227Y-91790014D01*
X88962582Y-91777493D01*
X89081960Y-91398874D01*
X89086405Y-91386665D01*
X89100716Y-91352114D01*
X118609500Y-91352114D01*
X118609500Y-93147863D01*
X118609502Y-93147888D01*
X118615908Y-93207478D01*
X118615909Y-93207484D01*
X118666202Y-93342329D01*
X118666204Y-93342333D01*
X118752452Y-93457544D01*
X118752455Y-93457547D01*
X118867666Y-93543795D01*
X118867670Y-93543797D01*
X119002517Y-93594091D01*
X119062114Y-93600499D01*
X119062118Y-93600499D01*
X119062127Y-93600500D01*
X120857872Y-93600499D01*
X120917483Y-93594091D01*
X121013447Y-93558298D01*
X121052329Y-93543797D01*
X121052333Y-93543795D01*
X121109938Y-93500671D01*
X121167546Y-93457546D01*
X121253796Y-93342331D01*
X121253887Y-93342088D01*
X121285842Y-93256412D01*
X121285843Y-93256409D01*
X121304091Y-93207484D01*
X121310499Y-93147885D01*
X121310499Y-93147882D01*
X121310500Y-93147873D01*
X121310499Y-93147695D01*
X121310511Y-93147652D01*
X121310713Y-93143892D01*
X121311506Y-93143934D01*
X121330443Y-93073195D01*
X121354140Y-93042305D01*
X122017037Y-92379407D01*
X122034075Y-92442993D01*
X122099901Y-92557007D01*
X122192993Y-92650099D01*
X122307007Y-92715925D01*
X122370590Y-92732962D01*
X121738282Y-93365270D01*
X121792444Y-93404621D01*
X121792444Y-93404622D01*
X121981779Y-93501093D01*
X122183871Y-93566757D01*
X122393758Y-93600000D01*
X122606242Y-93600000D01*
X122816128Y-93566757D01*
X123018220Y-93501093D01*
X123207555Y-93404622D01*
X123207557Y-93404620D01*
X123261716Y-93365270D01*
X123261716Y-93365269D01*
X122629409Y-92732962D01*
X122692993Y-92715925D01*
X122807007Y-92650099D01*
X122900099Y-92557007D01*
X122965925Y-92442993D01*
X122982962Y-92379409D01*
X123615269Y-93011716D01*
X123615270Y-93011716D01*
X123654620Y-92957557D01*
X123654622Y-92957555D01*
X123751093Y-92768222D01*
X123792026Y-92642243D01*
X123792027Y-92642239D01*
X123816758Y-92566122D01*
X123850000Y-92356242D01*
X123850000Y-92143757D01*
X123816757Y-91933871D01*
X123751093Y-91731779D01*
X123717489Y-91665827D01*
X123685057Y-91602177D01*
X136375000Y-91602177D01*
X136375000Y-92250000D01*
X137291988Y-92250000D01*
X137259075Y-92307007D01*
X137225000Y-92434174D01*
X137225000Y-92565826D01*
X137259075Y-92692993D01*
X137291988Y-92750000D01*
X136375000Y-92750000D01*
X136375000Y-93397822D01*
X136375001Y-93397842D01*
X136381401Y-93457377D01*
X136431645Y-93592084D01*
X136431650Y-93592094D01*
X136517809Y-93707187D01*
X136517812Y-93707190D01*
X136632905Y-93793349D01*
X136632915Y-93793354D01*
X136767623Y-93843598D01*
X136767621Y-93843598D01*
X136827157Y-93849998D01*
X136827177Y-93850000D01*
X137475000Y-93850000D01*
X137475000Y-92933012D01*
X137532007Y-92965925D01*
X137659174Y-93000000D01*
X137790826Y-93000000D01*
X137917993Y-92965925D01*
X137975000Y-92933012D01*
X137975000Y-93850000D01*
X138622823Y-93850000D01*
X138622842Y-93849998D01*
X138682377Y-93843598D01*
X138817084Y-93793354D01*
X138817094Y-93793349D01*
X138932187Y-93707190D01*
X138932190Y-93707187D01*
X139018349Y-93592094D01*
X139018351Y-93592090D01*
X139045726Y-93518695D01*
X139071724Y-93376997D01*
X139071821Y-93376791D01*
X139071804Y-93376567D01*
X139088297Y-93342088D01*
X139104803Y-93307322D01*
X139104989Y-93307193D01*
X139105087Y-93306990D01*
X139112919Y-93298526D01*
X139782037Y-92629407D01*
X139799075Y-92692993D01*
X139864901Y-92807007D01*
X139957993Y-92900099D01*
X140072007Y-92965925D01*
X140135590Y-92982962D01*
X139503282Y-93615270D01*
X139557444Y-93654621D01*
X139557444Y-93654622D01*
X139746779Y-93751093D01*
X139948871Y-93816757D01*
X140158758Y-93850000D01*
X140371242Y-93850000D01*
X140581128Y-93816757D01*
X140783220Y-93751093D01*
X140972555Y-93654622D01*
X140972557Y-93654620D01*
X141026716Y-93615270D01*
X141026716Y-93615269D01*
X140394409Y-92982962D01*
X140457993Y-92965925D01*
X140572007Y-92900099D01*
X140665099Y-92807007D01*
X140730925Y-92692993D01*
X140747962Y-92629409D01*
X141380269Y-93261716D01*
X141380270Y-93261716D01*
X141419620Y-93207557D01*
X141419622Y-93207555D01*
X141516093Y-93018220D01*
X141581757Y-92816128D01*
X141615000Y-92606242D01*
X141615000Y-92393757D01*
X141581757Y-92183871D01*
X141516093Y-91981779D01*
X141419621Y-91792444D01*
X141380270Y-91738282D01*
X140747962Y-92370589D01*
X140730925Y-92307007D01*
X140665099Y-92192993D01*
X140572007Y-92099901D01*
X140457993Y-92034075D01*
X140394407Y-92017037D01*
X141026716Y-91384729D01*
X141026716Y-91384728D01*
X140972555Y-91345378D01*
X140972555Y-91345377D01*
X140783220Y-91248906D01*
X140581128Y-91183242D01*
X140371242Y-91150000D01*
X140158758Y-91150000D01*
X139948871Y-91183242D01*
X139746779Y-91248906D01*
X139557444Y-91345378D01*
X139503282Y-91384728D01*
X139503282Y-91384729D01*
X140135590Y-92017037D01*
X140072007Y-92034075D01*
X139957993Y-92099901D01*
X139864901Y-92192993D01*
X139799075Y-92307007D01*
X139782037Y-92370590D01*
X139112919Y-91701472D01*
X139074355Y-91634677D01*
X139071724Y-91623001D01*
X139045725Y-91481300D01*
X139018353Y-91407913D01*
X139018349Y-91407905D01*
X138932190Y-91292812D01*
X138932187Y-91292809D01*
X138817094Y-91206650D01*
X138817084Y-91206645D01*
X138682376Y-91156401D01*
X138682378Y-91156401D01*
X138622842Y-91150001D01*
X138622823Y-91150000D01*
X137975000Y-91150000D01*
X137975000Y-92066988D01*
X137917993Y-92034075D01*
X137790826Y-92000000D01*
X137659174Y-92000000D01*
X137532007Y-92034075D01*
X137475000Y-92066988D01*
X137475000Y-91150000D01*
X136827177Y-91150000D01*
X136827157Y-91150001D01*
X136767622Y-91156401D01*
X136632915Y-91206645D01*
X136632905Y-91206650D01*
X136517812Y-91292809D01*
X136517809Y-91292812D01*
X136431650Y-91407905D01*
X136431645Y-91407915D01*
X136381401Y-91542622D01*
X136375001Y-91602157D01*
X136375000Y-91602177D01*
X123685057Y-91602177D01*
X123654621Y-91542444D01*
X123615270Y-91488282D01*
X122982962Y-92120589D01*
X122965925Y-92057007D01*
X122900099Y-91942993D01*
X122807007Y-91849901D01*
X122692993Y-91784075D01*
X122629407Y-91767037D01*
X123261716Y-91134729D01*
X123261716Y-91134728D01*
X123207555Y-91095378D01*
X123207555Y-91095377D01*
X123018220Y-90998906D01*
X122816128Y-90933242D01*
X122606242Y-90900000D01*
X122393758Y-90900000D01*
X122183871Y-90933242D01*
X121981779Y-90998906D01*
X121792444Y-91095378D01*
X121738282Y-91134728D01*
X121738282Y-91134729D01*
X122370590Y-91767037D01*
X122307007Y-91784075D01*
X122192993Y-91849901D01*
X122099901Y-91942993D01*
X122034075Y-92057007D01*
X122017037Y-92120590D01*
X121354140Y-91457693D01*
X121315576Y-91390898D01*
X121313731Y-91383199D01*
X121310499Y-91367935D01*
X121310499Y-91352128D01*
X121304091Y-91292517D01*
X121263334Y-91183242D01*
X121253797Y-91157670D01*
X121253795Y-91157666D01*
X121167547Y-91042455D01*
X121167544Y-91042452D01*
X121052333Y-90956204D01*
X121052329Y-90956202D01*
X120917482Y-90905908D01*
X120857876Y-90899500D01*
X119062136Y-90899500D01*
X119062111Y-90899502D01*
X119002521Y-90905908D01*
X119002515Y-90905909D01*
X118867670Y-90956202D01*
X118867666Y-90956204D01*
X118752455Y-91042452D01*
X118752452Y-91042455D01*
X118666204Y-91157666D01*
X118666202Y-91157670D01*
X118615908Y-91292517D01*
X118609500Y-91352114D01*
X89100716Y-91352114D01*
X89125982Y-91291117D01*
X89238319Y-91019910D01*
X89243808Y-91008140D01*
X89270845Y-90956202D01*
X89427117Y-90656006D01*
X89433602Y-90644773D01*
X89646903Y-90309958D01*
X89654354Y-90299318D01*
X89665776Y-90284433D01*
X89896029Y-89984360D01*
X89904353Y-89974440D01*
X90172560Y-89681744D01*
X90181748Y-89672557D01*
X90474440Y-89404353D01*
X90484360Y-89396029D01*
X90799324Y-89154349D01*
X90809958Y-89146903D01*
X91144773Y-88933602D01*
X91156006Y-88927117D01*
X91508141Y-88743807D01*
X91519910Y-88738319D01*
X91886668Y-88586403D01*
X91898874Y-88581960D01*
X92277493Y-88462582D01*
X92290014Y-88459227D01*
X92677599Y-88373301D01*
X92690386Y-88371047D01*
X93083969Y-88319231D01*
X93096901Y-88318099D01*
X93496748Y-88300642D01*
X93503247Y-88300500D01*
X93547595Y-88300500D01*
X148452405Y-88300500D01*
X148496753Y-88300500D01*
X148503252Y-88300642D01*
G37*
%TD.AperFunction*%
%TD*%
M02*
