M48
; DRILL file {KiCad 9.0.7} date 2026-05-10T13:39:14+0200
; FORMAT={-:-/ absolute / metric / decimal}
; #@! TF.CreationDate,2026-05-10T13:39:14+02:00
; #@! TF.GenerationSoftware,Kicad,Pcbnew,9.0.7
; #@! TF.FileFunction,Plated,1,2,PTH
FMAT,2
METRIC
; #@! TA.AperFunction,Plated,PTH,ViaDrill
T1C0.400
; #@! TA.AperFunction,Plated,PTH,ComponentDrill
T2C0.800
; #@! TA.AperFunction,Plated,PTH,ComponentDrill
T3C1.000
; #@! TA.AperFunction,Plated,PTH,ComponentDrill
T4C1.600
; #@! TA.AperFunction,Plated,PTH,ComponentDrill
T5C3.200
%
G90
G05
T1
X100.25Y-129.5
X100.75Y-113.0
X123.25Y-144.75
X132.25Y-99.75
X150.0Y-98.0
T2
X107.292Y-130.75
X110.792Y-130.75
T3
X96.75Y-102.96
X96.75Y-105.5
X119.96Y-92.25
X122.5Y-92.25
X137.725Y-92.5
X140.265Y-92.5
T4
X97.0Y-118.42
X97.0Y-123.5
X97.0Y-134.25
X97.0Y-139.33
X144.0Y-118.17
X144.0Y-123.25
X144.0Y-133.67
X144.0Y-138.75
X144.25Y-103.42
X144.25Y-108.5
T5
X93.5Y-93.0
X93.5Y-148.0
X148.5Y-93.0
X148.5Y-148.0
T3
X119.292Y-136.75G85X121.292Y-136.75
G05
X119.292Y-142.75G85X121.292Y-142.75
G05
X124.992Y-140.75G85X124.992Y-138.75
G05
M30
