%TF.GenerationSoftware,KiCad,Pcbnew,9.0.7*%
%TF.CreationDate,2026-05-10T13:38:55+02:00*%
%TF.ProjectId,pcb_alimentation,7063625f-616c-4696-9d65-6e746174696f,rev?*%
%TF.SameCoordinates,Original*%
%TF.FileFunction,Legend,Top*%
%TF.FilePolarity,Positive*%
%FSLAX46Y46*%
G04 Gerber Fmt 4.6, Leading zero omitted, Abs format (unit mm)*
G04 Created by KiCad (PCBNEW 9.0.7) date 2026-05-10 13:38:55*
%MOMM*%
%LPD*%
G01*
G04 APERTURE LIST*
%ADD10C,0.150000*%
%ADD11C,0.300000*%
%ADD12C,0.120000*%
G04 APERTURE END LIST*
D10*
X151015350Y-138889866D02*
X151548684Y-138889866D01*
X151282017Y-139156533D02*
X151282017Y-138623200D01*
X89265350Y-134139866D02*
X89798684Y-134139866D01*
X89532017Y-134406533D02*
X89532017Y-133873200D01*
X151015350Y-123389866D02*
X151548684Y-123389866D01*
X151282017Y-123656533D02*
X151282017Y-123123200D01*
X89515350Y-118639866D02*
X90048684Y-118639866D01*
X89782017Y-118906533D02*
X89782017Y-118373200D01*
X122515350Y-94889866D02*
X123048684Y-94889866D01*
X93265350Y-105639866D02*
X93798684Y-105639866D01*
X93265350Y-102639866D02*
X93798684Y-102639866D01*
X93532017Y-102906533D02*
X93532017Y-102373200D01*
X89515350Y-139639866D02*
X90048684Y-139639866D01*
X151015350Y-102639866D02*
X151548684Y-102639866D01*
X89765350Y-123389866D02*
X90298684Y-123389866D01*
X150765350Y-118639866D02*
X151298684Y-118639866D01*
X151015350Y-108139866D02*
X151548684Y-108139866D01*
X151282017Y-108406533D02*
X151282017Y-107873200D01*
X150765350Y-133389866D02*
X151298684Y-133389866D01*
D11*
X142140225Y-146300828D02*
X142997368Y-146300828D01*
X142568796Y-147800828D02*
X142568796Y-146300828D01*
X117754510Y-119600828D02*
X117754510Y-118100828D01*
X117754510Y-118100828D02*
X118111653Y-118100828D01*
X118111653Y-118100828D02*
X118325939Y-118172257D01*
X118325939Y-118172257D02*
X118468796Y-118315114D01*
X118468796Y-118315114D02*
X118540225Y-118457971D01*
X118540225Y-118457971D02*
X118611653Y-118743685D01*
X118611653Y-118743685D02*
X118611653Y-118957971D01*
X118611653Y-118957971D02*
X118540225Y-119243685D01*
X118540225Y-119243685D02*
X118468796Y-119386542D01*
X118468796Y-119386542D02*
X118325939Y-119529400D01*
X118325939Y-119529400D02*
X118111653Y-119600828D01*
X118111653Y-119600828D02*
X117754510Y-119600828D01*
X119897368Y-118600828D02*
X119897368Y-119600828D01*
X119254510Y-118600828D02*
X119254510Y-119386542D01*
X119254510Y-119386542D02*
X119325939Y-119529400D01*
X119325939Y-119529400D02*
X119468796Y-119600828D01*
X119468796Y-119600828D02*
X119683082Y-119600828D01*
X119683082Y-119600828D02*
X119825939Y-119529400D01*
X119825939Y-119529400D02*
X119897368Y-119457971D01*
X120397368Y-118600828D02*
X120968796Y-118600828D01*
X120611653Y-118100828D02*
X120611653Y-119386542D01*
X120611653Y-119386542D02*
X120683082Y-119529400D01*
X120683082Y-119529400D02*
X120825939Y-119600828D01*
X120825939Y-119600828D02*
X120968796Y-119600828D01*
X121468796Y-119600828D02*
X121468796Y-118100828D01*
X122111654Y-119600828D02*
X122111654Y-118815114D01*
X122111654Y-118815114D02*
X122040225Y-118672257D01*
X122040225Y-118672257D02*
X121897368Y-118600828D01*
X121897368Y-118600828D02*
X121683082Y-118600828D01*
X121683082Y-118600828D02*
X121540225Y-118672257D01*
X121540225Y-118672257D02*
X121468796Y-118743685D01*
X123397368Y-119529400D02*
X123254511Y-119600828D01*
X123254511Y-119600828D02*
X122968797Y-119600828D01*
X122968797Y-119600828D02*
X122825939Y-119529400D01*
X122825939Y-119529400D02*
X122754511Y-119386542D01*
X122754511Y-119386542D02*
X122754511Y-118815114D01*
X122754511Y-118815114D02*
X122825939Y-118672257D01*
X122825939Y-118672257D02*
X122968797Y-118600828D01*
X122968797Y-118600828D02*
X123254511Y-118600828D01*
X123254511Y-118600828D02*
X123397368Y-118672257D01*
X123397368Y-118672257D02*
X123468797Y-118815114D01*
X123468797Y-118815114D02*
X123468797Y-118957971D01*
X123468797Y-118957971D02*
X122754511Y-119100828D01*
X124111653Y-119600828D02*
X124111653Y-118600828D01*
X124111653Y-118100828D02*
X124040225Y-118172257D01*
X124040225Y-118172257D02*
X124111653Y-118243685D01*
X124111653Y-118243685D02*
X124183082Y-118172257D01*
X124183082Y-118172257D02*
X124111653Y-118100828D01*
X124111653Y-118100828D02*
X124111653Y-118243685D01*
X125040225Y-119600828D02*
X124897368Y-119529400D01*
X124897368Y-119529400D02*
X124825939Y-119386542D01*
X124825939Y-119386542D02*
X124825939Y-118100828D01*
D10*
X119765350Y-94889866D02*
X120298684Y-94889866D01*
X120032017Y-95156533D02*
X120032017Y-94623200D01*
X111359166Y-144116033D02*
X110959166Y-144116033D01*
X111159166Y-144116033D02*
X111159166Y-143416033D01*
X111159166Y-143416033D02*
X111092499Y-143516033D01*
X111092499Y-143516033D02*
X111025833Y-143582700D01*
X111025833Y-143582700D02*
X110959166Y-143616033D01*
X111792500Y-143416033D02*
X111859166Y-143416033D01*
X111859166Y-143416033D02*
X111925833Y-143449366D01*
X111925833Y-143449366D02*
X111959166Y-143482700D01*
X111959166Y-143482700D02*
X111992500Y-143549366D01*
X111992500Y-143549366D02*
X112025833Y-143682700D01*
X112025833Y-143682700D02*
X112025833Y-143849366D01*
X112025833Y-143849366D02*
X111992500Y-143982700D01*
X111992500Y-143982700D02*
X111959166Y-144049366D01*
X111959166Y-144049366D02*
X111925833Y-144082700D01*
X111925833Y-144082700D02*
X111859166Y-144116033D01*
X111859166Y-144116033D02*
X111792500Y-144116033D01*
X111792500Y-144116033D02*
X111725833Y-144082700D01*
X111725833Y-144082700D02*
X111692500Y-144049366D01*
X111692500Y-144049366D02*
X111659166Y-143982700D01*
X111659166Y-143982700D02*
X111625833Y-143849366D01*
X111625833Y-143849366D02*
X111625833Y-143682700D01*
X111625833Y-143682700D02*
X111659166Y-143549366D01*
X111659166Y-143549366D02*
X111692500Y-143482700D01*
X111692500Y-143482700D02*
X111725833Y-143449366D01*
X111725833Y-143449366D02*
X111792500Y-143416033D01*
X112459167Y-143416033D02*
X112525833Y-143416033D01*
X112525833Y-143416033D02*
X112592500Y-143449366D01*
X112592500Y-143449366D02*
X112625833Y-143482700D01*
X112625833Y-143482700D02*
X112659167Y-143549366D01*
X112659167Y-143549366D02*
X112692500Y-143682700D01*
X112692500Y-143682700D02*
X112692500Y-143849366D01*
X112692500Y-143849366D02*
X112659167Y-143982700D01*
X112659167Y-143982700D02*
X112625833Y-144049366D01*
X112625833Y-144049366D02*
X112592500Y-144082700D01*
X112592500Y-144082700D02*
X112525833Y-144116033D01*
X112525833Y-144116033D02*
X112459167Y-144116033D01*
X112459167Y-144116033D02*
X112392500Y-144082700D01*
X112392500Y-144082700D02*
X112359167Y-144049366D01*
X112359167Y-144049366D02*
X112325833Y-143982700D01*
X112325833Y-143982700D02*
X112292500Y-143849366D01*
X112292500Y-143849366D02*
X112292500Y-143682700D01*
X112292500Y-143682700D02*
X112325833Y-143549366D01*
X112325833Y-143549366D02*
X112359167Y-143482700D01*
X112359167Y-143482700D02*
X112392500Y-143449366D01*
X112392500Y-143449366D02*
X112459167Y-143416033D01*
X112992500Y-143649366D02*
X112992500Y-144116033D01*
X112992500Y-143716033D02*
X113025834Y-143682700D01*
X113025834Y-143682700D02*
X113092500Y-143649366D01*
X113092500Y-143649366D02*
X113192500Y-143649366D01*
X113192500Y-143649366D02*
X113259167Y-143682700D01*
X113259167Y-143682700D02*
X113292500Y-143749366D01*
X113292500Y-143749366D02*
X113292500Y-144116033D01*
X113859167Y-143749366D02*
X113625833Y-143749366D01*
X113625833Y-144116033D02*
X113625833Y-143416033D01*
X113625833Y-143416033D02*
X113959167Y-143416033D01*
X95866666Y-113866033D02*
X95866666Y-114366033D01*
X95866666Y-114366033D02*
X95833333Y-114466033D01*
X95833333Y-114466033D02*
X95766666Y-114532700D01*
X95766666Y-114532700D02*
X95666666Y-114566033D01*
X95666666Y-114566033D02*
X95600000Y-114566033D01*
X96033333Y-114632700D02*
X96566666Y-114632700D01*
X97099999Y-114566033D02*
X96699999Y-114566033D01*
X96899999Y-114566033D02*
X96899999Y-113866033D01*
X96899999Y-113866033D02*
X96833332Y-113966033D01*
X96833332Y-113966033D02*
X96766666Y-114032700D01*
X96766666Y-114032700D02*
X96699999Y-114066033D01*
X97366666Y-113932700D02*
X97399999Y-113899366D01*
X97399999Y-113899366D02*
X97466666Y-113866033D01*
X97466666Y-113866033D02*
X97633333Y-113866033D01*
X97633333Y-113866033D02*
X97699999Y-113899366D01*
X97699999Y-113899366D02*
X97733333Y-113932700D01*
X97733333Y-113932700D02*
X97766666Y-113999366D01*
X97766666Y-113999366D02*
X97766666Y-114066033D01*
X97766666Y-114066033D02*
X97733333Y-114166033D01*
X97733333Y-114166033D02*
X97333333Y-114566033D01*
X97333333Y-114566033D02*
X97766666Y-114566033D01*
X97966666Y-113866033D02*
X98200000Y-114566033D01*
X98200000Y-114566033D02*
X98433333Y-113866033D01*
X127641666Y-107066033D02*
X127241666Y-107066033D01*
X127441666Y-107066033D02*
X127441666Y-106366033D01*
X127441666Y-106366033D02*
X127374999Y-106466033D01*
X127374999Y-106466033D02*
X127308333Y-106532700D01*
X127308333Y-106532700D02*
X127241666Y-106566033D01*
X128075000Y-106366033D02*
X128141666Y-106366033D01*
X128141666Y-106366033D02*
X128208333Y-106399366D01*
X128208333Y-106399366D02*
X128241666Y-106432700D01*
X128241666Y-106432700D02*
X128275000Y-106499366D01*
X128275000Y-106499366D02*
X128308333Y-106632700D01*
X128308333Y-106632700D02*
X128308333Y-106799366D01*
X128308333Y-106799366D02*
X128275000Y-106932700D01*
X128275000Y-106932700D02*
X128241666Y-106999366D01*
X128241666Y-106999366D02*
X128208333Y-107032700D01*
X128208333Y-107032700D02*
X128141666Y-107066033D01*
X128141666Y-107066033D02*
X128075000Y-107066033D01*
X128075000Y-107066033D02*
X128008333Y-107032700D01*
X128008333Y-107032700D02*
X127975000Y-106999366D01*
X127975000Y-106999366D02*
X127941666Y-106932700D01*
X127941666Y-106932700D02*
X127908333Y-106799366D01*
X127908333Y-106799366D02*
X127908333Y-106632700D01*
X127908333Y-106632700D02*
X127941666Y-106499366D01*
X127941666Y-106499366D02*
X127975000Y-106432700D01*
X127975000Y-106432700D02*
X128008333Y-106399366D01*
X128008333Y-106399366D02*
X128075000Y-106366033D01*
X128741667Y-106366033D02*
X128808333Y-106366033D01*
X128808333Y-106366033D02*
X128875000Y-106399366D01*
X128875000Y-106399366D02*
X128908333Y-106432700D01*
X128908333Y-106432700D02*
X128941667Y-106499366D01*
X128941667Y-106499366D02*
X128975000Y-106632700D01*
X128975000Y-106632700D02*
X128975000Y-106799366D01*
X128975000Y-106799366D02*
X128941667Y-106932700D01*
X128941667Y-106932700D02*
X128908333Y-106999366D01*
X128908333Y-106999366D02*
X128875000Y-107032700D01*
X128875000Y-107032700D02*
X128808333Y-107066033D01*
X128808333Y-107066033D02*
X128741667Y-107066033D01*
X128741667Y-107066033D02*
X128675000Y-107032700D01*
X128675000Y-107032700D02*
X128641667Y-106999366D01*
X128641667Y-106999366D02*
X128608333Y-106932700D01*
X128608333Y-106932700D02*
X128575000Y-106799366D01*
X128575000Y-106799366D02*
X128575000Y-106632700D01*
X128575000Y-106632700D02*
X128608333Y-106499366D01*
X128608333Y-106499366D02*
X128641667Y-106432700D01*
X128641667Y-106432700D02*
X128675000Y-106399366D01*
X128675000Y-106399366D02*
X128741667Y-106366033D01*
X129275000Y-106599366D02*
X129275000Y-107066033D01*
X129275000Y-106666033D02*
X129308334Y-106632700D01*
X129308334Y-106632700D02*
X129375000Y-106599366D01*
X129375000Y-106599366D02*
X129475000Y-106599366D01*
X129475000Y-106599366D02*
X129541667Y-106632700D01*
X129541667Y-106632700D02*
X129575000Y-106699366D01*
X129575000Y-106699366D02*
X129575000Y-107066033D01*
X130141667Y-106699366D02*
X129908333Y-106699366D01*
X129908333Y-107066033D02*
X129908333Y-106366033D01*
X129908333Y-106366033D02*
X130241667Y-106366033D01*
X95366666Y-129866033D02*
X95366666Y-130366033D01*
X95366666Y-130366033D02*
X95333333Y-130466033D01*
X95333333Y-130466033D02*
X95266666Y-130532700D01*
X95266666Y-130532700D02*
X95166666Y-130566033D01*
X95166666Y-130566033D02*
X95100000Y-130566033D01*
X95533333Y-130632700D02*
X96066666Y-130632700D01*
X96599999Y-130566033D02*
X96199999Y-130566033D01*
X96399999Y-130566033D02*
X96399999Y-129866033D01*
X96399999Y-129866033D02*
X96333332Y-129966033D01*
X96333332Y-129966033D02*
X96266666Y-130032700D01*
X96266666Y-130032700D02*
X96199999Y-130066033D01*
X96866666Y-129932700D02*
X96899999Y-129899366D01*
X96899999Y-129899366D02*
X96966666Y-129866033D01*
X96966666Y-129866033D02*
X97133333Y-129866033D01*
X97133333Y-129866033D02*
X97199999Y-129899366D01*
X97199999Y-129899366D02*
X97233333Y-129932700D01*
X97233333Y-129932700D02*
X97266666Y-129999366D01*
X97266666Y-129999366D02*
X97266666Y-130066033D01*
X97266666Y-130066033D02*
X97233333Y-130166033D01*
X97233333Y-130166033D02*
X96833333Y-130566033D01*
X96833333Y-130566033D02*
X97266666Y-130566033D01*
X97466666Y-129866033D02*
X97700000Y-130566033D01*
X97700000Y-130566033D02*
X97933333Y-129866033D01*
X121129166Y-100349366D02*
X121129166Y-100816033D01*
X120962500Y-100082700D02*
X120795833Y-100582700D01*
X120795833Y-100582700D02*
X121229166Y-100582700D01*
X121429167Y-100116033D02*
X121895833Y-100116033D01*
X121895833Y-100116033D02*
X121595833Y-100816033D01*
X122295834Y-100116033D02*
X122362500Y-100116033D01*
X122362500Y-100116033D02*
X122429167Y-100149366D01*
X122429167Y-100149366D02*
X122462500Y-100182700D01*
X122462500Y-100182700D02*
X122495834Y-100249366D01*
X122495834Y-100249366D02*
X122529167Y-100382700D01*
X122529167Y-100382700D02*
X122529167Y-100549366D01*
X122529167Y-100549366D02*
X122495834Y-100682700D01*
X122495834Y-100682700D02*
X122462500Y-100749366D01*
X122462500Y-100749366D02*
X122429167Y-100782700D01*
X122429167Y-100782700D02*
X122362500Y-100816033D01*
X122362500Y-100816033D02*
X122295834Y-100816033D01*
X122295834Y-100816033D02*
X122229167Y-100782700D01*
X122229167Y-100782700D02*
X122195834Y-100749366D01*
X122195834Y-100749366D02*
X122162500Y-100682700D01*
X122162500Y-100682700D02*
X122129167Y-100549366D01*
X122129167Y-100549366D02*
X122129167Y-100382700D01*
X122129167Y-100382700D02*
X122162500Y-100249366D01*
X122162500Y-100249366D02*
X122195834Y-100182700D01*
X122195834Y-100182700D02*
X122229167Y-100149366D01*
X122229167Y-100149366D02*
X122295834Y-100116033D01*
X95350000Y-108116033D02*
X95350000Y-108616033D01*
X95350000Y-108616033D02*
X95316667Y-108716033D01*
X95316667Y-108716033D02*
X95250000Y-108782700D01*
X95250000Y-108782700D02*
X95150000Y-108816033D01*
X95150000Y-108816033D02*
X95083334Y-108816033D01*
X95516667Y-108882700D02*
X96050000Y-108882700D01*
X96150000Y-108116033D02*
X96583333Y-108116033D01*
X96583333Y-108116033D02*
X96350000Y-108382700D01*
X96350000Y-108382700D02*
X96450000Y-108382700D01*
X96450000Y-108382700D02*
X96516666Y-108416033D01*
X96516666Y-108416033D02*
X96550000Y-108449366D01*
X96550000Y-108449366D02*
X96583333Y-108516033D01*
X96583333Y-108516033D02*
X96583333Y-108682700D01*
X96583333Y-108682700D02*
X96550000Y-108749366D01*
X96550000Y-108749366D02*
X96516666Y-108782700D01*
X96516666Y-108782700D02*
X96450000Y-108816033D01*
X96450000Y-108816033D02*
X96250000Y-108816033D01*
X96250000Y-108816033D02*
X96183333Y-108782700D01*
X96183333Y-108782700D02*
X96150000Y-108749366D01*
X96816667Y-108349366D02*
X96983333Y-108816033D01*
X96983333Y-108816033D02*
X97150000Y-108349366D01*
X97350000Y-108116033D02*
X97783333Y-108116033D01*
X97783333Y-108116033D02*
X97550000Y-108382700D01*
X97550000Y-108382700D02*
X97650000Y-108382700D01*
X97650000Y-108382700D02*
X97716666Y-108416033D01*
X97716666Y-108416033D02*
X97750000Y-108449366D01*
X97750000Y-108449366D02*
X97783333Y-108516033D01*
X97783333Y-108516033D02*
X97783333Y-108682700D01*
X97783333Y-108682700D02*
X97750000Y-108749366D01*
X97750000Y-108749366D02*
X97716666Y-108782700D01*
X97716666Y-108782700D02*
X97650000Y-108816033D01*
X97650000Y-108816033D02*
X97450000Y-108816033D01*
X97450000Y-108816033D02*
X97383333Y-108782700D01*
X97383333Y-108782700D02*
X97350000Y-108749366D01*
X97983333Y-108116033D02*
X98216667Y-108816033D01*
X98216667Y-108816033D02*
X98450000Y-108116033D01*
X131616667Y-93866033D02*
X131283333Y-93866033D01*
X131283333Y-93866033D02*
X131250000Y-94199366D01*
X131250000Y-94199366D02*
X131283333Y-94166033D01*
X131283333Y-94166033D02*
X131350000Y-94132700D01*
X131350000Y-94132700D02*
X131516667Y-94132700D01*
X131516667Y-94132700D02*
X131583333Y-94166033D01*
X131583333Y-94166033D02*
X131616667Y-94199366D01*
X131616667Y-94199366D02*
X131650000Y-94266033D01*
X131650000Y-94266033D02*
X131650000Y-94432700D01*
X131650000Y-94432700D02*
X131616667Y-94499366D01*
X131616667Y-94499366D02*
X131583333Y-94532700D01*
X131583333Y-94532700D02*
X131516667Y-94566033D01*
X131516667Y-94566033D02*
X131350000Y-94566033D01*
X131350000Y-94566033D02*
X131283333Y-94532700D01*
X131283333Y-94532700D02*
X131250000Y-94499366D01*
X131850000Y-93866033D02*
X132083334Y-94566033D01*
X132083334Y-94566033D02*
X132316667Y-93866033D01*
X138466667Y-94649366D02*
X138400000Y-94616033D01*
X138400000Y-94616033D02*
X138300000Y-94616033D01*
X138300000Y-94616033D02*
X138200000Y-94649366D01*
X138200000Y-94649366D02*
X138133334Y-94716033D01*
X138133334Y-94716033D02*
X138100000Y-94782700D01*
X138100000Y-94782700D02*
X138066667Y-94916033D01*
X138066667Y-94916033D02*
X138066667Y-95016033D01*
X138066667Y-95016033D02*
X138100000Y-95149366D01*
X138100000Y-95149366D02*
X138133334Y-95216033D01*
X138133334Y-95216033D02*
X138200000Y-95282700D01*
X138200000Y-95282700D02*
X138300000Y-95316033D01*
X138300000Y-95316033D02*
X138366667Y-95316033D01*
X138366667Y-95316033D02*
X138466667Y-95282700D01*
X138466667Y-95282700D02*
X138500000Y-95249366D01*
X138500000Y-95249366D02*
X138500000Y-95016033D01*
X138500000Y-95016033D02*
X138366667Y-95016033D01*
X138800000Y-95316033D02*
X138800000Y-94616033D01*
X138800000Y-94616033D02*
X139200000Y-95316033D01*
X139200000Y-95316033D02*
X139200000Y-94616033D01*
X139533333Y-95316033D02*
X139533333Y-94616033D01*
X139533333Y-94616033D02*
X139700000Y-94616033D01*
X139700000Y-94616033D02*
X139800000Y-94649366D01*
X139800000Y-94649366D02*
X139866667Y-94716033D01*
X139866667Y-94716033D02*
X139900000Y-94782700D01*
X139900000Y-94782700D02*
X139933333Y-94916033D01*
X139933333Y-94916033D02*
X139933333Y-95016033D01*
X139933333Y-95016033D02*
X139900000Y-95149366D01*
X139900000Y-95149366D02*
X139866667Y-95216033D01*
X139866667Y-95216033D02*
X139800000Y-95282700D01*
X139800000Y-95282700D02*
X139700000Y-95316033D01*
X139700000Y-95316033D02*
X139533333Y-95316033D01*
X107509166Y-135682700D02*
X107542499Y-135649366D01*
X107542499Y-135649366D02*
X107609166Y-135616033D01*
X107609166Y-135616033D02*
X107775833Y-135616033D01*
X107775833Y-135616033D02*
X107842499Y-135649366D01*
X107842499Y-135649366D02*
X107875833Y-135682700D01*
X107875833Y-135682700D02*
X107909166Y-135749366D01*
X107909166Y-135749366D02*
X107909166Y-135816033D01*
X107909166Y-135816033D02*
X107875833Y-135916033D01*
X107875833Y-135916033D02*
X107475833Y-136316033D01*
X107475833Y-136316033D02*
X107909166Y-136316033D01*
X108175833Y-135682700D02*
X108209166Y-135649366D01*
X108209166Y-135649366D02*
X108275833Y-135616033D01*
X108275833Y-135616033D02*
X108442500Y-135616033D01*
X108442500Y-135616033D02*
X108509166Y-135649366D01*
X108509166Y-135649366D02*
X108542500Y-135682700D01*
X108542500Y-135682700D02*
X108575833Y-135749366D01*
X108575833Y-135749366D02*
X108575833Y-135816033D01*
X108575833Y-135816033D02*
X108542500Y-135916033D01*
X108542500Y-135916033D02*
X108142500Y-136316033D01*
X108142500Y-136316033D02*
X108575833Y-136316033D01*
X109009167Y-135616033D02*
X109075833Y-135616033D01*
X109075833Y-135616033D02*
X109142500Y-135649366D01*
X109142500Y-135649366D02*
X109175833Y-135682700D01*
X109175833Y-135682700D02*
X109209167Y-135749366D01*
X109209167Y-135749366D02*
X109242500Y-135882700D01*
X109242500Y-135882700D02*
X109242500Y-136049366D01*
X109242500Y-136049366D02*
X109209167Y-136182700D01*
X109209167Y-136182700D02*
X109175833Y-136249366D01*
X109175833Y-136249366D02*
X109142500Y-136282700D01*
X109142500Y-136282700D02*
X109075833Y-136316033D01*
X109075833Y-136316033D02*
X109009167Y-136316033D01*
X109009167Y-136316033D02*
X108942500Y-136282700D01*
X108942500Y-136282700D02*
X108909167Y-136249366D01*
X108909167Y-136249366D02*
X108875833Y-136182700D01*
X108875833Y-136182700D02*
X108842500Y-136049366D01*
X108842500Y-136049366D02*
X108842500Y-135882700D01*
X108842500Y-135882700D02*
X108875833Y-135749366D01*
X108875833Y-135749366D02*
X108909167Y-135682700D01*
X108909167Y-135682700D02*
X108942500Y-135649366D01*
X108942500Y-135649366D02*
X109009167Y-135616033D01*
X109542500Y-135849366D02*
X109542500Y-136549366D01*
X109875834Y-136216033D02*
X109909167Y-136282700D01*
X109909167Y-136282700D02*
X109975834Y-136316033D01*
X109542500Y-136216033D02*
X109575834Y-136282700D01*
X109575834Y-136282700D02*
X109642500Y-136316033D01*
X109642500Y-136316033D02*
X109775834Y-136316033D01*
X109775834Y-136316033D02*
X109842500Y-136282700D01*
X109842500Y-136282700D02*
X109875834Y-136216033D01*
X109875834Y-136216033D02*
X109875834Y-135849366D01*
X110509167Y-135949366D02*
X110275833Y-135949366D01*
X110275833Y-136316033D02*
X110275833Y-135616033D01*
X110275833Y-135616033D02*
X110609167Y-135616033D01*
X101966667Y-94366033D02*
X102400000Y-94366033D01*
X102400000Y-94366033D02*
X102166667Y-94632700D01*
X102166667Y-94632700D02*
X102266667Y-94632700D01*
X102266667Y-94632700D02*
X102333333Y-94666033D01*
X102333333Y-94666033D02*
X102366667Y-94699366D01*
X102366667Y-94699366D02*
X102400000Y-94766033D01*
X102400000Y-94766033D02*
X102400000Y-94932700D01*
X102400000Y-94932700D02*
X102366667Y-94999366D01*
X102366667Y-94999366D02*
X102333333Y-95032700D01*
X102333333Y-95032700D02*
X102266667Y-95066033D01*
X102266667Y-95066033D02*
X102066667Y-95066033D01*
X102066667Y-95066033D02*
X102000000Y-95032700D01*
X102000000Y-95032700D02*
X101966667Y-94999366D01*
X102700000Y-94999366D02*
X102733334Y-95032700D01*
X102733334Y-95032700D02*
X102700000Y-95066033D01*
X102700000Y-95066033D02*
X102666667Y-95032700D01*
X102666667Y-95032700D02*
X102700000Y-94999366D01*
X102700000Y-94999366D02*
X102700000Y-95066033D01*
X102966667Y-94366033D02*
X103400000Y-94366033D01*
X103400000Y-94366033D02*
X103166667Y-94632700D01*
X103166667Y-94632700D02*
X103266667Y-94632700D01*
X103266667Y-94632700D02*
X103333333Y-94666033D01*
X103333333Y-94666033D02*
X103366667Y-94699366D01*
X103366667Y-94699366D02*
X103400000Y-94766033D01*
X103400000Y-94766033D02*
X103400000Y-94932700D01*
X103400000Y-94932700D02*
X103366667Y-94999366D01*
X103366667Y-94999366D02*
X103333333Y-95032700D01*
X103333333Y-95032700D02*
X103266667Y-95066033D01*
X103266667Y-95066033D02*
X103066667Y-95066033D01*
X103066667Y-95066033D02*
X103000000Y-95032700D01*
X103000000Y-95032700D02*
X102966667Y-94999366D01*
X103600000Y-94366033D02*
X103833334Y-95066033D01*
X103833334Y-95066033D02*
X104066667Y-94366033D01*
X125900000Y-95816033D02*
X125566666Y-95816033D01*
X125566666Y-95816033D02*
X125566666Y-95116033D01*
X126133333Y-95449366D02*
X126366667Y-95449366D01*
X126466667Y-95816033D02*
X126133333Y-95816033D01*
X126133333Y-95816033D02*
X126133333Y-95116033D01*
X126133333Y-95116033D02*
X126466667Y-95116033D01*
X126766666Y-95816033D02*
X126766666Y-95116033D01*
X126766666Y-95116033D02*
X126933333Y-95116033D01*
X126933333Y-95116033D02*
X127033333Y-95149366D01*
X127033333Y-95149366D02*
X127100000Y-95216033D01*
X127100000Y-95216033D02*
X127133333Y-95282700D01*
X127133333Y-95282700D02*
X127166666Y-95416033D01*
X127166666Y-95416033D02*
X127166666Y-95516033D01*
X127166666Y-95516033D02*
X127133333Y-95649366D01*
X127133333Y-95649366D02*
X127100000Y-95716033D01*
X127100000Y-95716033D02*
X127033333Y-95782700D01*
X127033333Y-95782700D02*
X126933333Y-95816033D01*
X126933333Y-95816033D02*
X126766666Y-95816033D01*
X127300000Y-95882700D02*
X127833333Y-95882700D01*
X128333333Y-95116033D02*
X127999999Y-95116033D01*
X127999999Y-95116033D02*
X127966666Y-95449366D01*
X127966666Y-95449366D02*
X127999999Y-95416033D01*
X127999999Y-95416033D02*
X128066666Y-95382700D01*
X128066666Y-95382700D02*
X128233333Y-95382700D01*
X128233333Y-95382700D02*
X128299999Y-95416033D01*
X128299999Y-95416033D02*
X128333333Y-95449366D01*
X128333333Y-95449366D02*
X128366666Y-95516033D01*
X128366666Y-95516033D02*
X128366666Y-95682700D01*
X128366666Y-95682700D02*
X128333333Y-95749366D01*
X128333333Y-95749366D02*
X128299999Y-95782700D01*
X128299999Y-95782700D02*
X128233333Y-95816033D01*
X128233333Y-95816033D02*
X128066666Y-95816033D01*
X128066666Y-95816033D02*
X127999999Y-95782700D01*
X127999999Y-95782700D02*
X127966666Y-95749366D01*
X128566666Y-95116033D02*
X128800000Y-95816033D01*
X128800000Y-95816033D02*
X129033333Y-95116033D01*
X105816666Y-149316033D02*
X105416666Y-149316033D01*
X105616666Y-149316033D02*
X105616666Y-148616033D01*
X105616666Y-148616033D02*
X105549999Y-148716033D01*
X105549999Y-148716033D02*
X105483333Y-148782700D01*
X105483333Y-148782700D02*
X105416666Y-148816033D01*
X106083333Y-148682700D02*
X106116666Y-148649366D01*
X106116666Y-148649366D02*
X106183333Y-148616033D01*
X106183333Y-148616033D02*
X106350000Y-148616033D01*
X106350000Y-148616033D02*
X106416666Y-148649366D01*
X106416666Y-148649366D02*
X106450000Y-148682700D01*
X106450000Y-148682700D02*
X106483333Y-148749366D01*
X106483333Y-148749366D02*
X106483333Y-148816033D01*
X106483333Y-148816033D02*
X106450000Y-148916033D01*
X106450000Y-148916033D02*
X106050000Y-149316033D01*
X106050000Y-149316033D02*
X106483333Y-149316033D01*
X106683333Y-148616033D02*
X106916667Y-149316033D01*
X106916667Y-149316033D02*
X107150000Y-148616033D01*
X113200000Y-105816033D02*
X112800000Y-105816033D01*
X113000000Y-105816033D02*
X113000000Y-105116033D01*
X113000000Y-105116033D02*
X112933333Y-105216033D01*
X112933333Y-105216033D02*
X112866667Y-105282700D01*
X112866667Y-105282700D02*
X112800000Y-105316033D01*
X113633334Y-105116033D02*
X113700000Y-105116033D01*
X113700000Y-105116033D02*
X113766667Y-105149366D01*
X113766667Y-105149366D02*
X113800000Y-105182700D01*
X113800000Y-105182700D02*
X113833334Y-105249366D01*
X113833334Y-105249366D02*
X113866667Y-105382700D01*
X113866667Y-105382700D02*
X113866667Y-105549366D01*
X113866667Y-105549366D02*
X113833334Y-105682700D01*
X113833334Y-105682700D02*
X113800000Y-105749366D01*
X113800000Y-105749366D02*
X113766667Y-105782700D01*
X113766667Y-105782700D02*
X113700000Y-105816033D01*
X113700000Y-105816033D02*
X113633334Y-105816033D01*
X113633334Y-105816033D02*
X113566667Y-105782700D01*
X113566667Y-105782700D02*
X113533334Y-105749366D01*
X113533334Y-105749366D02*
X113500000Y-105682700D01*
X113500000Y-105682700D02*
X113466667Y-105549366D01*
X113466667Y-105549366D02*
X113466667Y-105382700D01*
X113466667Y-105382700D02*
X113500000Y-105249366D01*
X113500000Y-105249366D02*
X113533334Y-105182700D01*
X113533334Y-105182700D02*
X113566667Y-105149366D01*
X113566667Y-105149366D02*
X113633334Y-105116033D01*
X114166667Y-105349366D02*
X114166667Y-106049366D01*
X114500001Y-105716033D02*
X114533334Y-105782700D01*
X114533334Y-105782700D02*
X114600001Y-105816033D01*
X114166667Y-105716033D02*
X114200001Y-105782700D01*
X114200001Y-105782700D02*
X114266667Y-105816033D01*
X114266667Y-105816033D02*
X114400001Y-105816033D01*
X114400001Y-105816033D02*
X114466667Y-105782700D01*
X114466667Y-105782700D02*
X114500001Y-105716033D01*
X114500001Y-105716033D02*
X114500001Y-105349366D01*
X115133334Y-105449366D02*
X114900000Y-105449366D01*
X114900000Y-105816033D02*
X114900000Y-105116033D01*
X114900000Y-105116033D02*
X115233334Y-105116033D01*
X142466668Y-98449366D02*
X142566668Y-98482700D01*
X142566668Y-98482700D02*
X142600001Y-98516033D01*
X142600001Y-98516033D02*
X142633334Y-98582700D01*
X142633334Y-98582700D02*
X142633334Y-98682700D01*
X142633334Y-98682700D02*
X142600001Y-98749366D01*
X142600001Y-98749366D02*
X142566668Y-98782700D01*
X142566668Y-98782700D02*
X142500001Y-98816033D01*
X142500001Y-98816033D02*
X142233334Y-98816033D01*
X142233334Y-98816033D02*
X142233334Y-98116033D01*
X142233334Y-98116033D02*
X142466668Y-98116033D01*
X142466668Y-98116033D02*
X142533334Y-98149366D01*
X142533334Y-98149366D02*
X142566668Y-98182700D01*
X142566668Y-98182700D02*
X142600001Y-98249366D01*
X142600001Y-98249366D02*
X142600001Y-98316033D01*
X142600001Y-98316033D02*
X142566668Y-98382700D01*
X142566668Y-98382700D02*
X142533334Y-98416033D01*
X142533334Y-98416033D02*
X142466668Y-98449366D01*
X142466668Y-98449366D02*
X142233334Y-98449366D01*
X142933334Y-98116033D02*
X142933334Y-98682700D01*
X142933334Y-98682700D02*
X142966668Y-98749366D01*
X142966668Y-98749366D02*
X143000001Y-98782700D01*
X143000001Y-98782700D02*
X143066668Y-98816033D01*
X143066668Y-98816033D02*
X143200001Y-98816033D01*
X143200001Y-98816033D02*
X143266668Y-98782700D01*
X143266668Y-98782700D02*
X143300001Y-98749366D01*
X143300001Y-98749366D02*
X143333334Y-98682700D01*
X143333334Y-98682700D02*
X143333334Y-98116033D01*
X144066667Y-98749366D02*
X144033334Y-98782700D01*
X144033334Y-98782700D02*
X143933334Y-98816033D01*
X143933334Y-98816033D02*
X143866667Y-98816033D01*
X143866667Y-98816033D02*
X143766667Y-98782700D01*
X143766667Y-98782700D02*
X143700001Y-98716033D01*
X143700001Y-98716033D02*
X143666667Y-98649366D01*
X143666667Y-98649366D02*
X143633334Y-98516033D01*
X143633334Y-98516033D02*
X143633334Y-98416033D01*
X143633334Y-98416033D02*
X143666667Y-98282700D01*
X143666667Y-98282700D02*
X143700001Y-98216033D01*
X143700001Y-98216033D02*
X143766667Y-98149366D01*
X143766667Y-98149366D02*
X143866667Y-98116033D01*
X143866667Y-98116033D02*
X143933334Y-98116033D01*
X143933334Y-98116033D02*
X144033334Y-98149366D01*
X144033334Y-98149366D02*
X144066667Y-98182700D01*
X144366667Y-98816033D02*
X144366667Y-98116033D01*
X144766667Y-98816033D02*
X144466667Y-98416033D01*
X144766667Y-98116033D02*
X144366667Y-98516033D01*
X144900001Y-98882700D02*
X145433334Y-98882700D01*
X145733334Y-98116033D02*
X145866667Y-98116033D01*
X145866667Y-98116033D02*
X145933334Y-98149366D01*
X145933334Y-98149366D02*
X146000000Y-98216033D01*
X146000000Y-98216033D02*
X146033334Y-98349366D01*
X146033334Y-98349366D02*
X146033334Y-98582700D01*
X146033334Y-98582700D02*
X146000000Y-98716033D01*
X146000000Y-98716033D02*
X145933334Y-98782700D01*
X145933334Y-98782700D02*
X145866667Y-98816033D01*
X145866667Y-98816033D02*
X145733334Y-98816033D01*
X145733334Y-98816033D02*
X145666667Y-98782700D01*
X145666667Y-98782700D02*
X145600000Y-98716033D01*
X145600000Y-98716033D02*
X145566667Y-98582700D01*
X145566667Y-98582700D02*
X145566667Y-98349366D01*
X145566667Y-98349366D02*
X145600000Y-98216033D01*
X145600000Y-98216033D02*
X145666667Y-98149366D01*
X145666667Y-98149366D02*
X145733334Y-98116033D01*
X146333333Y-98116033D02*
X146333333Y-98682700D01*
X146333333Y-98682700D02*
X146366667Y-98749366D01*
X146366667Y-98749366D02*
X146400000Y-98782700D01*
X146400000Y-98782700D02*
X146466667Y-98816033D01*
X146466667Y-98816033D02*
X146600000Y-98816033D01*
X146600000Y-98816033D02*
X146666667Y-98782700D01*
X146666667Y-98782700D02*
X146700000Y-98749366D01*
X146700000Y-98749366D02*
X146733333Y-98682700D01*
X146733333Y-98682700D02*
X146733333Y-98116033D01*
X146966666Y-98116033D02*
X147366666Y-98116033D01*
X147166666Y-98816033D02*
X147166666Y-98116033D01*
X134912500Y-111746033D02*
X134512500Y-111746033D01*
X134712500Y-111746033D02*
X134712500Y-111046033D01*
X134712500Y-111046033D02*
X134645833Y-111146033D01*
X134645833Y-111146033D02*
X134579167Y-111212700D01*
X134579167Y-111212700D02*
X134512500Y-111246033D01*
X135345834Y-111046033D02*
X135412500Y-111046033D01*
X135412500Y-111046033D02*
X135479167Y-111079366D01*
X135479167Y-111079366D02*
X135512500Y-111112700D01*
X135512500Y-111112700D02*
X135545834Y-111179366D01*
X135545834Y-111179366D02*
X135579167Y-111312700D01*
X135579167Y-111312700D02*
X135579167Y-111479366D01*
X135579167Y-111479366D02*
X135545834Y-111612700D01*
X135545834Y-111612700D02*
X135512500Y-111679366D01*
X135512500Y-111679366D02*
X135479167Y-111712700D01*
X135479167Y-111712700D02*
X135412500Y-111746033D01*
X135412500Y-111746033D02*
X135345834Y-111746033D01*
X135345834Y-111746033D02*
X135279167Y-111712700D01*
X135279167Y-111712700D02*
X135245834Y-111679366D01*
X135245834Y-111679366D02*
X135212500Y-111612700D01*
X135212500Y-111612700D02*
X135179167Y-111479366D01*
X135179167Y-111479366D02*
X135179167Y-111312700D01*
X135179167Y-111312700D02*
X135212500Y-111179366D01*
X135212500Y-111179366D02*
X135245834Y-111112700D01*
X135245834Y-111112700D02*
X135279167Y-111079366D01*
X135279167Y-111079366D02*
X135345834Y-111046033D01*
X135879167Y-111279366D02*
X135879167Y-111979366D01*
X136212501Y-111646033D02*
X136245834Y-111712700D01*
X136245834Y-111712700D02*
X136312501Y-111746033D01*
X135879167Y-111646033D02*
X135912501Y-111712700D01*
X135912501Y-111712700D02*
X135979167Y-111746033D01*
X135979167Y-111746033D02*
X136112501Y-111746033D01*
X136112501Y-111746033D02*
X136179167Y-111712700D01*
X136179167Y-111712700D02*
X136212501Y-111646033D01*
X136212501Y-111646033D02*
X136212501Y-111279366D01*
X136845834Y-111379366D02*
X136612500Y-111379366D01*
X136612500Y-111746033D02*
X136612500Y-111046033D01*
X136612500Y-111046033D02*
X136945834Y-111046033D01*
X135166666Y-105816033D02*
X134766666Y-105816033D01*
X134966666Y-105816033D02*
X134966666Y-105116033D01*
X134966666Y-105116033D02*
X134899999Y-105216033D01*
X134899999Y-105216033D02*
X134833333Y-105282700D01*
X134833333Y-105282700D02*
X134766666Y-105316033D01*
X135600000Y-105116033D02*
X135666666Y-105116033D01*
X135666666Y-105116033D02*
X135733333Y-105149366D01*
X135733333Y-105149366D02*
X135766666Y-105182700D01*
X135766666Y-105182700D02*
X135800000Y-105249366D01*
X135800000Y-105249366D02*
X135833333Y-105382700D01*
X135833333Y-105382700D02*
X135833333Y-105549366D01*
X135833333Y-105549366D02*
X135800000Y-105682700D01*
X135800000Y-105682700D02*
X135766666Y-105749366D01*
X135766666Y-105749366D02*
X135733333Y-105782700D01*
X135733333Y-105782700D02*
X135666666Y-105816033D01*
X135666666Y-105816033D02*
X135600000Y-105816033D01*
X135600000Y-105816033D02*
X135533333Y-105782700D01*
X135533333Y-105782700D02*
X135500000Y-105749366D01*
X135500000Y-105749366D02*
X135466666Y-105682700D01*
X135466666Y-105682700D02*
X135433333Y-105549366D01*
X135433333Y-105549366D02*
X135433333Y-105382700D01*
X135433333Y-105382700D02*
X135466666Y-105249366D01*
X135466666Y-105249366D02*
X135500000Y-105182700D01*
X135500000Y-105182700D02*
X135533333Y-105149366D01*
X135533333Y-105149366D02*
X135600000Y-105116033D01*
X136266667Y-105116033D02*
X136333333Y-105116033D01*
X136333333Y-105116033D02*
X136400000Y-105149366D01*
X136400000Y-105149366D02*
X136433333Y-105182700D01*
X136433333Y-105182700D02*
X136466667Y-105249366D01*
X136466667Y-105249366D02*
X136500000Y-105382700D01*
X136500000Y-105382700D02*
X136500000Y-105549366D01*
X136500000Y-105549366D02*
X136466667Y-105682700D01*
X136466667Y-105682700D02*
X136433333Y-105749366D01*
X136433333Y-105749366D02*
X136400000Y-105782700D01*
X136400000Y-105782700D02*
X136333333Y-105816033D01*
X136333333Y-105816033D02*
X136266667Y-105816033D01*
X136266667Y-105816033D02*
X136200000Y-105782700D01*
X136200000Y-105782700D02*
X136166667Y-105749366D01*
X136166667Y-105749366D02*
X136133333Y-105682700D01*
X136133333Y-105682700D02*
X136100000Y-105549366D01*
X136100000Y-105549366D02*
X136100000Y-105382700D01*
X136100000Y-105382700D02*
X136133333Y-105249366D01*
X136133333Y-105249366D02*
X136166667Y-105182700D01*
X136166667Y-105182700D02*
X136200000Y-105149366D01*
X136200000Y-105149366D02*
X136266667Y-105116033D01*
X136800000Y-105349366D02*
X136800000Y-105816033D01*
X136800000Y-105416033D02*
X136833334Y-105382700D01*
X136833334Y-105382700D02*
X136900000Y-105349366D01*
X136900000Y-105349366D02*
X137000000Y-105349366D01*
X137000000Y-105349366D02*
X137066667Y-105382700D01*
X137066667Y-105382700D02*
X137100000Y-105449366D01*
X137100000Y-105449366D02*
X137100000Y-105816033D01*
X137666667Y-105449366D02*
X137433333Y-105449366D01*
X137433333Y-105816033D02*
X137433333Y-105116033D01*
X137433333Y-105116033D02*
X137766667Y-105116033D01*
X142183334Y-128449366D02*
X142283334Y-128482700D01*
X142283334Y-128482700D02*
X142316667Y-128516033D01*
X142316667Y-128516033D02*
X142350000Y-128582700D01*
X142350000Y-128582700D02*
X142350000Y-128682700D01*
X142350000Y-128682700D02*
X142316667Y-128749366D01*
X142316667Y-128749366D02*
X142283334Y-128782700D01*
X142283334Y-128782700D02*
X142216667Y-128816033D01*
X142216667Y-128816033D02*
X141950000Y-128816033D01*
X141950000Y-128816033D02*
X141950000Y-128116033D01*
X141950000Y-128116033D02*
X142183334Y-128116033D01*
X142183334Y-128116033D02*
X142250000Y-128149366D01*
X142250000Y-128149366D02*
X142283334Y-128182700D01*
X142283334Y-128182700D02*
X142316667Y-128249366D01*
X142316667Y-128249366D02*
X142316667Y-128316033D01*
X142316667Y-128316033D02*
X142283334Y-128382700D01*
X142283334Y-128382700D02*
X142250000Y-128416033D01*
X142250000Y-128416033D02*
X142183334Y-128449366D01*
X142183334Y-128449366D02*
X141950000Y-128449366D01*
X142650000Y-128116033D02*
X142650000Y-128682700D01*
X142650000Y-128682700D02*
X142683334Y-128749366D01*
X142683334Y-128749366D02*
X142716667Y-128782700D01*
X142716667Y-128782700D02*
X142783334Y-128816033D01*
X142783334Y-128816033D02*
X142916667Y-128816033D01*
X142916667Y-128816033D02*
X142983334Y-128782700D01*
X142983334Y-128782700D02*
X143016667Y-128749366D01*
X143016667Y-128749366D02*
X143050000Y-128682700D01*
X143050000Y-128682700D02*
X143050000Y-128116033D01*
X143783333Y-128749366D02*
X143750000Y-128782700D01*
X143750000Y-128782700D02*
X143650000Y-128816033D01*
X143650000Y-128816033D02*
X143583333Y-128816033D01*
X143583333Y-128816033D02*
X143483333Y-128782700D01*
X143483333Y-128782700D02*
X143416667Y-128716033D01*
X143416667Y-128716033D02*
X143383333Y-128649366D01*
X143383333Y-128649366D02*
X143350000Y-128516033D01*
X143350000Y-128516033D02*
X143350000Y-128416033D01*
X143350000Y-128416033D02*
X143383333Y-128282700D01*
X143383333Y-128282700D02*
X143416667Y-128216033D01*
X143416667Y-128216033D02*
X143483333Y-128149366D01*
X143483333Y-128149366D02*
X143583333Y-128116033D01*
X143583333Y-128116033D02*
X143650000Y-128116033D01*
X143650000Y-128116033D02*
X143750000Y-128149366D01*
X143750000Y-128149366D02*
X143783333Y-128182700D01*
X144083333Y-128816033D02*
X144083333Y-128116033D01*
X144483333Y-128816033D02*
X144183333Y-128416033D01*
X144483333Y-128116033D02*
X144083333Y-128516033D01*
X144616667Y-128882700D02*
X145150000Y-128882700D01*
X145316666Y-128816033D02*
X145316666Y-128116033D01*
X145649999Y-128816033D02*
X145649999Y-128116033D01*
X145649999Y-128116033D02*
X146049999Y-128816033D01*
X146049999Y-128816033D02*
X146049999Y-128116033D01*
X143450000Y-112616033D02*
X143450000Y-113116033D01*
X143450000Y-113116033D02*
X143416667Y-113216033D01*
X143416667Y-113216033D02*
X143350000Y-113282700D01*
X143350000Y-113282700D02*
X143250000Y-113316033D01*
X143250000Y-113316033D02*
X143183334Y-113316033D01*
X143616667Y-113382700D02*
X144150000Y-113382700D01*
X144650000Y-112616033D02*
X144316666Y-112616033D01*
X144316666Y-112616033D02*
X144283333Y-112949366D01*
X144283333Y-112949366D02*
X144316666Y-112916033D01*
X144316666Y-112916033D02*
X144383333Y-112882700D01*
X144383333Y-112882700D02*
X144550000Y-112882700D01*
X144550000Y-112882700D02*
X144616666Y-112916033D01*
X144616666Y-112916033D02*
X144650000Y-112949366D01*
X144650000Y-112949366D02*
X144683333Y-113016033D01*
X144683333Y-113016033D02*
X144683333Y-113182700D01*
X144683333Y-113182700D02*
X144650000Y-113249366D01*
X144650000Y-113249366D02*
X144616666Y-113282700D01*
X144616666Y-113282700D02*
X144550000Y-113316033D01*
X144550000Y-113316033D02*
X144383333Y-113316033D01*
X144383333Y-113316033D02*
X144316666Y-113282700D01*
X144316666Y-113282700D02*
X144283333Y-113249366D01*
X144883333Y-112616033D02*
X145116667Y-113316033D01*
X145116667Y-113316033D02*
X145350000Y-112616033D01*
X132450000Y-102316033D02*
X132050000Y-102316033D01*
X132250000Y-102316033D02*
X132250000Y-101616033D01*
X132250000Y-101616033D02*
X132183333Y-101716033D01*
X132183333Y-101716033D02*
X132116667Y-101782700D01*
X132116667Y-101782700D02*
X132050000Y-101816033D01*
X132883334Y-101616033D02*
X132950000Y-101616033D01*
X132950000Y-101616033D02*
X133016667Y-101649366D01*
X133016667Y-101649366D02*
X133050000Y-101682700D01*
X133050000Y-101682700D02*
X133083334Y-101749366D01*
X133083334Y-101749366D02*
X133116667Y-101882700D01*
X133116667Y-101882700D02*
X133116667Y-102049366D01*
X133116667Y-102049366D02*
X133083334Y-102182700D01*
X133083334Y-102182700D02*
X133050000Y-102249366D01*
X133050000Y-102249366D02*
X133016667Y-102282700D01*
X133016667Y-102282700D02*
X132950000Y-102316033D01*
X132950000Y-102316033D02*
X132883334Y-102316033D01*
X132883334Y-102316033D02*
X132816667Y-102282700D01*
X132816667Y-102282700D02*
X132783334Y-102249366D01*
X132783334Y-102249366D02*
X132750000Y-102182700D01*
X132750000Y-102182700D02*
X132716667Y-102049366D01*
X132716667Y-102049366D02*
X132716667Y-101882700D01*
X132716667Y-101882700D02*
X132750000Y-101749366D01*
X132750000Y-101749366D02*
X132783334Y-101682700D01*
X132783334Y-101682700D02*
X132816667Y-101649366D01*
X132816667Y-101649366D02*
X132883334Y-101616033D01*
X133416667Y-101849366D02*
X133416667Y-102549366D01*
X133750001Y-102216033D02*
X133783334Y-102282700D01*
X133783334Y-102282700D02*
X133850001Y-102316033D01*
X133416667Y-102216033D02*
X133450001Y-102282700D01*
X133450001Y-102282700D02*
X133516667Y-102316033D01*
X133516667Y-102316033D02*
X133650001Y-102316033D01*
X133650001Y-102316033D02*
X133716667Y-102282700D01*
X133716667Y-102282700D02*
X133750001Y-102216033D01*
X133750001Y-102216033D02*
X133750001Y-101849366D01*
X134383334Y-101949366D02*
X134150000Y-101949366D01*
X134150000Y-102316033D02*
X134150000Y-101616033D01*
X134150000Y-101616033D02*
X134483334Y-101616033D01*
X111912500Y-140246033D02*
X111512500Y-140246033D01*
X111712500Y-140246033D02*
X111712500Y-139546033D01*
X111712500Y-139546033D02*
X111645833Y-139646033D01*
X111645833Y-139646033D02*
X111579167Y-139712700D01*
X111579167Y-139712700D02*
X111512500Y-139746033D01*
X112345834Y-139546033D02*
X112412500Y-139546033D01*
X112412500Y-139546033D02*
X112479167Y-139579366D01*
X112479167Y-139579366D02*
X112512500Y-139612700D01*
X112512500Y-139612700D02*
X112545834Y-139679366D01*
X112545834Y-139679366D02*
X112579167Y-139812700D01*
X112579167Y-139812700D02*
X112579167Y-139979366D01*
X112579167Y-139979366D02*
X112545834Y-140112700D01*
X112545834Y-140112700D02*
X112512500Y-140179366D01*
X112512500Y-140179366D02*
X112479167Y-140212700D01*
X112479167Y-140212700D02*
X112412500Y-140246033D01*
X112412500Y-140246033D02*
X112345834Y-140246033D01*
X112345834Y-140246033D02*
X112279167Y-140212700D01*
X112279167Y-140212700D02*
X112245834Y-140179366D01*
X112245834Y-140179366D02*
X112212500Y-140112700D01*
X112212500Y-140112700D02*
X112179167Y-139979366D01*
X112179167Y-139979366D02*
X112179167Y-139812700D01*
X112179167Y-139812700D02*
X112212500Y-139679366D01*
X112212500Y-139679366D02*
X112245834Y-139612700D01*
X112245834Y-139612700D02*
X112279167Y-139579366D01*
X112279167Y-139579366D02*
X112345834Y-139546033D01*
X112879167Y-139779366D02*
X112879167Y-140479366D01*
X113212501Y-140146033D02*
X113245834Y-140212700D01*
X113245834Y-140212700D02*
X113312501Y-140246033D01*
X112879167Y-140146033D02*
X112912501Y-140212700D01*
X112912501Y-140212700D02*
X112979167Y-140246033D01*
X112979167Y-140246033D02*
X113112501Y-140246033D01*
X113112501Y-140246033D02*
X113179167Y-140212700D01*
X113179167Y-140212700D02*
X113212501Y-140146033D01*
X113212501Y-140146033D02*
X113212501Y-139779366D01*
X113845834Y-139879366D02*
X113612500Y-139879366D01*
X113612500Y-140246033D02*
X113612500Y-139546033D01*
X113612500Y-139546033D02*
X113945834Y-139546033D01*
X118249999Y-111116033D02*
X118583332Y-111116033D01*
X118183332Y-111316033D02*
X118416666Y-110616033D01*
X118416666Y-110616033D02*
X118649999Y-111316033D01*
X118883332Y-111316033D02*
X118883332Y-110616033D01*
X118883332Y-110616033D02*
X119116666Y-111116033D01*
X119116666Y-111116033D02*
X119349999Y-110616033D01*
X119349999Y-110616033D02*
X119349999Y-111316033D01*
X119649999Y-111282700D02*
X119749999Y-111316033D01*
X119749999Y-111316033D02*
X119916666Y-111316033D01*
X119916666Y-111316033D02*
X119983332Y-111282700D01*
X119983332Y-111282700D02*
X120016666Y-111249366D01*
X120016666Y-111249366D02*
X120049999Y-111182700D01*
X120049999Y-111182700D02*
X120049999Y-111116033D01*
X120049999Y-111116033D02*
X120016666Y-111049366D01*
X120016666Y-111049366D02*
X119983332Y-111016033D01*
X119983332Y-111016033D02*
X119916666Y-110982700D01*
X119916666Y-110982700D02*
X119783332Y-110949366D01*
X119783332Y-110949366D02*
X119716666Y-110916033D01*
X119716666Y-110916033D02*
X119683332Y-110882700D01*
X119683332Y-110882700D02*
X119649999Y-110816033D01*
X119649999Y-110816033D02*
X119649999Y-110749366D01*
X119649999Y-110749366D02*
X119683332Y-110682700D01*
X119683332Y-110682700D02*
X119716666Y-110649366D01*
X119716666Y-110649366D02*
X119783332Y-110616033D01*
X119783332Y-110616033D02*
X119949999Y-110616033D01*
X119949999Y-110616033D02*
X120049999Y-110649366D01*
X120716666Y-111316033D02*
X120316666Y-111316033D01*
X120516666Y-111316033D02*
X120516666Y-110616033D01*
X120516666Y-110616033D02*
X120449999Y-110716033D01*
X120449999Y-110716033D02*
X120383333Y-110782700D01*
X120383333Y-110782700D02*
X120316666Y-110816033D01*
X121383333Y-111316033D02*
X120983333Y-111316033D01*
X121183333Y-111316033D02*
X121183333Y-110616033D01*
X121183333Y-110616033D02*
X121116666Y-110716033D01*
X121116666Y-110716033D02*
X121050000Y-110782700D01*
X121050000Y-110782700D02*
X120983333Y-110816033D01*
X122050000Y-111316033D02*
X121650000Y-111316033D01*
X121850000Y-111316033D02*
X121850000Y-110616033D01*
X121850000Y-110616033D02*
X121783333Y-110716033D01*
X121783333Y-110716033D02*
X121716667Y-110782700D01*
X121716667Y-110782700D02*
X121650000Y-110816033D01*
X122283334Y-110616033D02*
X122750000Y-110616033D01*
X122750000Y-110616033D02*
X122450000Y-111316033D01*
X123016667Y-111049366D02*
X123550001Y-111049366D01*
X123816668Y-110616033D02*
X124250001Y-110616033D01*
X124250001Y-110616033D02*
X124016668Y-110882700D01*
X124016668Y-110882700D02*
X124116668Y-110882700D01*
X124116668Y-110882700D02*
X124183334Y-110916033D01*
X124183334Y-110916033D02*
X124216668Y-110949366D01*
X124216668Y-110949366D02*
X124250001Y-111016033D01*
X124250001Y-111016033D02*
X124250001Y-111182700D01*
X124250001Y-111182700D02*
X124216668Y-111249366D01*
X124216668Y-111249366D02*
X124183334Y-111282700D01*
X124183334Y-111282700D02*
X124116668Y-111316033D01*
X124116668Y-111316033D02*
X123916668Y-111316033D01*
X123916668Y-111316033D02*
X123850001Y-111282700D01*
X123850001Y-111282700D02*
X123816668Y-111249366D01*
X124550001Y-111249366D02*
X124583335Y-111282700D01*
X124583335Y-111282700D02*
X124550001Y-111316033D01*
X124550001Y-111316033D02*
X124516668Y-111282700D01*
X124516668Y-111282700D02*
X124550001Y-111249366D01*
X124550001Y-111249366D02*
X124550001Y-111316033D01*
X124816668Y-110616033D02*
X125250001Y-110616033D01*
X125250001Y-110616033D02*
X125016668Y-110882700D01*
X125016668Y-110882700D02*
X125116668Y-110882700D01*
X125116668Y-110882700D02*
X125183334Y-110916033D01*
X125183334Y-110916033D02*
X125216668Y-110949366D01*
X125216668Y-110949366D02*
X125250001Y-111016033D01*
X125250001Y-111016033D02*
X125250001Y-111182700D01*
X125250001Y-111182700D02*
X125216668Y-111249366D01*
X125216668Y-111249366D02*
X125183334Y-111282700D01*
X125183334Y-111282700D02*
X125116668Y-111316033D01*
X125116668Y-111316033D02*
X124916668Y-111316033D01*
X124916668Y-111316033D02*
X124850001Y-111282700D01*
X124850001Y-111282700D02*
X124816668Y-111249366D01*
X113804166Y-111996033D02*
X113404166Y-111996033D01*
X113604166Y-111996033D02*
X113604166Y-111296033D01*
X113604166Y-111296033D02*
X113537499Y-111396033D01*
X113537499Y-111396033D02*
X113470833Y-111462700D01*
X113470833Y-111462700D02*
X113404166Y-111496033D01*
X114237500Y-111296033D02*
X114304166Y-111296033D01*
X114304166Y-111296033D02*
X114370833Y-111329366D01*
X114370833Y-111329366D02*
X114404166Y-111362700D01*
X114404166Y-111362700D02*
X114437500Y-111429366D01*
X114437500Y-111429366D02*
X114470833Y-111562700D01*
X114470833Y-111562700D02*
X114470833Y-111729366D01*
X114470833Y-111729366D02*
X114437500Y-111862700D01*
X114437500Y-111862700D02*
X114404166Y-111929366D01*
X114404166Y-111929366D02*
X114370833Y-111962700D01*
X114370833Y-111962700D02*
X114304166Y-111996033D01*
X114304166Y-111996033D02*
X114237500Y-111996033D01*
X114237500Y-111996033D02*
X114170833Y-111962700D01*
X114170833Y-111962700D02*
X114137500Y-111929366D01*
X114137500Y-111929366D02*
X114104166Y-111862700D01*
X114104166Y-111862700D02*
X114070833Y-111729366D01*
X114070833Y-111729366D02*
X114070833Y-111562700D01*
X114070833Y-111562700D02*
X114104166Y-111429366D01*
X114104166Y-111429366D02*
X114137500Y-111362700D01*
X114137500Y-111362700D02*
X114170833Y-111329366D01*
X114170833Y-111329366D02*
X114237500Y-111296033D01*
X114904167Y-111296033D02*
X114970833Y-111296033D01*
X114970833Y-111296033D02*
X115037500Y-111329366D01*
X115037500Y-111329366D02*
X115070833Y-111362700D01*
X115070833Y-111362700D02*
X115104167Y-111429366D01*
X115104167Y-111429366D02*
X115137500Y-111562700D01*
X115137500Y-111562700D02*
X115137500Y-111729366D01*
X115137500Y-111729366D02*
X115104167Y-111862700D01*
X115104167Y-111862700D02*
X115070833Y-111929366D01*
X115070833Y-111929366D02*
X115037500Y-111962700D01*
X115037500Y-111962700D02*
X114970833Y-111996033D01*
X114970833Y-111996033D02*
X114904167Y-111996033D01*
X114904167Y-111996033D02*
X114837500Y-111962700D01*
X114837500Y-111962700D02*
X114804167Y-111929366D01*
X114804167Y-111929366D02*
X114770833Y-111862700D01*
X114770833Y-111862700D02*
X114737500Y-111729366D01*
X114737500Y-111729366D02*
X114737500Y-111562700D01*
X114737500Y-111562700D02*
X114770833Y-111429366D01*
X114770833Y-111429366D02*
X114804167Y-111362700D01*
X114804167Y-111362700D02*
X114837500Y-111329366D01*
X114837500Y-111329366D02*
X114904167Y-111296033D01*
X115437500Y-111529366D02*
X115437500Y-111996033D01*
X115437500Y-111596033D02*
X115470834Y-111562700D01*
X115470834Y-111562700D02*
X115537500Y-111529366D01*
X115537500Y-111529366D02*
X115637500Y-111529366D01*
X115637500Y-111529366D02*
X115704167Y-111562700D01*
X115704167Y-111562700D02*
X115737500Y-111629366D01*
X115737500Y-111629366D02*
X115737500Y-111996033D01*
X116304167Y-111629366D02*
X116070833Y-111629366D01*
X116070833Y-111996033D02*
X116070833Y-111296033D01*
X116070833Y-111296033D02*
X116404167Y-111296033D01*
X130311905Y-129704819D02*
X130311905Y-128704819D01*
X130311905Y-128704819D02*
X130550000Y-128704819D01*
X130550000Y-128704819D02*
X130692857Y-128752438D01*
X130692857Y-128752438D02*
X130788095Y-128847676D01*
X130788095Y-128847676D02*
X130835714Y-128942914D01*
X130835714Y-128942914D02*
X130883333Y-129133390D01*
X130883333Y-129133390D02*
X130883333Y-129276247D01*
X130883333Y-129276247D02*
X130835714Y-129466723D01*
X130835714Y-129466723D02*
X130788095Y-129561961D01*
X130788095Y-129561961D02*
X130692857Y-129657200D01*
X130692857Y-129657200D02*
X130550000Y-129704819D01*
X130550000Y-129704819D02*
X130311905Y-129704819D01*
X131835714Y-129704819D02*
X131264286Y-129704819D01*
X131550000Y-129704819D02*
X131550000Y-128704819D01*
X131550000Y-128704819D02*
X131454762Y-128847676D01*
X131454762Y-128847676D02*
X131359524Y-128942914D01*
X131359524Y-128942914D02*
X131264286Y-128990533D01*
X117034819Y-92583333D02*
X117749104Y-92583333D01*
X117749104Y-92583333D02*
X117891961Y-92630952D01*
X117891961Y-92630952D02*
X117987200Y-92726190D01*
X117987200Y-92726190D02*
X118034819Y-92869047D01*
X118034819Y-92869047D02*
X118034819Y-92964285D01*
X117034819Y-92202380D02*
X117034819Y-91583333D01*
X117034819Y-91583333D02*
X117415771Y-91916666D01*
X117415771Y-91916666D02*
X117415771Y-91773809D01*
X117415771Y-91773809D02*
X117463390Y-91678571D01*
X117463390Y-91678571D02*
X117511009Y-91630952D01*
X117511009Y-91630952D02*
X117606247Y-91583333D01*
X117606247Y-91583333D02*
X117844342Y-91583333D01*
X117844342Y-91583333D02*
X117939580Y-91630952D01*
X117939580Y-91630952D02*
X117987200Y-91678571D01*
X117987200Y-91678571D02*
X118034819Y-91773809D01*
X118034819Y-91773809D02*
X118034819Y-92059523D01*
X118034819Y-92059523D02*
X117987200Y-92154761D01*
X117987200Y-92154761D02*
X117939580Y-92202380D01*
D12*
%TO.C,C1*%
X112241233Y-141240000D02*
X112533767Y-141240000D01*
X112241233Y-142260000D02*
X112533767Y-142260000D01*
%TO.C,J5*%
X91530000Y-115760000D02*
X102020000Y-115760000D01*
X91530000Y-118120000D02*
X91530000Y-115760000D01*
X91530000Y-126760000D02*
X91530000Y-118720000D01*
X92650000Y-115760000D02*
X92650000Y-126760000D01*
X100400000Y-115760000D02*
X100400000Y-126760000D01*
X102020000Y-115760000D02*
X102020000Y-126760000D01*
X102020000Y-126760000D02*
X91530000Y-126760000D01*
X91530000Y-118420000D02*
X90920000Y-118860000D01*
X90920000Y-117980000D01*
X91530000Y-118420000D01*
G36*
X91530000Y-118420000D02*
G01*
X90920000Y-118860000D01*
X90920000Y-117980000D01*
X91530000Y-118420000D01*
G37*
%TO.C,C4*%
X128466233Y-104740000D02*
X128758767Y-104740000D01*
X128466233Y-105760000D02*
X128758767Y-105760000D01*
%TO.C,J4*%
X91530000Y-131590000D02*
X102020000Y-131590000D01*
X91530000Y-133950000D02*
X91530000Y-131590000D01*
X91530000Y-142590000D02*
X91530000Y-134550000D01*
X92650000Y-131590000D02*
X92650000Y-142590000D01*
X100400000Y-131590000D02*
X100400000Y-142590000D01*
X102020000Y-131590000D02*
X102020000Y-142590000D01*
X102020000Y-142590000D02*
X91530000Y-142590000D01*
X91530000Y-134250000D02*
X90920000Y-134690000D01*
X90920000Y-133810000D01*
X91530000Y-134250000D01*
G36*
X91530000Y-134250000D02*
G01*
X90920000Y-134690000D01*
X90920000Y-133810000D01*
X91530000Y-134250000D01*
G37*
%TO.C,R1*%
X124495276Y-100227500D02*
X125004724Y-100227500D01*
X124495276Y-101272500D02*
X125004724Y-101272500D01*
%TO.C,J1*%
X95370000Y-101580000D02*
X96750000Y-101580000D01*
X95370000Y-102960000D02*
X95370000Y-101580000D01*
X95370000Y-104230000D02*
X95370000Y-106880000D01*
X95370000Y-104230000D02*
X98130000Y-104230000D01*
X95370000Y-106880000D02*
X98130000Y-106880000D01*
X98130000Y-104230000D02*
X98130000Y-106880000D01*
%TO.C,TP2*%
X132700000Y-92500000D02*
G75*
G02*
X130800000Y-92500000I-950000J0D01*
G01*
X130800000Y-92500000D02*
G75*
G02*
X132700000Y-92500000I950000J0D01*
G01*
%TO.C,J6*%
X136345000Y-93880000D02*
X136345000Y-92500000D01*
X137725000Y-93880000D02*
X136345000Y-93880000D01*
X138995000Y-91120000D02*
X141645000Y-91120000D01*
X138995000Y-93880000D02*
X138995000Y-91120000D01*
X138995000Y-93880000D02*
X141645000Y-93880000D01*
X141645000Y-93880000D02*
X141645000Y-91120000D01*
%TO.C,C3*%
X104632802Y-128435000D02*
X105432802Y-128435000D01*
X105032802Y-128035000D02*
X105032802Y-128835000D01*
X109042500Y-126670000D02*
X109042500Y-134830000D01*
X109082500Y-126670000D02*
X109082500Y-134830000D01*
X109122500Y-126671000D02*
X109122500Y-134829000D01*
X109162500Y-126672000D02*
X109162500Y-134828000D01*
X109202500Y-126673000D02*
X109202500Y-134827000D01*
X109242500Y-126675000D02*
X109242500Y-134825000D01*
X109282500Y-126677000D02*
X109282500Y-134823000D01*
X109322500Y-126680000D02*
X109322500Y-134820000D01*
X109362500Y-126682000D02*
X109362500Y-134818000D01*
X109402500Y-126686000D02*
X109402500Y-134814000D01*
X109442500Y-126689000D02*
X109442500Y-134811000D01*
X109482500Y-126694000D02*
X109482500Y-134806000D01*
X109522500Y-126698000D02*
X109522500Y-134802000D01*
X109562500Y-126703000D02*
X109562500Y-134797000D01*
X109602500Y-126708000D02*
X109602500Y-134792000D01*
X109642500Y-126714000D02*
X109642500Y-134786000D01*
X109682500Y-126720000D02*
X109682500Y-134780000D01*
X109722500Y-126727000D02*
X109722500Y-134773000D01*
X109762500Y-126733000D02*
X109762500Y-129710000D01*
X109762500Y-131790000D02*
X109762500Y-134767000D01*
X109802500Y-126741000D02*
X109802500Y-129710000D01*
X109802500Y-131790000D02*
X109802500Y-134759000D01*
X109842500Y-126748000D02*
X109842500Y-129710000D01*
X109842500Y-131790000D02*
X109842500Y-134752000D01*
X109882500Y-126757000D02*
X109882500Y-129710000D01*
X109882500Y-131790000D02*
X109882500Y-134743000D01*
X109922500Y-126765000D02*
X109922500Y-129710000D01*
X109922500Y-131790000D02*
X109922500Y-134735000D01*
X109962500Y-126774000D02*
X109962500Y-129710000D01*
X109962500Y-131790000D02*
X109962500Y-134726000D01*
X110002500Y-126783000D02*
X110002500Y-129710000D01*
X110002500Y-131790000D02*
X110002500Y-134717000D01*
X110042500Y-126793000D02*
X110042500Y-129710000D01*
X110042500Y-131790000D02*
X110042500Y-134707000D01*
X110082500Y-126803000D02*
X110082500Y-129710000D01*
X110082500Y-131790000D02*
X110082500Y-134697000D01*
X110122500Y-126814000D02*
X110122500Y-129710000D01*
X110122500Y-131790000D02*
X110122500Y-134686000D01*
X110162500Y-126825000D02*
X110162500Y-129710000D01*
X110162500Y-131790000D02*
X110162500Y-134675000D01*
X110202500Y-126837000D02*
X110202500Y-129710000D01*
X110202500Y-131790000D02*
X110202500Y-134663000D01*
X110242500Y-126849000D02*
X110242500Y-129710000D01*
X110242500Y-131790000D02*
X110242500Y-134651000D01*
X110282500Y-126861000D02*
X110282500Y-129710000D01*
X110282500Y-131790000D02*
X110282500Y-134639000D01*
X110322500Y-126874000D02*
X110322500Y-129710000D01*
X110322500Y-131790000D02*
X110322500Y-134626000D01*
X110362500Y-126887000D02*
X110362500Y-129710000D01*
X110362500Y-131790000D02*
X110362500Y-134613000D01*
X110402500Y-126901000D02*
X110402500Y-129710000D01*
X110402500Y-131790000D02*
X110402500Y-134599000D01*
X110442500Y-126915000D02*
X110442500Y-129710000D01*
X110442500Y-131790000D02*
X110442500Y-134585000D01*
X110482500Y-126930000D02*
X110482500Y-129710000D01*
X110482500Y-131790000D02*
X110482500Y-134570000D01*
X110522500Y-126945000D02*
X110522500Y-129710000D01*
X110522500Y-131790000D02*
X110522500Y-134555000D01*
X110562500Y-126961000D02*
X110562500Y-129710000D01*
X110562500Y-131790000D02*
X110562500Y-134539000D01*
X110602500Y-126977000D02*
X110602500Y-129710000D01*
X110602500Y-131790000D02*
X110602500Y-134523000D01*
X110642500Y-126993000D02*
X110642500Y-129710000D01*
X110642500Y-131790000D02*
X110642500Y-134507000D01*
X110682500Y-127010000D02*
X110682500Y-129710000D01*
X110682500Y-131790000D02*
X110682500Y-134490000D01*
X110722500Y-127028000D02*
X110722500Y-129710000D01*
X110722500Y-131790000D02*
X110722500Y-134472000D01*
X110762500Y-127046000D02*
X110762500Y-129710000D01*
X110762500Y-131790000D02*
X110762500Y-134454000D01*
X110802500Y-127065000D02*
X110802500Y-129710000D01*
X110802500Y-131790000D02*
X110802500Y-134435000D01*
X110842500Y-127084000D02*
X110842500Y-129710000D01*
X110842500Y-131790000D02*
X110842500Y-134416000D01*
X110882500Y-127104000D02*
X110882500Y-129710000D01*
X110882500Y-131790000D02*
X110882500Y-134396000D01*
X110922500Y-127124000D02*
X110922500Y-129710000D01*
X110922500Y-131790000D02*
X110922500Y-134376000D01*
X110962500Y-127145000D02*
X110962500Y-129710000D01*
X110962500Y-131790000D02*
X110962500Y-134355000D01*
X111002500Y-127166000D02*
X111002500Y-129710000D01*
X111002500Y-131790000D02*
X111002500Y-134334000D01*
X111042500Y-127188000D02*
X111042500Y-129710000D01*
X111042500Y-131790000D02*
X111042500Y-134312000D01*
X111082500Y-127211000D02*
X111082500Y-129710000D01*
X111082500Y-131790000D02*
X111082500Y-134289000D01*
X111122500Y-127234000D02*
X111122500Y-129710000D01*
X111122500Y-131790000D02*
X111122500Y-134266000D01*
X111162500Y-127257000D02*
X111162500Y-129710000D01*
X111162500Y-131790000D02*
X111162500Y-134243000D01*
X111202500Y-127282000D02*
X111202500Y-129710000D01*
X111202500Y-131790000D02*
X111202500Y-134218000D01*
X111242500Y-127307000D02*
X111242500Y-129710000D01*
X111242500Y-131790000D02*
X111242500Y-134193000D01*
X111282500Y-127332000D02*
X111282500Y-129710000D01*
X111282500Y-131790000D02*
X111282500Y-134168000D01*
X111322500Y-127358000D02*
X111322500Y-129710000D01*
X111322500Y-131790000D02*
X111322500Y-134142000D01*
X111362500Y-127385000D02*
X111362500Y-129710000D01*
X111362500Y-131790000D02*
X111362500Y-134115000D01*
X111402500Y-127413000D02*
X111402500Y-129710000D01*
X111402500Y-131790000D02*
X111402500Y-134087000D01*
X111442500Y-127441000D02*
X111442500Y-129710000D01*
X111442500Y-131790000D02*
X111442500Y-134059000D01*
X111482500Y-127470000D02*
X111482500Y-129710000D01*
X111482500Y-131790000D02*
X111482500Y-134030000D01*
X111522500Y-127500000D02*
X111522500Y-129710000D01*
X111522500Y-131790000D02*
X111522500Y-134000000D01*
X111562500Y-127531000D02*
X111562500Y-129710000D01*
X111562500Y-131790000D02*
X111562500Y-133969000D01*
X111602500Y-127562000D02*
X111602500Y-129710000D01*
X111602500Y-131790000D02*
X111602500Y-133938000D01*
X111642500Y-127594000D02*
X111642500Y-129710000D01*
X111642500Y-131790000D02*
X111642500Y-133906000D01*
X111682500Y-127627000D02*
X111682500Y-129710000D01*
X111682500Y-131790000D02*
X111682500Y-133873000D01*
X111722500Y-127661000D02*
X111722500Y-129710000D01*
X111722500Y-131790000D02*
X111722500Y-133839000D01*
X111762500Y-127695000D02*
X111762500Y-129710000D01*
X111762500Y-131790000D02*
X111762500Y-133805000D01*
X111802500Y-127731000D02*
X111802500Y-129710000D01*
X111802500Y-131790000D02*
X111802500Y-133769000D01*
X111842500Y-127768000D02*
X111842500Y-133732000D01*
X111882500Y-127805000D02*
X111882500Y-133695000D01*
X111922500Y-127844000D02*
X111922500Y-133656000D01*
X111962500Y-127883000D02*
X111962500Y-133617000D01*
X112002500Y-127924000D02*
X112002500Y-133576000D01*
X112042500Y-127966000D02*
X112042500Y-133534000D01*
X112082500Y-128009000D02*
X112082500Y-133491000D01*
X112122500Y-128054000D02*
X112122500Y-133446000D01*
X112162500Y-128099000D02*
X112162500Y-133401000D01*
X112202500Y-128146000D02*
X112202500Y-133354000D01*
X112242500Y-128195000D02*
X112242500Y-133305000D01*
X112282500Y-128245000D02*
X112282500Y-133255000D01*
X112322500Y-128297000D02*
X112322500Y-133203000D01*
X112362500Y-128350000D02*
X112362500Y-133150000D01*
X112402500Y-128406000D02*
X112402500Y-133094000D01*
X112442500Y-128463000D02*
X112442500Y-133037000D01*
X112482500Y-128523000D02*
X112482500Y-132977000D01*
X112522500Y-128585000D02*
X112522500Y-132915000D01*
X112562500Y-128649000D02*
X112562500Y-132851000D01*
X112602500Y-128716000D02*
X112602500Y-132784000D01*
X112642500Y-128786000D02*
X112642500Y-132714000D01*
X112682500Y-128860000D02*
X112682500Y-132640000D01*
X112722500Y-128937000D02*
X112722500Y-132563000D01*
X112762500Y-129019000D02*
X112762500Y-132481000D01*
X112802500Y-129106000D02*
X112802500Y-132394000D01*
X112842500Y-129198000D02*
X112842500Y-132302000D01*
X112882500Y-129297000D02*
X112882500Y-132203000D01*
X112922500Y-129404000D02*
X112922500Y-132096000D01*
X112962500Y-129522000D02*
X112962500Y-131978000D01*
X113002500Y-129653000D02*
X113002500Y-131847000D01*
X113042500Y-129803000D02*
X113042500Y-131697000D01*
X113082500Y-129982000D02*
X113082500Y-131518000D01*
X113122500Y-130217000D02*
X113122500Y-131283000D01*
X113162500Y-130750000D02*
G75*
G02*
X104922500Y-130750000I-4120000J0D01*
G01*
X104922500Y-130750000D02*
G75*
G02*
X113162500Y-130750000I4120000J0D01*
G01*
%TO.C,J7*%
X115492500Y-136700000D02*
X115492500Y-135650000D01*
X115692500Y-135850000D02*
X118292500Y-135850000D01*
X115692500Y-150550000D02*
X115692500Y-135850000D01*
X116542500Y-135650000D02*
X115492500Y-135650000D01*
X122192500Y-135850000D02*
X124892500Y-135850000D01*
X124892500Y-135850000D02*
X124892500Y-137750000D01*
X124892500Y-141750000D02*
X124892500Y-150550000D01*
X124892500Y-150550000D02*
X115692500Y-150550000D01*
%TO.C,TP3*%
X103950000Y-93000000D02*
G75*
G02*
X102050000Y-93000000I-950000J0D01*
G01*
X102050000Y-93000000D02*
G75*
G02*
X103950000Y-93000000I950000J0D01*
G01*
%TO.C,D3*%
X126275000Y-98460000D02*
X129135000Y-98460000D01*
X129135000Y-96540000D02*
X126275000Y-96540000D01*
X129135000Y-98460000D02*
X129135000Y-96540000D01*
%TO.C,TP1*%
X107200000Y-147250000D02*
G75*
G02*
X105300000Y-147250000I-950000J0D01*
G01*
X105300000Y-147250000D02*
G75*
G02*
X107200000Y-147250000I950000J0D01*
G01*
%TO.C,C6*%
X113738748Y-106515000D02*
X114261252Y-106515000D01*
X113738748Y-107985000D02*
X114261252Y-107985000D01*
%TO.C,J8*%
X139230000Y-100160000D02*
X149720000Y-100160000D01*
X139230000Y-111160000D02*
X139230000Y-100160000D01*
X140850000Y-111160000D02*
X140850000Y-100160000D01*
X148600000Y-111160000D02*
X148600000Y-100160000D01*
X149720000Y-100160000D02*
X149720000Y-108200000D01*
X149720000Y-108800000D02*
X149720000Y-111160000D01*
X149720000Y-111160000D02*
X139230000Y-111160000D01*
X150330000Y-108940000D02*
X149720000Y-108500000D01*
X150330000Y-108060000D01*
X150330000Y-108940000D01*
G36*
X150330000Y-108940000D02*
G01*
X149720000Y-108500000D01*
X150330000Y-108060000D01*
X150330000Y-108940000D01*
G37*
%TO.C,C9*%
X135451248Y-109015000D02*
X135973752Y-109015000D01*
X135451248Y-110485000D02*
X135973752Y-110485000D01*
%TO.C,D2*%
X127340000Y-144100000D02*
X127340000Y-148400000D01*
X127340000Y-144100000D02*
X134750000Y-144100000D01*
X127340000Y-148400000D02*
X134750000Y-148400000D01*
%TO.C,C8*%
X135603733Y-106490000D02*
X135896267Y-106490000D01*
X135603733Y-107510000D02*
X135896267Y-107510000D01*
%TO.C,J9*%
X138980000Y-130410000D02*
X149470000Y-130410000D01*
X138980000Y-141410000D02*
X138980000Y-130410000D01*
X140600000Y-141410000D02*
X140600000Y-130410000D01*
X148350000Y-141410000D02*
X148350000Y-130410000D01*
X149470000Y-130410000D02*
X149470000Y-138450000D01*
X149470000Y-139050000D02*
X149470000Y-141410000D01*
X149470000Y-141410000D02*
X138980000Y-141410000D01*
X150080000Y-139190000D02*
X149470000Y-138750000D01*
X150080000Y-138310000D01*
X150080000Y-139190000D01*
G36*
X150080000Y-139190000D02*
G01*
X149470000Y-138750000D01*
X150080000Y-138310000D01*
X150080000Y-139190000D01*
G37*
%TO.C,J2*%
X138980000Y-114910000D02*
X149470000Y-114910000D01*
X138980000Y-125910000D02*
X138980000Y-114910000D01*
X140600000Y-125910000D02*
X140600000Y-114910000D01*
X148350000Y-125910000D02*
X148350000Y-114910000D01*
X149470000Y-114910000D02*
X149470000Y-122950000D01*
X149470000Y-123550000D02*
X149470000Y-125910000D01*
X149470000Y-125910000D02*
X138980000Y-125910000D01*
X150080000Y-123690000D02*
X149470000Y-123250000D01*
X150080000Y-122810000D01*
X150080000Y-123690000D01*
G36*
X150080000Y-123690000D02*
G01*
X149470000Y-123250000D01*
X150080000Y-122810000D01*
X150080000Y-123690000D01*
G37*
%TO.C,C5*%
X129238748Y-101515000D02*
X129761252Y-101515000D01*
X129238748Y-102985000D02*
X129761252Y-102985000D01*
%TO.C,C2*%
X112451248Y-137515000D02*
X112973752Y-137515000D01*
X112451248Y-138985000D02*
X112973752Y-138985000D01*
%TO.C,U2*%
X119690000Y-102790000D02*
X119690000Y-104050000D01*
X119690000Y-109610000D02*
X119690000Y-108350000D01*
X123450000Y-102790000D02*
X119690000Y-102790000D01*
X123450000Y-109610000D02*
X119690000Y-109610000D01*
X124970000Y-109840000D02*
X124490000Y-109840000D01*
X124730000Y-109510000D01*
X124970000Y-109840000D01*
G36*
X124970000Y-109840000D02*
G01*
X124490000Y-109840000D01*
X124730000Y-109510000D01*
X124970000Y-109840000D01*
G37*
%TO.C,F1*%
X117571248Y-125330000D02*
X121978752Y-125330000D01*
X117571248Y-130670000D02*
X121978752Y-130670000D01*
%TO.C,C7*%
X114741233Y-109740000D02*
X115033767Y-109740000D01*
X114741233Y-110760000D02*
X115033767Y-110760000D01*
%TO.C,D1*%
X126340000Y-130100000D02*
X126340000Y-134400000D01*
X126340000Y-130100000D02*
X133750000Y-130100000D01*
X126340000Y-134400000D02*
X133750000Y-134400000D01*
%TO.C,J3*%
X118580000Y-93630000D02*
X118580000Y-92250000D01*
X119960000Y-93630000D02*
X118580000Y-93630000D01*
X121230000Y-90870000D02*
X123880000Y-90870000D01*
X121230000Y-93630000D02*
X121230000Y-90870000D01*
X121230000Y-93630000D02*
X123880000Y-93630000D01*
X123880000Y-93630000D02*
X123880000Y-90870000D01*
%TD*%
M02*
