%TF.GenerationSoftware,KiCad,Pcbnew,9.0.7*%
%TF.CreationDate,2026-05-10T13:42:04+02:00*%
%TF.ProjectId,pcb_capteurs,7063625f-6361-4707-9465-7572732e6b69,rev?*%
%TF.SameCoordinates,Original*%
%TF.FileFunction,Copper,L1,Top*%
%TF.FilePolarity,Positive*%
%FSLAX46Y46*%
G04 Gerber Fmt 4.6, Leading zero omitted, Abs format (unit mm)*
G04 Created by KiCad (PCBNEW 9.0.7) date 2026-05-10 13:42:04*
%MOMM*%
%LPD*%
G01*
G04 APERTURE LIST*
G04 Aperture macros list*
%AMRoundRect*
0 Rectangle with rounded corners*
0 $1 Rounding radius*
0 $2 $3 $4 $5 $6 $7 $8 $9 X,Y pos of 4 corners*
0 Add a 4 corners polygon primitive as box body*
4,1,4,$2,$3,$4,$5,$6,$7,$8,$9,$2,$3,0*
0 Add four circle primitives for the rounded corners*
1,1,$1+$1,$2,$3*
1,1,$1+$1,$4,$5*
1,1,$1+$1,$6,$7*
1,1,$1+$1,$8,$9*
0 Add four rect primitives between the rounded corners*
20,1,$1+$1,$2,$3,$4,$5,0*
20,1,$1+$1,$4,$5,$6,$7,0*
20,1,$1+$1,$6,$7,$8,$9,0*
20,1,$1+$1,$8,$9,$2,$3,0*%
G04 Aperture macros list end*
%TA.AperFunction,SMDPad,CuDef*%
%ADD10RoundRect,0.237500X-0.300000X-0.237500X0.300000X-0.237500X0.300000X0.237500X-0.300000X0.237500X0*%
%TD*%
%TA.AperFunction,SMDPad,CuDef*%
%ADD11RoundRect,0.250000X0.900000X-1.500000X0.900000X1.500000X-0.900000X1.500000X-0.900000X-1.500000X0*%
%TD*%
%TA.AperFunction,SMDPad,CuDef*%
%ADD12RoundRect,0.237500X-0.250000X-0.237500X0.250000X-0.237500X0.250000X0.237500X-0.250000X0.237500X0*%
%TD*%
%TA.AperFunction,SMDPad,CuDef*%
%ADD13RoundRect,0.237500X-0.237500X0.250000X-0.237500X-0.250000X0.237500X-0.250000X0.237500X0.250000X0*%
%TD*%
%TA.AperFunction,ComponentPad*%
%ADD14R,1.700000X1.700000*%
%TD*%
%TA.AperFunction,ComponentPad*%
%ADD15C,1.700000*%
%TD*%
%TA.AperFunction,ComponentPad*%
%ADD16C,5.600000*%
%TD*%
%TA.AperFunction,SMDPad,CuDef*%
%ADD17C,1.500000*%
%TD*%
%TA.AperFunction,SMDPad,CuDef*%
%ADD18RoundRect,0.237500X0.250000X0.237500X-0.250000X0.237500X-0.250000X-0.237500X0.250000X-0.237500X0*%
%TD*%
%TA.AperFunction,SMDPad,CuDef*%
%ADD19RoundRect,0.150000X-0.150000X0.825000X-0.150000X-0.825000X0.150000X-0.825000X0.150000X0.825000X0*%
%TD*%
%TA.AperFunction,ComponentPad*%
%ADD20R,1.500000X1.500000*%
%TD*%
%TA.AperFunction,ComponentPad*%
%ADD21C,1.500000*%
%TD*%
%TA.AperFunction,SMDPad,CuDef*%
%ADD22RoundRect,0.237500X0.300000X0.237500X-0.300000X0.237500X-0.300000X-0.237500X0.300000X-0.237500X0*%
%TD*%
%TA.AperFunction,ViaPad*%
%ADD23C,0.800000*%
%TD*%
%TA.AperFunction,Conductor*%
%ADD24C,0.400000*%
%TD*%
%TA.AperFunction,Conductor*%
%ADD25C,0.500000*%
%TD*%
G04 APERTURE END LIST*
D10*
%TO.P,C1,1*%
%TO.N,HUM_ADC*%
X187137500Y-69000000D03*
%TO.P,C1,2*%
%TO.N,GND*%
X188862500Y-69000000D03*
%TD*%
D11*
%TO.P,D1,1,A1*%
%TO.N,GND*%
X180000000Y-77750000D03*
%TO.P,D1,2,A2*%
%TO.N,Net-(D1-A2)*%
X180000000Y-72350000D03*
%TD*%
D10*
%TO.P,C5,1*%
%TO.N,LDR_ADC*%
X172137500Y-65500000D03*
%TO.P,C5,2*%
%TO.N,GND*%
X173862500Y-65500000D03*
%TD*%
D12*
%TO.P,R3,1*%
%TO.N,Net-(Q5-E)*%
X162675000Y-66000000D03*
%TO.P,R3,2*%
%TO.N,GND*%
X164500000Y-66000000D03*
%TD*%
D13*
%TO.P,R1,1*%
%TO.N,Net-(D1-A2)*%
X184000000Y-77250000D03*
%TO.P,R1,2*%
%TO.N,HUM_ADC*%
X184000000Y-79075000D03*
%TD*%
D12*
%TO.P,R2,1*%
%TO.N,Net-(U3B--)*%
X177175000Y-66000000D03*
%TO.P,R2,2*%
%TO.N,LDR_ADC*%
X179000000Y-66000000D03*
%TD*%
D14*
%TO.P,J6,1,Pin_1*%
%TO.N,GND*%
X158750000Y-70670000D03*
D15*
%TO.P,J6,2,Pin_2*%
%TO.N,+3.3V*%
X158750000Y-73210000D03*
%TO.P,J6,3,Pin_3*%
%TO.N,TEMP_DATA*%
X158750000Y-75750000D03*
%TD*%
D13*
%TO.P,R5,1*%
%TO.N,TEMP_DATA*%
X162250000Y-76175000D03*
%TO.P,R5,2*%
%TO.N,+3.3V*%
X162250000Y-78000000D03*
%TD*%
D16*
%TO.P,H2,1,1*%
%TO.N,GND*%
X188000000Y-53500000D03*
%TD*%
D17*
%TO.P,TP3,1,1*%
%TO.N,+3.3V*%
X179250000Y-51250000D03*
%TD*%
D18*
%TO.P,R6,1*%
%TO.N,Vref*%
X169912500Y-57500000D03*
%TO.P,R6,2*%
%TO.N,GND*%
X168087500Y-57500000D03*
%TD*%
D14*
%TO.P,J1,1,Pin_1*%
%TO.N,+3.3V*%
X167840000Y-85000000D03*
D15*
%TO.P,J1,2,Pin_2*%
%TO.N,TEMP_DATA*%
X170380000Y-85000000D03*
%TO.P,J1,3,Pin_3*%
%TO.N,LDR_ADC*%
X172920000Y-85000000D03*
%TO.P,J1,4,Pin_4*%
%TO.N,HUM_ADC*%
X175460000Y-85000000D03*
%TO.P,J1,5,Pin_5*%
%TO.N,GND*%
X178000000Y-85000000D03*
%TD*%
D14*
%TO.P,J7,1,Pin_1*%
%TO.N,Net-(D1-A2)*%
X187500000Y-77000000D03*
D15*
%TO.P,J7,2,Pin_2*%
%TO.N,+3.3V*%
X187500000Y-74460000D03*
%TO.P,J7,3,Pin_3*%
%TO.N,GND*%
X187500000Y-71920000D03*
%TD*%
D19*
%TO.P,U3,1*%
%TO.N,Net-(Q5-B)*%
X177655000Y-58025000D03*
%TO.P,U3,2,-*%
%TO.N,Net-(Q5-E)*%
X176385000Y-58025000D03*
%TO.P,U3,3,+*%
%TO.N,Vref*%
X175115000Y-58025000D03*
%TO.P,U3,4,V-*%
%TO.N,GND*%
X173845000Y-58025000D03*
%TO.P,U3,5,+*%
%TO.N,Net-(J5-Pin_1)*%
X173845000Y-62975000D03*
%TO.P,U3,6,-*%
%TO.N,Net-(U3B--)*%
X175115000Y-62975000D03*
%TO.P,U3,7*%
X176385000Y-62975000D03*
%TO.P,U3,8,V+*%
%TO.N,+3.3V*%
X177655000Y-62975000D03*
%TD*%
D20*
%TO.P,Q5,1,E*%
%TO.N,Net-(Q5-E)*%
X161920000Y-62500000D03*
D21*
%TO.P,Q5,2,B*%
%TO.N,Net-(Q5-B)*%
X164460000Y-62500000D03*
%TO.P,Q5,3,C*%
%TO.N,Net-(J5-Pin_1)*%
X167000000Y-62500000D03*
%TD*%
D16*
%TO.P,H4,1,1*%
%TO.N,GND*%
X158000000Y-83500000D03*
%TD*%
D17*
%TO.P,TP4,1,1*%
%TO.N,GND*%
X183000000Y-51250000D03*
%TD*%
D16*
%TO.P,H3,1,1*%
%TO.N,GND*%
X188000000Y-83500000D03*
%TD*%
D10*
%TO.P,C2,1*%
%TO.N,+3.3V*%
X162025000Y-73500000D03*
%TO.P,C2,2*%
%TO.N,GND*%
X163750000Y-73500000D03*
%TD*%
D16*
%TO.P,H1,1,1*%
%TO.N,GND*%
X158000000Y-53500000D03*
%TD*%
D22*
%TO.P,C3,1*%
%TO.N,+3.3V*%
X181750000Y-62500000D03*
%TO.P,C3,2*%
%TO.N,GND*%
X180025000Y-62500000D03*
%TD*%
D18*
%TO.P,R4,1*%
%TO.N,+3.3V*%
X171750000Y-54250000D03*
%TO.P,R4,2*%
%TO.N,Vref*%
X169925000Y-54250000D03*
%TD*%
D14*
%TO.P,J5,1,Pin_1*%
%TO.N,Net-(J5-Pin_1)*%
X156500000Y-64040000D03*
D15*
%TO.P,J5,2,Pin_2*%
%TO.N,+3.3V*%
X156500000Y-61500000D03*
%TD*%
D22*
%TO.P,C4,1*%
%TO.N,Vref*%
X176500000Y-54250000D03*
%TO.P,C4,2*%
%TO.N,GND*%
X174775000Y-54250000D03*
%TD*%
D23*
%TO.N,GND*%
X185000000Y-67000000D03*
X173250000Y-55250000D03*
X172000000Y-57500000D03*
X162500000Y-70000000D03*
X181500000Y-65000000D03*
X175500000Y-65500000D03*
%TO.N,LDR_ADC*%
X176654900Y-68499700D03*
%TD*%
D24*
%TO.N,HUM_ADC*%
X175460000Y-85000000D02*
X180260200Y-80199800D01*
X182875200Y-80199800D02*
X184000000Y-79075000D01*
X188851700Y-78057800D02*
X187834500Y-79075000D01*
X188851700Y-70714200D02*
X188851700Y-78057800D01*
X187137500Y-69000000D02*
X188851700Y-70714200D01*
X187834500Y-79075000D02*
X184000000Y-79075000D01*
X180260200Y-80199800D02*
X182875200Y-80199800D01*
D25*
%TO.N,GND*%
X185000000Y-69420000D02*
X187500000Y-71920000D01*
X180025000Y-63525000D02*
X181500000Y-65000000D01*
X173845000Y-58025000D02*
X172525000Y-58025000D01*
X158750000Y-70670000D02*
X161830000Y-70670000D01*
X180025000Y-62500000D02*
X180025000Y-63525000D01*
X173862500Y-65500000D02*
X175500000Y-65500000D01*
X172525000Y-58025000D02*
X172000000Y-57500000D01*
X185000000Y-67000000D02*
X185000000Y-69420000D01*
X161830000Y-70670000D02*
X162500000Y-70000000D01*
%TO.N,+3.3V*%
X177655000Y-62975000D02*
X177655000Y-62345000D01*
X182451000Y-69411000D02*
X182451000Y-63201000D01*
X187500000Y-74460000D02*
X182451000Y-69411000D01*
X170250000Y-52750000D02*
X165250000Y-52750000D01*
X167840000Y-83648300D02*
X162250000Y-78058300D01*
X174750000Y-51250000D02*
X179250000Y-51250000D01*
X157250000Y-78000000D02*
X156250000Y-77000000D01*
X162025000Y-73500000D02*
X159040000Y-73500000D01*
X156250000Y-77000000D02*
X156250000Y-75710000D01*
X165250000Y-52750000D02*
X156500000Y-61500000D01*
X159040000Y-73500000D02*
X158750000Y-73210000D01*
X179250000Y-51250000D02*
X179250000Y-60750000D01*
X162250000Y-78000000D02*
X157250000Y-78000000D01*
X171750000Y-54250000D02*
X170250000Y-52750000D01*
X162250000Y-78058300D02*
X162250000Y-78000000D01*
X179500000Y-61000000D02*
X180250000Y-61000000D01*
X179000000Y-61000000D02*
X179500000Y-61000000D01*
X167840000Y-85000000D02*
X167840000Y-83648300D01*
X177655000Y-62345000D02*
X179000000Y-61000000D01*
X182451000Y-63201000D02*
X181750000Y-62500000D01*
X179250000Y-60750000D02*
X179500000Y-61000000D01*
X171750000Y-54250000D02*
X174750000Y-51250000D01*
X180250000Y-61000000D02*
X181750000Y-62500000D01*
X156250000Y-75710000D02*
X158750000Y-73210000D01*
D24*
%TO.N,Vref*%
X169925000Y-54250000D02*
X169925000Y-55525400D01*
X176500000Y-54343700D02*
X176500000Y-54250000D01*
X169925000Y-55525400D02*
X169925000Y-56175000D01*
X170007700Y-56175000D02*
X171250000Y-56175000D01*
X175115000Y-57365100D02*
X175115000Y-58025000D01*
X169925000Y-56175000D02*
X170007700Y-56175000D01*
X174296800Y-56546900D02*
X175115000Y-57365100D01*
X174296800Y-56546900D02*
X176500000Y-54343700D01*
X171250000Y-56175000D02*
X171237500Y-56175000D01*
X171250000Y-56175000D02*
X173924900Y-56175000D01*
X173924900Y-56175000D02*
X174296800Y-56546900D01*
X171237500Y-56175000D02*
X169912500Y-57500000D01*
%TO.N,LDR_ADC*%
X173755900Y-66980900D02*
X176654900Y-66980900D01*
X172137500Y-65500000D02*
X172275000Y-65500000D01*
X176654900Y-68499700D02*
X176654900Y-66980900D01*
X172275000Y-65500000D02*
X173755900Y-66980900D01*
X178019100Y-66980900D02*
X179000000Y-66000000D01*
X176654900Y-66980900D02*
X178019100Y-66980900D01*
%TO.N,Net-(D1-A2)*%
X187500000Y-77000000D02*
X184250000Y-77000000D01*
X184250000Y-77000000D02*
X184000000Y-77250000D01*
X184250000Y-76600000D02*
X184250000Y-77000000D01*
X180000000Y-72350000D02*
X184250000Y-76600000D01*
%TO.N,TEMP_DATA*%
X170380000Y-84305000D02*
X162250000Y-76175000D01*
X170380000Y-85000000D02*
X170380000Y-84305000D01*
X161825000Y-75750000D02*
X162250000Y-76175000D01*
X158750000Y-75750000D02*
X161825000Y-75750000D01*
%TO.N,Net-(J5-Pin_1)*%
X167000000Y-62500000D02*
X173370000Y-62500000D01*
X156500000Y-64040000D02*
X157540000Y-64040000D01*
X157540000Y-64040000D02*
X162000000Y-68500000D01*
X167000000Y-67000000D02*
X167000000Y-62500000D01*
X165500000Y-68500000D02*
X167000000Y-67000000D01*
X162000000Y-68500000D02*
X165500000Y-68500000D01*
X173370000Y-62500000D02*
X173845000Y-62975000D01*
%TO.N,Net-(Q5-E)*%
X161920000Y-65245000D02*
X161920000Y-62500000D01*
X161920000Y-62500000D02*
X163171700Y-62500000D01*
X163171700Y-61952400D02*
X163171700Y-62500000D01*
X162675000Y-66000000D02*
X161920000Y-65245000D01*
X176385000Y-58652500D02*
X175503400Y-59534100D01*
X176385000Y-58025000D02*
X176385000Y-58652500D01*
X165590000Y-59534100D02*
X163171700Y-61952400D01*
X175503400Y-59534100D02*
X165590000Y-59534100D01*
%TO.N,Net-(Q5-B)*%
X164460000Y-62500000D02*
X165711700Y-61248300D01*
X175129300Y-61248300D02*
X177655000Y-58722600D01*
X177655000Y-58722600D02*
X177655000Y-58025000D01*
X165711700Y-61248300D02*
X175129300Y-61248300D01*
%TO.N,Net-(U3B--)*%
X176385000Y-65210000D02*
X177175000Y-66000000D01*
X176385000Y-62975000D02*
X176385000Y-65210000D01*
X175750000Y-62975000D02*
X175115000Y-62975000D01*
X176385000Y-62975000D02*
X175750000Y-62975000D01*
%TD*%
%TA.AperFunction,Conductor*%
%TO.N,GND*%
G36*
X168968574Y-53520185D02*
G01*
X169014329Y-53572989D01*
X169024273Y-53642147D01*
X169007074Y-53689597D01*
X169001593Y-53698481D01*
X169001591Y-53698486D01*
X168974219Y-53781088D01*
X168947326Y-53862247D01*
X168947326Y-53862248D01*
X168947325Y-53862248D01*
X168937000Y-53963315D01*
X168937000Y-54536669D01*
X168937001Y-54536687D01*
X168947325Y-54637752D01*
X168983609Y-54747249D01*
X169001520Y-54801300D01*
X169001592Y-54801515D01*
X169001593Y-54801518D01*
X169092161Y-54948351D01*
X169188181Y-55044371D01*
X169221666Y-55105694D01*
X169224500Y-55132052D01*
X169224500Y-55456407D01*
X169224500Y-56106006D01*
X169224500Y-56106007D01*
X169224500Y-56243993D01*
X169224500Y-56243995D01*
X169224499Y-56243995D01*
X169251418Y-56379322D01*
X169251421Y-56379332D01*
X169299968Y-56496535D01*
X169307437Y-56566004D01*
X169276162Y-56628483D01*
X169266997Y-56637363D01*
X169259250Y-56644131D01*
X169201650Y-56679660D01*
X169084381Y-56796928D01*
X169081236Y-56799677D01*
X169053152Y-56812643D01*
X169026004Y-56827467D01*
X169021710Y-56827159D01*
X169017801Y-56828965D01*
X168987162Y-56824689D01*
X168956312Y-56822483D01*
X168952140Y-56819801D01*
X168948602Y-56819308D01*
X168940383Y-56812246D01*
X168911965Y-56793982D01*
X168798038Y-56680055D01*
X168798034Y-56680052D01*
X168651311Y-56589551D01*
X168651300Y-56589546D01*
X168487652Y-56535319D01*
X168386654Y-56525000D01*
X168337500Y-56525000D01*
X168337500Y-58474999D01*
X168386640Y-58474999D01*
X168386654Y-58474998D01*
X168487652Y-58464680D01*
X168651300Y-58410453D01*
X168651311Y-58410448D01*
X168798033Y-58319948D01*
X168911964Y-58206017D01*
X168973287Y-58172532D01*
X169042979Y-58177516D01*
X169087327Y-58206017D01*
X169201650Y-58320340D01*
X169348484Y-58410908D01*
X169512247Y-58465174D01*
X169613323Y-58475500D01*
X170211676Y-58475499D01*
X170211684Y-58475498D01*
X170211687Y-58475498D01*
X170267030Y-58469844D01*
X170312753Y-58465174D01*
X170476516Y-58410908D01*
X170623350Y-58320340D01*
X170745340Y-58198350D01*
X170835908Y-58051516D01*
X170890174Y-57887753D01*
X170900500Y-57786677D01*
X170900499Y-57554018D01*
X170920183Y-57486979D01*
X170936813Y-57466342D01*
X171491338Y-56911819D01*
X171552661Y-56878334D01*
X171579019Y-56875500D01*
X172947247Y-56875500D01*
X173014286Y-56895185D01*
X173060041Y-56947989D01*
X173069985Y-57017147D01*
X173066323Y-57034095D01*
X173047900Y-57097504D01*
X173047899Y-57097510D01*
X173045000Y-57134350D01*
X173045000Y-57775000D01*
X173721000Y-57775000D01*
X173788039Y-57794685D01*
X173833794Y-57847489D01*
X173845000Y-57899000D01*
X173845000Y-58151000D01*
X173825315Y-58218039D01*
X173772511Y-58263794D01*
X173721000Y-58275000D01*
X173045000Y-58275000D01*
X173045000Y-58709600D01*
X173025315Y-58776639D01*
X172972511Y-58822394D01*
X172921000Y-58833600D01*
X165521004Y-58833600D01*
X165385677Y-58860518D01*
X165385667Y-58860521D01*
X165258192Y-58913322D01*
X165143454Y-58989987D01*
X162906703Y-61226738D01*
X162845380Y-61260223D01*
X162785449Y-61255940D01*
X162785035Y-61257693D01*
X162777483Y-61255908D01*
X162717883Y-61249501D01*
X162717881Y-61249500D01*
X162717873Y-61249500D01*
X162717864Y-61249500D01*
X161122129Y-61249500D01*
X161122123Y-61249501D01*
X161062516Y-61255908D01*
X160927671Y-61306202D01*
X160927664Y-61306206D01*
X160812455Y-61392452D01*
X160812452Y-61392455D01*
X160726206Y-61507664D01*
X160726202Y-61507671D01*
X160675908Y-61642517D01*
X160669501Y-61702116D01*
X160669500Y-61702135D01*
X160669500Y-63297870D01*
X160669501Y-63297876D01*
X160675908Y-63357483D01*
X160726202Y-63492328D01*
X160726206Y-63492335D01*
X160812452Y-63607544D01*
X160812455Y-63607547D01*
X160927664Y-63693793D01*
X160927671Y-63693797D01*
X161062516Y-63744091D01*
X161108757Y-63749063D01*
X161173307Y-63775801D01*
X161213155Y-63833194D01*
X161219500Y-63872351D01*
X161219500Y-65176006D01*
X161219500Y-65313994D01*
X161219500Y-65313996D01*
X161219499Y-65313996D01*
X161246418Y-65449322D01*
X161246421Y-65449332D01*
X161299222Y-65576807D01*
X161375887Y-65691545D01*
X161375888Y-65691546D01*
X161650681Y-65966338D01*
X161684166Y-66027661D01*
X161687000Y-66054018D01*
X161687000Y-66286668D01*
X161687001Y-66286687D01*
X161697325Y-66387752D01*
X161722981Y-66465174D01*
X161751592Y-66551516D01*
X161842160Y-66698350D01*
X161964150Y-66820340D01*
X162110984Y-66910908D01*
X162274747Y-66965174D01*
X162375823Y-66975500D01*
X162974176Y-66975499D01*
X162974184Y-66975498D01*
X162974187Y-66975498D01*
X163029530Y-66969844D01*
X163075253Y-66965174D01*
X163239016Y-66910908D01*
X163385850Y-66820340D01*
X163500175Y-66706014D01*
X163561494Y-66672532D01*
X163631186Y-66677516D01*
X163675534Y-66706017D01*
X163789461Y-66819944D01*
X163789465Y-66819947D01*
X163936188Y-66910448D01*
X163936199Y-66910453D01*
X164099847Y-66964680D01*
X164200851Y-66974999D01*
X164750000Y-66974999D01*
X164799140Y-66974999D01*
X164799154Y-66974998D01*
X164900152Y-66964680D01*
X165063800Y-66910453D01*
X165063811Y-66910448D01*
X165210534Y-66819947D01*
X165210538Y-66819944D01*
X165332444Y-66698038D01*
X165332447Y-66698034D01*
X165422948Y-66551311D01*
X165422953Y-66551300D01*
X165477180Y-66387652D01*
X165487499Y-66286654D01*
X165487500Y-66286641D01*
X165487500Y-66250000D01*
X164750000Y-66250000D01*
X164750000Y-66974999D01*
X164200851Y-66974999D01*
X164249999Y-66974998D01*
X164250000Y-66974998D01*
X164250000Y-65750000D01*
X164750000Y-65750000D01*
X165487499Y-65750000D01*
X165487499Y-65713360D01*
X165487498Y-65713345D01*
X165477180Y-65612347D01*
X165422953Y-65448699D01*
X165422948Y-65448688D01*
X165332447Y-65301965D01*
X165332444Y-65301961D01*
X165210538Y-65180055D01*
X165210534Y-65180052D01*
X165063811Y-65089551D01*
X165063800Y-65089546D01*
X164900152Y-65035319D01*
X164799154Y-65025000D01*
X164750000Y-65025000D01*
X164750000Y-65750000D01*
X164250000Y-65750000D01*
X164250000Y-65025000D01*
X164249999Y-65024999D01*
X164200861Y-65025000D01*
X164200843Y-65025001D01*
X164099847Y-65035319D01*
X163936199Y-65089546D01*
X163936188Y-65089551D01*
X163789465Y-65180052D01*
X163675534Y-65293983D01*
X163614211Y-65327467D01*
X163544519Y-65322483D01*
X163500172Y-65293982D01*
X163385851Y-65179661D01*
X163385850Y-65179660D01*
X163276556Y-65112247D01*
X163239018Y-65089093D01*
X163239013Y-65089091D01*
X163237569Y-65088612D01*
X163075253Y-65034826D01*
X163075251Y-65034825D01*
X162974184Y-65024500D01*
X162974177Y-65024500D01*
X162744500Y-65024500D01*
X162677461Y-65004815D01*
X162631706Y-64952011D01*
X162620500Y-64900500D01*
X162620500Y-63872351D01*
X162640185Y-63805312D01*
X162692989Y-63759557D01*
X162731247Y-63749061D01*
X162777483Y-63744091D01*
X162912331Y-63693796D01*
X163027546Y-63607546D01*
X163113796Y-63492331D01*
X163164091Y-63357483D01*
X163169924Y-63303223D01*
X163179628Y-63279797D01*
X163185459Y-63255122D01*
X163192771Y-63248065D01*
X163196661Y-63238676D01*
X163217489Y-63224214D01*
X163235738Y-63206606D01*
X163250196Y-63201505D01*
X163254053Y-63198828D01*
X163269022Y-63194865D01*
X163322337Y-63184260D01*
X163391928Y-63190487D01*
X163446845Y-63232990D01*
X163506172Y-63314646D01*
X163645354Y-63453828D01*
X163804595Y-63569524D01*
X163863425Y-63599499D01*
X163979970Y-63658882D01*
X163979972Y-63658882D01*
X163979975Y-63658884D01*
X164080317Y-63691487D01*
X164167173Y-63719709D01*
X164361578Y-63750500D01*
X164361583Y-63750500D01*
X164558422Y-63750500D01*
X164752826Y-63719709D01*
X164832574Y-63693797D01*
X164940025Y-63658884D01*
X165115405Y-63569524D01*
X165274646Y-63453828D01*
X165413828Y-63314646D01*
X165529524Y-63155405D01*
X165582568Y-63051300D01*
X165619515Y-62978787D01*
X165667489Y-62927990D01*
X165735310Y-62911195D01*
X165801445Y-62933732D01*
X165840485Y-62978787D01*
X165930474Y-63155403D01*
X165962025Y-63198828D01*
X166046172Y-63314646D01*
X166185354Y-63453828D01*
X166248388Y-63499624D01*
X166291051Y-63554951D01*
X166299500Y-63599940D01*
X166299500Y-66658481D01*
X166279815Y-66725520D01*
X166263181Y-66746162D01*
X165246162Y-67763181D01*
X165184839Y-67796666D01*
X165158481Y-67799500D01*
X162341518Y-67799500D01*
X162274479Y-67779815D01*
X162253837Y-67763181D01*
X157986546Y-63495888D01*
X157986542Y-63495885D01*
X157905608Y-63441806D01*
X157860803Y-63388193D01*
X157850499Y-63338704D01*
X157850499Y-63142129D01*
X157850498Y-63142123D01*
X157850497Y-63142116D01*
X157844091Y-63082517D01*
X157832528Y-63051516D01*
X157793797Y-62947671D01*
X157793793Y-62947664D01*
X157707547Y-62832455D01*
X157707544Y-62832452D01*
X157592335Y-62746206D01*
X157592328Y-62746202D01*
X157460917Y-62697189D01*
X157404983Y-62655318D01*
X157380566Y-62589853D01*
X157395418Y-62521580D01*
X157416563Y-62493332D01*
X157530104Y-62379792D01*
X157655051Y-62207816D01*
X157751557Y-62018412D01*
X157817246Y-61816243D01*
X157850500Y-61606287D01*
X157850500Y-61393713D01*
X157835382Y-61298268D01*
X157844336Y-61228979D01*
X157870171Y-61191195D01*
X161274713Y-57786654D01*
X167100001Y-57786654D01*
X167110319Y-57887652D01*
X167164546Y-58051300D01*
X167164551Y-58051311D01*
X167255052Y-58198034D01*
X167255055Y-58198038D01*
X167376961Y-58319944D01*
X167376965Y-58319947D01*
X167523688Y-58410448D01*
X167523699Y-58410453D01*
X167687347Y-58464680D01*
X167788351Y-58474999D01*
X167837499Y-58474998D01*
X167837500Y-58474998D01*
X167837500Y-57750000D01*
X167100001Y-57750000D01*
X167100001Y-57786654D01*
X161274713Y-57786654D01*
X161848022Y-57213345D01*
X167100000Y-57213345D01*
X167100000Y-57250000D01*
X167837500Y-57250000D01*
X167837500Y-56525000D01*
X167837499Y-56524999D01*
X167788361Y-56525000D01*
X167788343Y-56525001D01*
X167687347Y-56535319D01*
X167523699Y-56589546D01*
X167523688Y-56589551D01*
X167376965Y-56680052D01*
X167376961Y-56680055D01*
X167255055Y-56801961D01*
X167255052Y-56801965D01*
X167164551Y-56948688D01*
X167164546Y-56948699D01*
X167110319Y-57112347D01*
X167100000Y-57213345D01*
X161848022Y-57213345D01*
X165524548Y-53536819D01*
X165585871Y-53503334D01*
X165612229Y-53500500D01*
X168901535Y-53500500D01*
X168968574Y-53520185D01*
G37*
%TD.AperFunction*%
%TA.AperFunction,Conductor*%
G36*
X174501177Y-64292534D02*
G01*
X174523274Y-64294104D01*
X174537292Y-64303113D01*
X174546971Y-64305948D01*
X174553610Y-64313600D01*
X174555695Y-64314940D01*
X174556969Y-64313298D01*
X174563132Y-64318078D01*
X174563135Y-64318081D01*
X174704602Y-64401744D01*
X174725719Y-64407879D01*
X174862426Y-64447597D01*
X174862429Y-64447597D01*
X174862431Y-64447598D01*
X174899306Y-64450500D01*
X174899314Y-64450500D01*
X175330686Y-64450500D01*
X175330694Y-64450500D01*
X175367569Y-64447598D01*
X175367571Y-64447597D01*
X175367573Y-64447597D01*
X175525905Y-64401597D01*
X175595774Y-64401796D01*
X175654444Y-64439738D01*
X175683288Y-64503376D01*
X175684500Y-64520673D01*
X175684500Y-65141006D01*
X175684500Y-65278994D01*
X175684500Y-65278996D01*
X175684499Y-65278996D01*
X175711418Y-65414322D01*
X175711421Y-65414332D01*
X175764222Y-65541807D01*
X175840887Y-65656545D01*
X175840888Y-65656546D01*
X176150681Y-65966338D01*
X176165383Y-65993263D01*
X176181977Y-66019083D01*
X176182868Y-66025285D01*
X176184166Y-66027661D01*
X176187000Y-66054018D01*
X176187000Y-66138753D01*
X176187001Y-66156399D01*
X176167317Y-66223438D01*
X176114514Y-66269194D01*
X176063001Y-66280400D01*
X174916319Y-66280400D01*
X174849280Y-66260715D01*
X174803525Y-66207911D01*
X174793581Y-66138753D01*
X174810781Y-66091303D01*
X174835448Y-66051311D01*
X174835453Y-66051300D01*
X174889680Y-65887652D01*
X174899999Y-65786654D01*
X174900000Y-65786641D01*
X174900000Y-65750000D01*
X173986500Y-65750000D01*
X173919461Y-65730315D01*
X173873706Y-65677511D01*
X173862500Y-65626000D01*
X173862500Y-65374000D01*
X173882185Y-65306961D01*
X173934989Y-65261206D01*
X173986500Y-65250000D01*
X174899999Y-65250000D01*
X174899999Y-65213360D01*
X174899998Y-65213345D01*
X174889680Y-65112347D01*
X174835453Y-64948699D01*
X174835448Y-64948688D01*
X174744947Y-64801965D01*
X174744944Y-64801961D01*
X174623038Y-64680055D01*
X174623034Y-64680052D01*
X174476311Y-64589551D01*
X174476302Y-64589547D01*
X174389882Y-64560910D01*
X174376978Y-64551975D01*
X174361916Y-64547564D01*
X174348840Y-64532493D01*
X174332438Y-64521137D01*
X174326412Y-64506644D01*
X174316127Y-64494790D01*
X174313274Y-64475044D01*
X174305615Y-64456621D01*
X174308381Y-64441170D01*
X174306138Y-64425638D01*
X174314413Y-64407485D01*
X174317930Y-64387845D01*
X174328991Y-64375506D01*
X174335120Y-64362063D01*
X174358680Y-64342389D01*
X174361779Y-64338933D01*
X174363738Y-64337671D01*
X174396865Y-64318081D01*
X174401716Y-64313229D01*
X174412892Y-64306037D01*
X174434140Y-64299782D01*
X174453579Y-64289155D01*
X174467006Y-64290108D01*
X174479918Y-64286308D01*
X174501177Y-64292534D01*
G37*
%TD.AperFunction*%
%TA.AperFunction,Conductor*%
G36*
X178253425Y-52020185D02*
G01*
X178286702Y-52051612D01*
X178296172Y-52064646D01*
X178435354Y-52203828D01*
X178448385Y-52213295D01*
X178491050Y-52268622D01*
X178499500Y-52313613D01*
X178499500Y-56675191D01*
X178479815Y-56742230D01*
X178427011Y-56787985D01*
X178357853Y-56797929D01*
X178294297Y-56768904D01*
X178287819Y-56762872D01*
X178206870Y-56681923D01*
X178206862Y-56681917D01*
X178065396Y-56598255D01*
X178065393Y-56598254D01*
X177907573Y-56552402D01*
X177907567Y-56552401D01*
X177870701Y-56549500D01*
X177870694Y-56549500D01*
X177439306Y-56549500D01*
X177439298Y-56549500D01*
X177402432Y-56552401D01*
X177402426Y-56552402D01*
X177244606Y-56598254D01*
X177244603Y-56598255D01*
X177103137Y-56681917D01*
X177096969Y-56686702D01*
X177095072Y-56684256D01*
X177046358Y-56710857D01*
X176976666Y-56705873D01*
X176944296Y-56685069D01*
X176943031Y-56686702D01*
X176936862Y-56681917D01*
X176795396Y-56598255D01*
X176795393Y-56598254D01*
X176637573Y-56552402D01*
X176637567Y-56552401D01*
X176600701Y-56549500D01*
X176600694Y-56549500D01*
X176169306Y-56549500D01*
X176169298Y-56549500D01*
X176132432Y-56552401D01*
X176132426Y-56552402D01*
X175974606Y-56598254D01*
X175974603Y-56598255D01*
X175833137Y-56681917D01*
X175826969Y-56686702D01*
X175825072Y-56684256D01*
X175776358Y-56710857D01*
X175706666Y-56705873D01*
X175690209Y-56698323D01*
X175674773Y-56689827D01*
X175666865Y-56681919D01*
X175525398Y-56598256D01*
X175489400Y-56587797D01*
X175477377Y-56581180D01*
X175462035Y-56565735D01*
X175443687Y-56554018D01*
X175437897Y-56541436D01*
X175428137Y-56531610D01*
X175423580Y-56510320D01*
X175414481Y-56490545D01*
X175416412Y-56476831D01*
X175413514Y-56463287D01*
X175421190Y-56442915D01*
X175424227Y-56421359D01*
X175435389Y-56405232D01*
X175438151Y-56397905D01*
X175442911Y-56394366D01*
X175449484Y-56384870D01*
X176572537Y-55261818D01*
X176633860Y-55228333D01*
X176660218Y-55225499D01*
X176849170Y-55225499D01*
X176849176Y-55225499D01*
X176950253Y-55215174D01*
X177114016Y-55160908D01*
X177260850Y-55070340D01*
X177382840Y-54948350D01*
X177473408Y-54801516D01*
X177527674Y-54637753D01*
X177538000Y-54536677D01*
X177537999Y-53963324D01*
X177527674Y-53862247D01*
X177473408Y-53698484D01*
X177382840Y-53551650D01*
X177260850Y-53429660D01*
X177169629Y-53373395D01*
X177114018Y-53339093D01*
X177114013Y-53339091D01*
X177112569Y-53338612D01*
X176950253Y-53284826D01*
X176950251Y-53284825D01*
X176849178Y-53274500D01*
X176150830Y-53274500D01*
X176150812Y-53274501D01*
X176049747Y-53284825D01*
X175885984Y-53339092D01*
X175885981Y-53339093D01*
X175739148Y-53429661D01*
X175724825Y-53443984D01*
X175663501Y-53477468D01*
X175593809Y-53472482D01*
X175549465Y-53443982D01*
X175535538Y-53430055D01*
X175535534Y-53430052D01*
X175388811Y-53339551D01*
X175388800Y-53339546D01*
X175225152Y-53285319D01*
X175124154Y-53275000D01*
X175025000Y-53275000D01*
X175025000Y-54126000D01*
X175005315Y-54193039D01*
X174952511Y-54238794D01*
X174901000Y-54250000D01*
X174775000Y-54250000D01*
X174775000Y-54376000D01*
X174755315Y-54443039D01*
X174702511Y-54488794D01*
X174651000Y-54500000D01*
X173737501Y-54500000D01*
X173737501Y-54536654D01*
X173747819Y-54637652D01*
X173802046Y-54801300D01*
X173802051Y-54801311D01*
X173892552Y-54948034D01*
X173892555Y-54948038D01*
X174014461Y-55069944D01*
X174014465Y-55069947D01*
X174161188Y-55160448D01*
X174161199Y-55160453D01*
X174324849Y-55214681D01*
X174324847Y-55214681D01*
X174349702Y-55217220D01*
X174364498Y-55223257D01*
X174380435Y-55224397D01*
X174396180Y-55236183D01*
X174414394Y-55243615D01*
X174423576Y-55256691D01*
X174436369Y-55266268D01*
X174443243Y-55284699D01*
X174454546Y-55300796D01*
X174455200Y-55316760D01*
X174460785Y-55331733D01*
X174456603Y-55350953D01*
X174457410Y-55370607D01*
X174449155Y-55385192D01*
X174445933Y-55400006D01*
X174424782Y-55428260D01*
X174345070Y-55507971D01*
X174283746Y-55541455D01*
X174214055Y-55536470D01*
X174209937Y-55534850D01*
X174129232Y-55501421D01*
X174129222Y-55501418D01*
X173993896Y-55474500D01*
X173993894Y-55474500D01*
X173993893Y-55474500D01*
X171318993Y-55474500D01*
X170749500Y-55474500D01*
X170682461Y-55454815D01*
X170636706Y-55402011D01*
X170625500Y-55350500D01*
X170625500Y-55132052D01*
X170634144Y-55102611D01*
X170640668Y-55072625D01*
X170644422Y-55067609D01*
X170645185Y-55065013D01*
X170661819Y-55044371D01*
X170749819Y-54956371D01*
X170811142Y-54922886D01*
X170880834Y-54927870D01*
X170925181Y-54956371D01*
X171039150Y-55070340D01*
X171185984Y-55160908D01*
X171349747Y-55215174D01*
X171450823Y-55225500D01*
X172049176Y-55225499D01*
X172049184Y-55225498D01*
X172049187Y-55225498D01*
X172104530Y-55219844D01*
X172150253Y-55215174D01*
X172314016Y-55160908D01*
X172460850Y-55070340D01*
X172582840Y-54948350D01*
X172673408Y-54801516D01*
X172727674Y-54637753D01*
X172738000Y-54536677D01*
X172737999Y-54374729D01*
X172757683Y-54307690D01*
X172774313Y-54287053D01*
X173098021Y-53963345D01*
X173737500Y-53963345D01*
X173737500Y-54000000D01*
X174525000Y-54000000D01*
X174525000Y-53274999D01*
X174425860Y-53275000D01*
X174425844Y-53275001D01*
X174324847Y-53285319D01*
X174161199Y-53339546D01*
X174161188Y-53339551D01*
X174014465Y-53430052D01*
X174014461Y-53430055D01*
X173892555Y-53551961D01*
X173892552Y-53551965D01*
X173802051Y-53698688D01*
X173802046Y-53698699D01*
X173747819Y-53862347D01*
X173737500Y-53963345D01*
X173098021Y-53963345D01*
X175024548Y-52036819D01*
X175085871Y-52003334D01*
X175112229Y-52000500D01*
X178186386Y-52000500D01*
X178253425Y-52020185D01*
G37*
%TD.AperFunction*%
%TA.AperFunction,Conductor*%
G36*
X188002702Y-48800617D02*
G01*
X188404202Y-48818147D01*
X188414937Y-48819087D01*
X188810693Y-48871189D01*
X188821331Y-48873064D01*
X189211043Y-48959462D01*
X189221483Y-48962260D01*
X189602168Y-49082289D01*
X189612315Y-49085982D01*
X189981102Y-49238739D01*
X189990893Y-49243305D01*
X190344942Y-49427611D01*
X190354310Y-49433019D01*
X190690959Y-49647488D01*
X190699820Y-49653693D01*
X191016487Y-49896680D01*
X191024774Y-49903634D01*
X191319056Y-50173294D01*
X191326705Y-50180943D01*
X191596365Y-50475225D01*
X191603319Y-50483512D01*
X191846306Y-50800179D01*
X191852511Y-50809040D01*
X192066980Y-51145689D01*
X192072388Y-51155057D01*
X192256691Y-51509099D01*
X192261263Y-51518903D01*
X192414013Y-51887674D01*
X192417713Y-51897840D01*
X192537738Y-52278512D01*
X192540538Y-52288960D01*
X192626933Y-52678660D01*
X192628811Y-52689314D01*
X192680910Y-53085042D01*
X192681853Y-53095818D01*
X192699382Y-53497297D01*
X192699500Y-53502706D01*
X192699500Y-83497293D01*
X192699382Y-83502702D01*
X192681853Y-83904181D01*
X192680910Y-83914957D01*
X192628811Y-84310685D01*
X192626933Y-84321339D01*
X192540538Y-84711039D01*
X192537738Y-84721487D01*
X192417713Y-85102159D01*
X192414013Y-85112325D01*
X192261263Y-85481096D01*
X192256691Y-85490900D01*
X192072388Y-85844942D01*
X192066980Y-85854310D01*
X191852511Y-86190959D01*
X191846306Y-86199820D01*
X191603319Y-86516487D01*
X191596365Y-86524774D01*
X191326705Y-86819056D01*
X191319056Y-86826705D01*
X191024774Y-87096365D01*
X191016487Y-87103319D01*
X190699820Y-87346306D01*
X190690959Y-87352511D01*
X190354310Y-87566980D01*
X190344942Y-87572388D01*
X189990900Y-87756691D01*
X189981096Y-87761263D01*
X189612325Y-87914013D01*
X189602159Y-87917713D01*
X189221487Y-88037738D01*
X189211039Y-88040538D01*
X188821339Y-88126933D01*
X188810685Y-88128811D01*
X188414957Y-88180910D01*
X188404181Y-88181853D01*
X188002703Y-88199382D01*
X187997294Y-88199500D01*
X158002706Y-88199500D01*
X157997297Y-88199382D01*
X157595818Y-88181853D01*
X157585042Y-88180910D01*
X157189314Y-88128811D01*
X157178660Y-88126933D01*
X156788960Y-88040538D01*
X156778512Y-88037738D01*
X156397840Y-87917713D01*
X156387674Y-87914013D01*
X156018903Y-87761263D01*
X156009099Y-87756691D01*
X155655057Y-87572388D01*
X155645689Y-87566980D01*
X155309040Y-87352511D01*
X155300179Y-87346306D01*
X154983512Y-87103319D01*
X154975225Y-87096365D01*
X154680943Y-86826705D01*
X154673294Y-86819056D01*
X154403634Y-86524774D01*
X154396680Y-86516487D01*
X154153693Y-86199820D01*
X154147488Y-86190959D01*
X153933019Y-85854310D01*
X153927611Y-85844942D01*
X153856088Y-85707547D01*
X153743305Y-85490893D01*
X153738736Y-85481096D01*
X153732452Y-85465925D01*
X153585982Y-85112315D01*
X153582286Y-85102159D01*
X153570830Y-85065826D01*
X153462260Y-84721483D01*
X153459461Y-84711039D01*
X153453413Y-84683757D01*
X153373064Y-84321331D01*
X153371188Y-84310685D01*
X153369906Y-84300946D01*
X153319087Y-83914937D01*
X153318147Y-83904202D01*
X153300618Y-83502702D01*
X153300500Y-83497293D01*
X153300500Y-61393713D01*
X155149500Y-61393713D01*
X155149500Y-61606287D01*
X155153560Y-61631919D01*
X155182753Y-61816239D01*
X155248444Y-62018414D01*
X155344951Y-62207820D01*
X155469890Y-62379786D01*
X155583430Y-62493326D01*
X155616915Y-62554649D01*
X155611931Y-62624341D01*
X155570059Y-62680274D01*
X155539083Y-62697189D01*
X155407669Y-62746203D01*
X155407664Y-62746206D01*
X155292455Y-62832452D01*
X155292452Y-62832455D01*
X155206206Y-62947664D01*
X155206202Y-62947671D01*
X155155908Y-63082517D01*
X155149501Y-63142116D01*
X155149501Y-63142123D01*
X155149500Y-63142135D01*
X155149500Y-64937870D01*
X155149501Y-64937876D01*
X155155908Y-64997483D01*
X155206202Y-65132328D01*
X155206206Y-65132335D01*
X155292452Y-65247544D01*
X155292455Y-65247547D01*
X155407664Y-65333793D01*
X155407671Y-65333797D01*
X155542517Y-65384091D01*
X155542516Y-65384091D01*
X155549444Y-65384835D01*
X155602127Y-65390500D01*
X157397872Y-65390499D01*
X157457483Y-65384091D01*
X157592331Y-65333796D01*
X157649749Y-65290812D01*
X157715212Y-65266395D01*
X157783485Y-65281246D01*
X157811741Y-65302398D01*
X161455886Y-68946542D01*
X161509344Y-69000000D01*
X161553459Y-69044115D01*
X161668182Y-69120771D01*
X161668186Y-69120773D01*
X161668189Y-69120775D01*
X161742866Y-69151707D01*
X161795671Y-69173580D01*
X161822591Y-69178934D01*
X161919630Y-69198237D01*
X161931006Y-69200500D01*
X161931007Y-69200500D01*
X165568996Y-69200500D01*
X165677412Y-69178934D01*
X165704328Y-69173580D01*
X165819197Y-69126000D01*
X165831807Y-69120777D01*
X165831808Y-69120776D01*
X165831811Y-69120775D01*
X165946543Y-69044114D01*
X167544113Y-67446543D01*
X167556876Y-67427443D01*
X167620775Y-67331811D01*
X167673580Y-67204328D01*
X167700500Y-67068993D01*
X167700500Y-63599940D01*
X167720185Y-63532901D01*
X167751609Y-63499626D01*
X167814646Y-63453828D01*
X167953828Y-63314646D01*
X167999624Y-63251613D01*
X168054953Y-63208949D01*
X168099941Y-63200500D01*
X172920500Y-63200500D01*
X172987539Y-63220185D01*
X173033294Y-63272989D01*
X173044500Y-63324500D01*
X173044500Y-63865701D01*
X173047401Y-63902567D01*
X173047402Y-63902573D01*
X173093254Y-64060393D01*
X173093255Y-64060396D01*
X173176917Y-64201862D01*
X173176923Y-64201870D01*
X173293129Y-64318076D01*
X173293132Y-64318078D01*
X173293135Y-64318081D01*
X173336802Y-64343905D01*
X173384485Y-64394973D01*
X173396989Y-64463714D01*
X173370345Y-64528304D01*
X173313010Y-64568235D01*
X173312686Y-64568342D01*
X173248705Y-64589543D01*
X173248688Y-64589551D01*
X173101965Y-64680052D01*
X173088032Y-64693985D01*
X173026708Y-64727468D01*
X172957016Y-64722482D01*
X172912672Y-64693982D01*
X172898351Y-64679661D01*
X172898350Y-64679660D01*
X172807129Y-64623395D01*
X172751518Y-64589093D01*
X172751513Y-64589091D01*
X172750069Y-64588612D01*
X172587753Y-64534826D01*
X172587751Y-64534825D01*
X172486678Y-64524500D01*
X171788330Y-64524500D01*
X171788312Y-64524501D01*
X171687247Y-64534825D01*
X171523484Y-64589092D01*
X171523481Y-64589093D01*
X171376648Y-64679661D01*
X171254661Y-64801648D01*
X171164093Y-64948481D01*
X171164091Y-64948486D01*
X171147855Y-64997483D01*
X171109826Y-65112247D01*
X171109826Y-65112248D01*
X171109825Y-65112248D01*
X171099500Y-65213315D01*
X171099500Y-65786669D01*
X171099501Y-65786687D01*
X171109825Y-65887752D01*
X171144789Y-65993263D01*
X171164092Y-66051516D01*
X171254660Y-66198350D01*
X171376650Y-66320340D01*
X171523484Y-66410908D01*
X171687247Y-66465174D01*
X171788323Y-66475500D01*
X172208480Y-66475499D01*
X172275519Y-66495183D01*
X172296161Y-66511818D01*
X173309353Y-67525011D01*
X173309354Y-67525012D01*
X173424092Y-67601677D01*
X173551567Y-67654478D01*
X173551572Y-67654480D01*
X173551576Y-67654480D01*
X173551577Y-67654481D01*
X173686903Y-67681400D01*
X173686906Y-67681400D01*
X173686907Y-67681400D01*
X175830400Y-67681400D01*
X175839085Y-67683950D01*
X175848047Y-67682662D01*
X175872087Y-67693640D01*
X175897439Y-67701085D01*
X175903366Y-67707925D01*
X175911603Y-67711687D01*
X175925892Y-67733921D01*
X175943194Y-67753889D01*
X175945481Y-67764403D01*
X175949377Y-67770465D01*
X175954400Y-67805400D01*
X175954400Y-67889599D01*
X175934715Y-67956638D01*
X175933502Y-67958490D01*
X175856888Y-68073149D01*
X175856887Y-68073152D01*
X175789006Y-68237032D01*
X175789003Y-68237041D01*
X175754400Y-68411004D01*
X175754400Y-68588395D01*
X175789003Y-68762358D01*
X175789006Y-68762367D01*
X175856883Y-68926240D01*
X175856890Y-68926253D01*
X175955435Y-69073734D01*
X175955438Y-69073738D01*
X176080861Y-69199161D01*
X176080865Y-69199164D01*
X176228346Y-69297709D01*
X176228359Y-69297716D01*
X176351263Y-69348623D01*
X176392234Y-69365594D01*
X176392236Y-69365594D01*
X176392241Y-69365596D01*
X176566204Y-69400199D01*
X176566207Y-69400200D01*
X176566209Y-69400200D01*
X176743593Y-69400200D01*
X176743594Y-69400199D01*
X176806674Y-69387652D01*
X176917558Y-69365596D01*
X176917561Y-69365594D01*
X176917566Y-69365594D01*
X177081447Y-69297713D01*
X177228935Y-69199164D01*
X177354364Y-69073735D01*
X177452913Y-68926247D01*
X177520794Y-68762366D01*
X177530550Y-68713323D01*
X177550635Y-68612347D01*
X177555400Y-68588391D01*
X177555400Y-68411009D01*
X177555400Y-68411006D01*
X177555399Y-68411004D01*
X177520796Y-68237041D01*
X177520793Y-68237032D01*
X177452913Y-68073153D01*
X177452911Y-68073151D01*
X177452911Y-68073149D01*
X177376298Y-67958490D01*
X177370647Y-67940443D01*
X177360423Y-67924534D01*
X177355971Y-67893572D01*
X177355420Y-67891812D01*
X177355400Y-67889599D01*
X177355400Y-67805400D01*
X177375085Y-67738361D01*
X177427889Y-67692606D01*
X177479400Y-67681400D01*
X178088096Y-67681400D01*
X178179140Y-67663289D01*
X178223428Y-67654480D01*
X178287169Y-67628077D01*
X178350907Y-67601677D01*
X178350908Y-67601676D01*
X178350911Y-67601675D01*
X178465643Y-67525014D01*
X178978838Y-67011817D01*
X179040161Y-66978333D01*
X179066519Y-66975499D01*
X179299170Y-66975499D01*
X179299176Y-66975499D01*
X179400253Y-66965174D01*
X179564016Y-66910908D01*
X179710850Y-66820340D01*
X179832840Y-66698350D01*
X179923408Y-66551516D01*
X179977674Y-66387753D01*
X179988000Y-66286677D01*
X179987999Y-65713324D01*
X179985774Y-65691546D01*
X179977674Y-65612247D01*
X179923408Y-65448484D01*
X179832840Y-65301650D01*
X179710850Y-65179660D01*
X179601556Y-65112247D01*
X179564018Y-65089093D01*
X179564013Y-65089091D01*
X179562569Y-65088612D01*
X179400253Y-65034826D01*
X179400251Y-65034825D01*
X179299178Y-65024500D01*
X178700830Y-65024500D01*
X178700812Y-65024501D01*
X178599747Y-65034825D01*
X178435984Y-65089092D01*
X178435981Y-65089093D01*
X178289148Y-65179661D01*
X178175181Y-65293629D01*
X178113858Y-65327114D01*
X178044166Y-65322130D01*
X177999819Y-65293629D01*
X177885851Y-65179661D01*
X177885850Y-65179660D01*
X177776556Y-65112247D01*
X177739018Y-65089093D01*
X177739013Y-65089091D01*
X177737569Y-65088612D01*
X177575253Y-65034826D01*
X177575251Y-65034825D01*
X177474184Y-65024500D01*
X177474177Y-65024500D01*
X177241519Y-65024500D01*
X177212078Y-65015855D01*
X177182092Y-65009332D01*
X177177076Y-65005577D01*
X177174480Y-65004815D01*
X177153838Y-64988181D01*
X177121819Y-64956162D01*
X177088334Y-64894839D01*
X177085500Y-64868481D01*
X177085500Y-64520673D01*
X177105185Y-64453634D01*
X177157989Y-64407879D01*
X177227147Y-64397935D01*
X177244095Y-64401597D01*
X177402426Y-64447597D01*
X177402429Y-64447597D01*
X177402431Y-64447598D01*
X177439306Y-64450500D01*
X177439314Y-64450500D01*
X177870686Y-64450500D01*
X177870694Y-64450500D01*
X177907569Y-64447598D01*
X177907571Y-64447597D01*
X177907573Y-64447597D01*
X177983155Y-64425638D01*
X178065398Y-64401744D01*
X178206865Y-64318081D01*
X178323081Y-64201865D01*
X178406744Y-64060398D01*
X178452598Y-63902569D01*
X178455500Y-63865694D01*
X178455500Y-62786654D01*
X178987501Y-62786654D01*
X178997819Y-62887652D01*
X179052046Y-63051300D01*
X179052051Y-63051311D01*
X179142552Y-63198034D01*
X179142555Y-63198038D01*
X179264461Y-63319944D01*
X179264465Y-63319947D01*
X179411188Y-63410448D01*
X179411199Y-63410453D01*
X179574847Y-63464680D01*
X179675851Y-63474999D01*
X179775000Y-63474998D01*
X179775000Y-62750000D01*
X178987501Y-62750000D01*
X178987501Y-62786654D01*
X178455500Y-62786654D01*
X178455500Y-62657228D01*
X178475185Y-62590189D01*
X178491814Y-62569552D01*
X178811754Y-62249612D01*
X178873075Y-62216129D01*
X178942767Y-62221113D01*
X178987114Y-62249614D01*
X178987500Y-62250000D01*
X179901000Y-62250000D01*
X179968039Y-62269685D01*
X180013794Y-62322489D01*
X180025000Y-62374000D01*
X180025000Y-62500000D01*
X180151000Y-62500000D01*
X180218039Y-62519685D01*
X180263794Y-62572489D01*
X180275000Y-62624000D01*
X180275000Y-63474999D01*
X180374140Y-63474999D01*
X180374154Y-63474998D01*
X180475152Y-63464680D01*
X180638800Y-63410453D01*
X180638811Y-63410448D01*
X180785535Y-63319947D01*
X180799460Y-63306021D01*
X180860782Y-63272533D01*
X180930473Y-63277514D01*
X180974827Y-63306017D01*
X180989150Y-63320340D01*
X181135984Y-63410908D01*
X181299747Y-63465174D01*
X181400823Y-63475500D01*
X181576500Y-63475499D01*
X181643539Y-63495183D01*
X181689294Y-63547987D01*
X181700500Y-63599499D01*
X181700500Y-69484918D01*
X181700500Y-69484920D01*
X181700499Y-69484920D01*
X181729340Y-69629907D01*
X181729343Y-69629917D01*
X181785914Y-69766492D01*
X181818812Y-69815727D01*
X181818813Y-69815730D01*
X181868046Y-69889414D01*
X181868052Y-69889421D01*
X186129824Y-74151191D01*
X186163309Y-74212514D01*
X186164616Y-74258270D01*
X186149500Y-74353707D01*
X186149500Y-74353713D01*
X186149500Y-74566287D01*
X186182754Y-74776243D01*
X186213286Y-74870211D01*
X186248444Y-74978414D01*
X186344951Y-75167820D01*
X186469890Y-75339786D01*
X186583430Y-75453326D01*
X186616915Y-75514649D01*
X186611931Y-75584341D01*
X186570059Y-75640274D01*
X186539083Y-75657189D01*
X186407669Y-75706203D01*
X186407664Y-75706206D01*
X186292455Y-75792452D01*
X186292452Y-75792455D01*
X186206206Y-75907664D01*
X186206202Y-75907671D01*
X186155908Y-76042517D01*
X186149501Y-76102116D01*
X186149500Y-76102135D01*
X186149500Y-76175500D01*
X186129815Y-76242539D01*
X186077011Y-76288294D01*
X186025500Y-76299500D01*
X184957976Y-76299500D01*
X184890937Y-76279815D01*
X184854874Y-76244391D01*
X184794112Y-76153454D01*
X181686818Y-73046160D01*
X181653333Y-72984837D01*
X181650499Y-72958479D01*
X181650499Y-70799998D01*
X181650498Y-70799981D01*
X181639999Y-70697203D01*
X181639998Y-70697200D01*
X181589652Y-70545267D01*
X181584814Y-70530666D01*
X181492712Y-70381344D01*
X181368656Y-70257288D01*
X181219334Y-70165186D01*
X181052797Y-70110001D01*
X181052795Y-70110000D01*
X180950010Y-70099500D01*
X179049998Y-70099500D01*
X179049981Y-70099501D01*
X178947203Y-70110000D01*
X178947200Y-70110001D01*
X178780668Y-70165185D01*
X178780663Y-70165187D01*
X178631342Y-70257289D01*
X178507289Y-70381342D01*
X178415187Y-70530663D01*
X178415185Y-70530668D01*
X178402257Y-70569684D01*
X178360001Y-70697203D01*
X178360001Y-70697204D01*
X178360000Y-70697204D01*
X178349500Y-70799983D01*
X178349500Y-73900001D01*
X178349501Y-73900018D01*
X178360000Y-74002796D01*
X178360001Y-74002799D01*
X178415185Y-74169331D01*
X178415187Y-74169336D01*
X178432888Y-74198034D01*
X178507288Y-74318656D01*
X178631344Y-74442712D01*
X178780666Y-74534814D01*
X178947203Y-74589999D01*
X179049991Y-74600500D01*
X180950008Y-74600499D01*
X181052797Y-74589999D01*
X181127821Y-74565137D01*
X181197649Y-74562736D01*
X181254506Y-74595163D01*
X183117515Y-76458172D01*
X183151000Y-76519495D01*
X183146016Y-76589187D01*
X183135373Y-76610949D01*
X183089095Y-76685977D01*
X183089092Y-76685984D01*
X183034826Y-76849747D01*
X183034826Y-76849748D01*
X183034825Y-76849748D01*
X183024500Y-76950815D01*
X183024500Y-77549169D01*
X183024501Y-77549187D01*
X183034825Y-77650252D01*
X183089092Y-77814015D01*
X183089093Y-77814018D01*
X183123395Y-77869629D01*
X183177583Y-77957483D01*
X183179661Y-77960851D01*
X183293629Y-78074819D01*
X183327114Y-78136142D01*
X183322130Y-78205834D01*
X183293629Y-78250181D01*
X183179661Y-78364148D01*
X183089093Y-78510981D01*
X183089092Y-78510984D01*
X183034826Y-78674747D01*
X183034826Y-78674748D01*
X183034825Y-78674748D01*
X183024500Y-78775815D01*
X183024500Y-79008481D01*
X183004815Y-79075520D01*
X182988181Y-79096162D01*
X182621362Y-79462981D01*
X182560039Y-79496466D01*
X182533681Y-79499300D01*
X181766951Y-79499300D01*
X181699912Y-79479615D01*
X181654157Y-79426811D01*
X181643593Y-79362698D01*
X181649999Y-79299988D01*
X181650000Y-79299973D01*
X181650000Y-78000000D01*
X178350001Y-78000000D01*
X178350001Y-79299986D01*
X178360494Y-79402697D01*
X178415641Y-79569119D01*
X178415643Y-79569124D01*
X178507684Y-79718345D01*
X178631654Y-79842315D01*
X178780875Y-79934356D01*
X178780880Y-79934358D01*
X178947302Y-79989505D01*
X178947309Y-79989506D01*
X179050019Y-79999999D01*
X179169979Y-79999999D01*
X179237019Y-80019683D01*
X179282774Y-80072487D01*
X179292718Y-80141645D01*
X179263694Y-80205201D01*
X179257661Y-80211680D01*
X175829849Y-83639492D01*
X175768526Y-83672977D01*
X175722771Y-83674284D01*
X175566287Y-83649500D01*
X175353713Y-83649500D01*
X175305042Y-83657208D01*
X175143760Y-83682753D01*
X174941585Y-83748444D01*
X174752179Y-83844951D01*
X174580213Y-83969890D01*
X174429890Y-84120213D01*
X174304949Y-84292182D01*
X174300484Y-84300946D01*
X174252509Y-84351742D01*
X174184688Y-84368536D01*
X174118553Y-84345998D01*
X174079516Y-84300946D01*
X174075050Y-84292182D01*
X173950109Y-84120213D01*
X173799786Y-83969890D01*
X173627820Y-83844951D01*
X173438414Y-83748444D01*
X173438413Y-83748443D01*
X173438412Y-83748443D01*
X173236243Y-83682754D01*
X173236241Y-83682753D01*
X173236240Y-83682753D01*
X173074957Y-83657208D01*
X173026287Y-83649500D01*
X172813713Y-83649500D01*
X172765042Y-83657208D01*
X172603760Y-83682753D01*
X172401585Y-83748444D01*
X172212179Y-83844951D01*
X172040213Y-83969890D01*
X171889890Y-84120213D01*
X171764949Y-84292182D01*
X171760484Y-84300946D01*
X171712509Y-84351742D01*
X171644688Y-84368536D01*
X171578553Y-84345998D01*
X171539516Y-84300946D01*
X171535050Y-84292182D01*
X171410109Y-84120213D01*
X171259786Y-83969890D01*
X171087820Y-83844951D01*
X170898415Y-83748444D01*
X170801830Y-83717061D01*
X170752468Y-83686811D01*
X163265670Y-76200013D01*
X178350000Y-76200013D01*
X178350000Y-77500000D01*
X179750000Y-77500000D01*
X180250000Y-77500000D01*
X181649999Y-77500000D01*
X181649999Y-76200028D01*
X181649998Y-76200013D01*
X181639505Y-76097302D01*
X181584358Y-75930880D01*
X181584356Y-75930875D01*
X181492315Y-75781654D01*
X181368345Y-75657684D01*
X181219124Y-75565643D01*
X181219119Y-75565641D01*
X181052697Y-75510494D01*
X181052690Y-75510493D01*
X180949986Y-75500000D01*
X180250000Y-75500000D01*
X180250000Y-77500000D01*
X179750000Y-77500000D01*
X179750000Y-75500000D01*
X179050028Y-75500000D01*
X179050012Y-75500001D01*
X178947302Y-75510494D01*
X178780880Y-75565641D01*
X178780875Y-75565643D01*
X178631654Y-75657684D01*
X178507684Y-75781654D01*
X178415643Y-75930875D01*
X178415641Y-75930880D01*
X178360494Y-76097302D01*
X178360493Y-76097309D01*
X178350000Y-76200013D01*
X163265670Y-76200013D01*
X163261818Y-76196161D01*
X163228333Y-76134838D01*
X163225499Y-76108480D01*
X163225499Y-75875830D01*
X163225498Y-75875813D01*
X163215174Y-75774747D01*
X163160908Y-75610984D01*
X163070340Y-75464150D01*
X162948350Y-75342160D01*
X162801516Y-75251592D01*
X162637753Y-75197326D01*
X162637751Y-75197325D01*
X162536684Y-75187000D01*
X162536677Y-75187000D01*
X162280892Y-75187000D01*
X162213853Y-75167315D01*
X162212037Y-75166125D01*
X162156811Y-75129225D01*
X162156810Y-75129224D01*
X162156808Y-75129223D01*
X162029332Y-75076421D01*
X162029322Y-75076418D01*
X161893996Y-75049500D01*
X161893994Y-75049500D01*
X161893993Y-75049500D01*
X159973547Y-75049500D01*
X159906508Y-75029815D01*
X159873230Y-74998385D01*
X159831682Y-74941200D01*
X159780107Y-74870211D01*
X159629786Y-74719890D01*
X159457820Y-74594951D01*
X159457115Y-74594591D01*
X159449054Y-74590485D01*
X159446281Y-74587865D01*
X159442581Y-74586940D01*
X159421081Y-74564066D01*
X159398259Y-74542512D01*
X159397341Y-74538808D01*
X159394729Y-74536029D01*
X159389008Y-74505160D01*
X159381463Y-74474692D01*
X159382693Y-74471081D01*
X159381998Y-74467329D01*
X159393874Y-74438267D01*
X159403999Y-74408556D01*
X159407406Y-74405156D01*
X159408430Y-74402652D01*
X159416584Y-74396000D01*
X159434147Y-74378480D01*
X159441283Y-74373474D01*
X159457816Y-74365051D01*
X159583754Y-74273552D01*
X159584570Y-74272980D01*
X159616728Y-74262107D01*
X159648693Y-74250702D01*
X159650623Y-74250646D01*
X159650759Y-74250601D01*
X159650909Y-74250638D01*
X159655772Y-74250500D01*
X161142948Y-74250500D01*
X161209987Y-74270185D01*
X161230629Y-74286819D01*
X161264150Y-74320340D01*
X161410984Y-74410908D01*
X161574747Y-74465174D01*
X161675823Y-74475500D01*
X162374176Y-74475499D01*
X162374184Y-74475498D01*
X162374187Y-74475498D01*
X162429530Y-74469844D01*
X162475253Y-74465174D01*
X162639016Y-74410908D01*
X162785850Y-74320340D01*
X162800171Y-74306018D01*
X162861489Y-74272533D01*
X162931181Y-74277514D01*
X162975534Y-74306017D01*
X162989461Y-74319944D01*
X162989465Y-74319947D01*
X163136188Y-74410448D01*
X163136199Y-74410453D01*
X163299847Y-74464680D01*
X163400851Y-74474999D01*
X164000000Y-74474999D01*
X164099140Y-74474999D01*
X164099154Y-74474998D01*
X164200152Y-74464680D01*
X164363800Y-74410453D01*
X164363811Y-74410448D01*
X164510534Y-74319947D01*
X164510538Y-74319944D01*
X164632444Y-74198038D01*
X164632447Y-74198034D01*
X164722948Y-74051311D01*
X164722953Y-74051300D01*
X164777180Y-73887652D01*
X164787499Y-73786654D01*
X164787500Y-73786641D01*
X164787500Y-73750000D01*
X164000000Y-73750000D01*
X164000000Y-74474999D01*
X163400851Y-74474999D01*
X163500000Y-74474998D01*
X163500000Y-73250000D01*
X164000000Y-73250000D01*
X164787499Y-73250000D01*
X164787499Y-73213360D01*
X164787498Y-73213345D01*
X164777180Y-73112347D01*
X164722953Y-72948699D01*
X164722948Y-72948688D01*
X164632447Y-72801965D01*
X164632444Y-72801961D01*
X164510538Y-72680055D01*
X164510534Y-72680052D01*
X164363811Y-72589551D01*
X164363800Y-72589546D01*
X164200152Y-72535319D01*
X164099154Y-72525000D01*
X164000000Y-72525000D01*
X164000000Y-73250000D01*
X163500000Y-73250000D01*
X163500000Y-72524999D01*
X163400860Y-72525000D01*
X163400844Y-72525001D01*
X163299847Y-72535319D01*
X163136199Y-72589546D01*
X163136188Y-72589551D01*
X162989465Y-72680052D01*
X162975532Y-72693985D01*
X162914208Y-72727468D01*
X162844516Y-72722482D01*
X162800172Y-72693982D01*
X162785851Y-72679661D01*
X162785850Y-72679660D01*
X162694629Y-72623395D01*
X162639018Y-72589093D01*
X162639013Y-72589091D01*
X162637569Y-72588612D01*
X162475253Y-72534826D01*
X162475251Y-72534825D01*
X162374178Y-72524500D01*
X161675830Y-72524500D01*
X161675812Y-72524501D01*
X161574747Y-72534825D01*
X161410984Y-72589092D01*
X161410981Y-72589093D01*
X161264148Y-72679661D01*
X161230629Y-72713181D01*
X161169306Y-72746666D01*
X161142948Y-72749500D01*
X160107052Y-72749500D01*
X160040013Y-72729815D01*
X159996567Y-72681795D01*
X159905051Y-72502184D01*
X159905049Y-72502181D01*
X159905048Y-72502179D01*
X159780109Y-72330213D01*
X159666181Y-72216285D01*
X159632696Y-72154962D01*
X159637680Y-72085270D01*
X159679552Y-72029337D01*
X159710529Y-72012422D01*
X159842086Y-71963354D01*
X159842093Y-71963350D01*
X159957187Y-71877190D01*
X159957190Y-71877187D01*
X160043350Y-71762093D01*
X160043354Y-71762086D01*
X160093596Y-71627379D01*
X160093598Y-71627372D01*
X160099999Y-71567844D01*
X160100000Y-71567827D01*
X160100000Y-70920000D01*
X159183012Y-70920000D01*
X159215925Y-70862993D01*
X159250000Y-70735826D01*
X159250000Y-70604174D01*
X159215925Y-70477007D01*
X159183012Y-70420000D01*
X160100000Y-70420000D01*
X160100000Y-69772172D01*
X160099999Y-69772155D01*
X160093598Y-69712627D01*
X160093596Y-69712620D01*
X160043354Y-69577913D01*
X160043350Y-69577906D01*
X159957190Y-69462812D01*
X159957187Y-69462809D01*
X159842093Y-69376649D01*
X159842086Y-69376645D01*
X159707379Y-69326403D01*
X159707372Y-69326401D01*
X159647844Y-69320000D01*
X159000000Y-69320000D01*
X159000000Y-70236988D01*
X158942993Y-70204075D01*
X158815826Y-70170000D01*
X158684174Y-70170000D01*
X158557007Y-70204075D01*
X158500000Y-70236988D01*
X158500000Y-69320000D01*
X157852155Y-69320000D01*
X157792627Y-69326401D01*
X157792620Y-69326403D01*
X157657913Y-69376645D01*
X157657906Y-69376649D01*
X157542812Y-69462809D01*
X157542809Y-69462812D01*
X157456649Y-69577906D01*
X157456645Y-69577913D01*
X157406403Y-69712620D01*
X157406401Y-69712627D01*
X157400000Y-69772155D01*
X157400000Y-70420000D01*
X158316988Y-70420000D01*
X158284075Y-70477007D01*
X158250000Y-70604174D01*
X158250000Y-70735826D01*
X158284075Y-70862993D01*
X158316988Y-70920000D01*
X157400000Y-70920000D01*
X157400000Y-71567844D01*
X157406401Y-71627372D01*
X157406403Y-71627379D01*
X157456645Y-71762086D01*
X157456649Y-71762093D01*
X157542809Y-71877187D01*
X157542812Y-71877190D01*
X157657906Y-71963350D01*
X157657913Y-71963354D01*
X157789470Y-72012422D01*
X157845404Y-72054293D01*
X157869821Y-72119758D01*
X157854969Y-72188031D01*
X157833819Y-72216285D01*
X157719889Y-72330215D01*
X157594951Y-72502179D01*
X157498444Y-72691585D01*
X157432753Y-72893760D01*
X157399500Y-73103713D01*
X157399500Y-73316291D01*
X157414616Y-73411726D01*
X157405662Y-73481020D01*
X157379824Y-73518806D01*
X155667052Y-75231578D01*
X155667046Y-75231585D01*
X155619024Y-75303456D01*
X155619025Y-75303457D01*
X155584913Y-75354508D01*
X155528343Y-75491082D01*
X155528340Y-75491092D01*
X155499500Y-75636079D01*
X155499500Y-75636082D01*
X155499500Y-77073918D01*
X155499500Y-77073920D01*
X155499499Y-77073920D01*
X155528340Y-77218907D01*
X155528343Y-77218917D01*
X155584914Y-77355491D01*
X155584916Y-77355495D01*
X155601792Y-77380753D01*
X155610119Y-77393215D01*
X155667049Y-77478418D01*
X155667052Y-77478421D01*
X156667049Y-78478416D01*
X156771584Y-78582951D01*
X156771587Y-78582953D01*
X156771588Y-78582954D01*
X156894503Y-78665083D01*
X156894506Y-78665085D01*
X156944836Y-78685932D01*
X156944838Y-78685932D01*
X156951080Y-78688518D01*
X157031088Y-78721659D01*
X157139328Y-78743189D01*
X157168356Y-78748963D01*
X157176081Y-78750500D01*
X157176082Y-78750500D01*
X157176083Y-78750500D01*
X157323918Y-78750500D01*
X161417948Y-78750500D01*
X161484987Y-78770185D01*
X161505629Y-78786819D01*
X161551650Y-78832840D01*
X161698484Y-78923408D01*
X161862247Y-78977674D01*
X161963323Y-78988000D01*
X162066969Y-78987999D01*
X162134007Y-79007683D01*
X162154650Y-79024318D01*
X166697302Y-83566970D01*
X166730787Y-83628293D01*
X166725803Y-83697985D01*
X166683932Y-83753917D01*
X166632455Y-83792452D01*
X166632452Y-83792455D01*
X166546206Y-83907664D01*
X166546202Y-83907671D01*
X166495908Y-84042517D01*
X166489501Y-84102116D01*
X166489500Y-84102135D01*
X166489500Y-85897870D01*
X166489501Y-85897876D01*
X166495908Y-85957483D01*
X166546202Y-86092328D01*
X166546206Y-86092335D01*
X166632452Y-86207544D01*
X166632455Y-86207547D01*
X166747664Y-86293793D01*
X166747671Y-86293797D01*
X166882517Y-86344091D01*
X166882516Y-86344091D01*
X166889444Y-86344835D01*
X166942127Y-86350500D01*
X168737872Y-86350499D01*
X168797483Y-86344091D01*
X168932331Y-86293796D01*
X169047546Y-86207546D01*
X169133796Y-86092331D01*
X169182810Y-85960916D01*
X169224681Y-85904984D01*
X169290145Y-85880566D01*
X169358418Y-85895417D01*
X169386673Y-85916569D01*
X169500213Y-86030109D01*
X169672179Y-86155048D01*
X169672181Y-86155049D01*
X169672184Y-86155051D01*
X169861588Y-86251557D01*
X170063757Y-86317246D01*
X170273713Y-86350500D01*
X170273714Y-86350500D01*
X170486286Y-86350500D01*
X170486287Y-86350500D01*
X170696243Y-86317246D01*
X170898412Y-86251557D01*
X171087816Y-86155051D01*
X171174138Y-86092335D01*
X171259786Y-86030109D01*
X171259788Y-86030106D01*
X171259792Y-86030104D01*
X171410104Y-85879792D01*
X171410106Y-85879788D01*
X171410109Y-85879786D01*
X171535048Y-85707820D01*
X171535047Y-85707820D01*
X171535051Y-85707816D01*
X171539514Y-85699054D01*
X171587488Y-85648259D01*
X171655308Y-85631463D01*
X171721444Y-85653999D01*
X171760486Y-85699056D01*
X171764951Y-85707820D01*
X171889890Y-85879786D01*
X172040213Y-86030109D01*
X172212179Y-86155048D01*
X172212181Y-86155049D01*
X172212184Y-86155051D01*
X172401588Y-86251557D01*
X172603757Y-86317246D01*
X172813713Y-86350500D01*
X172813714Y-86350500D01*
X173026286Y-86350500D01*
X173026287Y-86350500D01*
X173236243Y-86317246D01*
X173438412Y-86251557D01*
X173627816Y-86155051D01*
X173714138Y-86092335D01*
X173799786Y-86030109D01*
X173799788Y-86030106D01*
X173799792Y-86030104D01*
X173950104Y-85879792D01*
X173950106Y-85879788D01*
X173950109Y-85879786D01*
X174075048Y-85707820D01*
X174075047Y-85707820D01*
X174075051Y-85707816D01*
X174079514Y-85699054D01*
X174127488Y-85648259D01*
X174195308Y-85631463D01*
X174261444Y-85653999D01*
X174300486Y-85699056D01*
X174304951Y-85707820D01*
X174429890Y-85879786D01*
X174580213Y-86030109D01*
X174752179Y-86155048D01*
X174752181Y-86155049D01*
X174752184Y-86155051D01*
X174941588Y-86251557D01*
X175143757Y-86317246D01*
X175353713Y-86350500D01*
X175353714Y-86350500D01*
X175566286Y-86350500D01*
X175566287Y-86350500D01*
X175776243Y-86317246D01*
X175978412Y-86251557D01*
X176167816Y-86155051D01*
X176254138Y-86092335D01*
X176339786Y-86030109D01*
X176339788Y-86030106D01*
X176339792Y-86030104D01*
X176490104Y-85879792D01*
X176490106Y-85879788D01*
X176490109Y-85879786D01*
X176575890Y-85761717D01*
X176615051Y-85707816D01*
X176619793Y-85698508D01*
X176667763Y-85647711D01*
X176735583Y-85630911D01*
X176801719Y-85653445D01*
X176840763Y-85698500D01*
X176845373Y-85707547D01*
X176884728Y-85761716D01*
X177517037Y-85129408D01*
X177534075Y-85192993D01*
X177599901Y-85307007D01*
X177692993Y-85400099D01*
X177807007Y-85465925D01*
X177870590Y-85482962D01*
X177238282Y-86115269D01*
X177238282Y-86115270D01*
X177292449Y-86154624D01*
X177481782Y-86251095D01*
X177683870Y-86316757D01*
X177893754Y-86350000D01*
X178106246Y-86350000D01*
X178316127Y-86316757D01*
X178316130Y-86316757D01*
X178518217Y-86251095D01*
X178707554Y-86154622D01*
X178761716Y-86115270D01*
X178761717Y-86115270D01*
X178129408Y-85482962D01*
X178192993Y-85465925D01*
X178307007Y-85400099D01*
X178400099Y-85307007D01*
X178465925Y-85192993D01*
X178482962Y-85129408D01*
X179115270Y-85761717D01*
X179115270Y-85761716D01*
X179154622Y-85707554D01*
X179251095Y-85518217D01*
X179316757Y-85316130D01*
X179316757Y-85316127D01*
X179350000Y-85106246D01*
X179350000Y-84893753D01*
X179316757Y-84683872D01*
X179316757Y-84683869D01*
X179251095Y-84481782D01*
X179154624Y-84292449D01*
X179115270Y-84238282D01*
X179115269Y-84238282D01*
X178482962Y-84870590D01*
X178465925Y-84807007D01*
X178400099Y-84692993D01*
X178307007Y-84599901D01*
X178192993Y-84534075D01*
X178129408Y-84517037D01*
X178761716Y-83884728D01*
X178707550Y-83845375D01*
X178518217Y-83748904D01*
X178316129Y-83683242D01*
X178106246Y-83650000D01*
X178100018Y-83650000D01*
X178032979Y-83630315D01*
X177987224Y-83577511D01*
X177977280Y-83508353D01*
X178006305Y-83444797D01*
X178012337Y-83438319D01*
X180514038Y-80936619D01*
X180575361Y-80903134D01*
X180601719Y-80900300D01*
X182944196Y-80900300D01*
X183035240Y-80882189D01*
X183079528Y-80873380D01*
X183143269Y-80846977D01*
X183207007Y-80820577D01*
X183207008Y-80820576D01*
X183207011Y-80820575D01*
X183321743Y-80743914D01*
X183966337Y-80099317D01*
X184027660Y-80065833D01*
X184054018Y-80062999D01*
X184286670Y-80062999D01*
X184286676Y-80062999D01*
X184387753Y-80052674D01*
X184551516Y-79998408D01*
X184698350Y-79907840D01*
X184794371Y-79811819D01*
X184855694Y-79778334D01*
X184882052Y-79775500D01*
X187903496Y-79775500D01*
X187994540Y-79757389D01*
X188038828Y-79748580D01*
X188111822Y-79718345D01*
X188166307Y-79695777D01*
X188166308Y-79695776D01*
X188166311Y-79695775D01*
X188281043Y-79619114D01*
X189395814Y-78504343D01*
X189472475Y-78389611D01*
X189485018Y-78359331D01*
X189525278Y-78262132D01*
X189525280Y-78262128D01*
X189552200Y-78126794D01*
X189552200Y-77988806D01*
X189552200Y-70645207D01*
X189552200Y-70645204D01*
X189525281Y-70509877D01*
X189525280Y-70509876D01*
X189525280Y-70509872D01*
X189487906Y-70419642D01*
X189472476Y-70382390D01*
X189472475Y-70382389D01*
X189471768Y-70381330D01*
X189471768Y-70381329D01*
X189395817Y-70267661D01*
X189395816Y-70267660D01*
X189395814Y-70267657D01*
X189289698Y-70161541D01*
X189256215Y-70100221D01*
X189261199Y-70030529D01*
X189303070Y-69974595D01*
X189338378Y-69956156D01*
X189476298Y-69910454D01*
X189476311Y-69910448D01*
X189623034Y-69819947D01*
X189623038Y-69819944D01*
X189744944Y-69698038D01*
X189744947Y-69698034D01*
X189835448Y-69551311D01*
X189835453Y-69551300D01*
X189889680Y-69387652D01*
X189899999Y-69286654D01*
X189900000Y-69286641D01*
X189900000Y-69250000D01*
X188986500Y-69250000D01*
X188919461Y-69230315D01*
X188873706Y-69177511D01*
X188862500Y-69126000D01*
X188862500Y-69000000D01*
X188736500Y-69000000D01*
X188669461Y-68980315D01*
X188623706Y-68927511D01*
X188612500Y-68876000D01*
X188612500Y-68750000D01*
X189112500Y-68750000D01*
X189899999Y-68750000D01*
X189899999Y-68713360D01*
X189899998Y-68713345D01*
X189889680Y-68612347D01*
X189835453Y-68448699D01*
X189835448Y-68448688D01*
X189744947Y-68301965D01*
X189744944Y-68301961D01*
X189623038Y-68180055D01*
X189623034Y-68180052D01*
X189476311Y-68089551D01*
X189476300Y-68089546D01*
X189312652Y-68035319D01*
X189211654Y-68025000D01*
X189112500Y-68025000D01*
X189112500Y-68750000D01*
X188612500Y-68750000D01*
X188612500Y-68024999D01*
X188513360Y-68025000D01*
X188513344Y-68025001D01*
X188412347Y-68035319D01*
X188248699Y-68089546D01*
X188248688Y-68089551D01*
X188101965Y-68180052D01*
X188088032Y-68193985D01*
X188026708Y-68227468D01*
X187957016Y-68222482D01*
X187912672Y-68193982D01*
X187898351Y-68179661D01*
X187898350Y-68179660D01*
X187807129Y-68123395D01*
X187751518Y-68089093D01*
X187751513Y-68089091D01*
X187750069Y-68088612D01*
X187587753Y-68034826D01*
X187587751Y-68034825D01*
X187486678Y-68024500D01*
X186788330Y-68024500D01*
X186788312Y-68024501D01*
X186687247Y-68034825D01*
X186523484Y-68089092D01*
X186523481Y-68089093D01*
X186376648Y-68179661D01*
X186254661Y-68301648D01*
X186164093Y-68448481D01*
X186164091Y-68448486D01*
X186136719Y-68531088D01*
X186109826Y-68612247D01*
X186109826Y-68612248D01*
X186109825Y-68612248D01*
X186099500Y-68713315D01*
X186099500Y-69286669D01*
X186099501Y-69286687D01*
X186109825Y-69387752D01*
X186134697Y-69462809D01*
X186164092Y-69551516D01*
X186254660Y-69698350D01*
X186376650Y-69820340D01*
X186523484Y-69910908D01*
X186687247Y-69965174D01*
X186788323Y-69975500D01*
X187070980Y-69975499D01*
X187138019Y-69995183D01*
X187158661Y-70011818D01*
X187505162Y-70358319D01*
X187538647Y-70419642D01*
X187533663Y-70489334D01*
X187491791Y-70545267D01*
X187426327Y-70569684D01*
X187417481Y-70570000D01*
X187393754Y-70570000D01*
X187183872Y-70603242D01*
X187183869Y-70603242D01*
X186981782Y-70668904D01*
X186792439Y-70765380D01*
X186738282Y-70804727D01*
X186738282Y-70804728D01*
X187370591Y-71437037D01*
X187307007Y-71454075D01*
X187192993Y-71519901D01*
X187099901Y-71612993D01*
X187034075Y-71727007D01*
X187017037Y-71790591D01*
X186384728Y-71158282D01*
X186384727Y-71158282D01*
X186345380Y-71212439D01*
X186248904Y-71401782D01*
X186183242Y-71603869D01*
X186183242Y-71603872D01*
X186155955Y-71776151D01*
X186126025Y-71839286D01*
X186066714Y-71876217D01*
X185996851Y-71875219D01*
X185945801Y-71844434D01*
X185171466Y-71070099D01*
X183237819Y-69136451D01*
X183204334Y-69075128D01*
X183201500Y-69048770D01*
X183201500Y-63127079D01*
X183185952Y-63048918D01*
X183172659Y-62982088D01*
X183133584Y-62887753D01*
X183116084Y-62845505D01*
X183107362Y-62832452D01*
X183080885Y-62792825D01*
X183080884Y-62792824D01*
X183033956Y-62722589D01*
X183033952Y-62722584D01*
X182824318Y-62512950D01*
X182790833Y-62451627D01*
X182787999Y-62425269D01*
X182787999Y-62213330D01*
X182787998Y-62213313D01*
X182777674Y-62112247D01*
X182723408Y-61948484D01*
X182632840Y-61801650D01*
X182510850Y-61679660D01*
X182364016Y-61589092D01*
X182200253Y-61534826D01*
X182200251Y-61534825D01*
X182099184Y-61524500D01*
X182099177Y-61524500D01*
X181887229Y-61524500D01*
X181820190Y-61504815D01*
X181799548Y-61488181D01*
X180728421Y-60417052D01*
X180728420Y-60417051D01*
X180620510Y-60344949D01*
X180605495Y-60334916D01*
X180605490Y-60334913D01*
X180468917Y-60278343D01*
X180468907Y-60278340D01*
X180323920Y-60249500D01*
X180323918Y-60249500D01*
X180124500Y-60249500D01*
X180057461Y-60229815D01*
X180011706Y-60177011D01*
X180000500Y-60125500D01*
X180000500Y-52313613D01*
X180006353Y-52293677D01*
X182309873Y-52293677D01*
X182309873Y-52293678D01*
X182344858Y-52319096D01*
X182520164Y-52408418D01*
X182707294Y-52469221D01*
X182901618Y-52500000D01*
X183098382Y-52500000D01*
X183292705Y-52469221D01*
X183479835Y-52408418D01*
X183655143Y-52319095D01*
X183690125Y-52293678D01*
X183690126Y-52293678D01*
X183000001Y-51603553D01*
X183000000Y-51603553D01*
X182309873Y-52293677D01*
X180006353Y-52293677D01*
X180009828Y-52281842D01*
X180018184Y-52249794D01*
X180019737Y-52248097D01*
X180020185Y-52246574D01*
X180040470Y-52222426D01*
X180045768Y-52217543D01*
X180064646Y-52203828D01*
X180203828Y-52064646D01*
X180319524Y-51905405D01*
X180408884Y-51730025D01*
X180469709Y-51542826D01*
X180475051Y-51509099D01*
X180500500Y-51348422D01*
X180500500Y-51151617D01*
X181750000Y-51151617D01*
X181750000Y-51348382D01*
X181780778Y-51542705D01*
X181841581Y-51729835D01*
X181930905Y-51905145D01*
X181956319Y-51940125D01*
X181956320Y-51940125D01*
X182646446Y-51250000D01*
X182646446Y-51249999D01*
X183353553Y-51249999D01*
X183353553Y-51250001D01*
X184043678Y-51940126D01*
X184043678Y-51940125D01*
X184069095Y-51905143D01*
X184158418Y-51729835D01*
X184219221Y-51542705D01*
X184250000Y-51348382D01*
X184250000Y-51151617D01*
X184219221Y-50957294D01*
X184158418Y-50770164D01*
X184069096Y-50594858D01*
X184043678Y-50559873D01*
X184043677Y-50559873D01*
X183353553Y-51249999D01*
X182646446Y-51249999D01*
X181956320Y-50559872D01*
X181956320Y-50559873D01*
X181930902Y-50594859D01*
X181930899Y-50594863D01*
X181841582Y-50770161D01*
X181780778Y-50957294D01*
X181750000Y-51151617D01*
X180500500Y-51151617D01*
X180500500Y-51151577D01*
X180469709Y-50957173D01*
X180418698Y-50800179D01*
X180408884Y-50769975D01*
X180408882Y-50769972D01*
X180408882Y-50769970D01*
X180342554Y-50639794D01*
X180319524Y-50594595D01*
X180203828Y-50435354D01*
X180064646Y-50296172D01*
X179940976Y-50206320D01*
X182309872Y-50206320D01*
X183000000Y-50896446D01*
X183000001Y-50896446D01*
X183690125Y-50206320D01*
X183690125Y-50206319D01*
X183655145Y-50180905D01*
X183479835Y-50091581D01*
X183292705Y-50030778D01*
X183098382Y-50000000D01*
X182901618Y-50000000D01*
X182707294Y-50030778D01*
X182520161Y-50091582D01*
X182344863Y-50180899D01*
X182344859Y-50180902D01*
X182309873Y-50206320D01*
X182309872Y-50206320D01*
X179940976Y-50206320D01*
X179905405Y-50180476D01*
X179898489Y-50176952D01*
X179730029Y-50091117D01*
X179542826Y-50030290D01*
X179348422Y-49999500D01*
X179348417Y-49999500D01*
X179151583Y-49999500D01*
X179151578Y-49999500D01*
X178957173Y-50030290D01*
X178769970Y-50091117D01*
X178594594Y-50180476D01*
X178503741Y-50246485D01*
X178435354Y-50296172D01*
X178435352Y-50296174D01*
X178435351Y-50296174D01*
X178296171Y-50435354D01*
X178286703Y-50448387D01*
X178231372Y-50491052D01*
X178186386Y-50499500D01*
X174676076Y-50499500D01*
X174647242Y-50505234D01*
X174647243Y-50505235D01*
X174531093Y-50528339D01*
X174531083Y-50528342D01*
X174451081Y-50561479D01*
X174451082Y-50561480D01*
X174394505Y-50584915D01*
X174312372Y-50639795D01*
X174271585Y-50667047D01*
X174271581Y-50667050D01*
X171837680Y-53100950D01*
X171776357Y-53134435D01*
X171706665Y-53129451D01*
X171662318Y-53100950D01*
X170728421Y-52167052D01*
X170728414Y-52167046D01*
X170654729Y-52117812D01*
X170654729Y-52117813D01*
X170605491Y-52084913D01*
X170468917Y-52028343D01*
X170468907Y-52028340D01*
X170323920Y-51999500D01*
X170323918Y-51999500D01*
X165176082Y-51999500D01*
X165176076Y-51999500D01*
X165147242Y-52005234D01*
X165147243Y-52005235D01*
X165031093Y-52028339D01*
X165031083Y-52028342D01*
X164951081Y-52061479D01*
X164951082Y-52061480D01*
X164894505Y-52084915D01*
X164812372Y-52139795D01*
X164771585Y-52167047D01*
X164771581Y-52167050D01*
X156808806Y-60129824D01*
X156747483Y-60163309D01*
X156701726Y-60164616D01*
X156606291Y-60149500D01*
X156606287Y-60149500D01*
X156393713Y-60149500D01*
X156345042Y-60157208D01*
X156183760Y-60182753D01*
X155981585Y-60248444D01*
X155792179Y-60344951D01*
X155620213Y-60469890D01*
X155469890Y-60620213D01*
X155344951Y-60792179D01*
X155248444Y-60981585D01*
X155182753Y-61183760D01*
X155170643Y-61260223D01*
X155149500Y-61393713D01*
X153300500Y-61393713D01*
X153300500Y-53502706D01*
X153300618Y-53497297D01*
X153307505Y-53339551D01*
X153318147Y-53095795D01*
X153319087Y-53085064D01*
X153371189Y-52689302D01*
X153373063Y-52678672D01*
X153459463Y-52288950D01*
X153462261Y-52278512D01*
X153582291Y-51897823D01*
X153585979Y-51887691D01*
X153738742Y-51518888D01*
X153743300Y-51509114D01*
X153927617Y-51155045D01*
X153933012Y-51145700D01*
X154147495Y-50809029D01*
X154153685Y-50800189D01*
X154396687Y-50483503D01*
X154403625Y-50475234D01*
X154673304Y-50180932D01*
X154680932Y-50173304D01*
X154975234Y-49903625D01*
X154983503Y-49896687D01*
X155300189Y-49653685D01*
X155309029Y-49647495D01*
X155645700Y-49433012D01*
X155655045Y-49427617D01*
X156009114Y-49243300D01*
X156018888Y-49238742D01*
X156387691Y-49085979D01*
X156397823Y-49082291D01*
X156778521Y-48962258D01*
X156788950Y-48959463D01*
X157178672Y-48873063D01*
X157189302Y-48871189D01*
X157585064Y-48819087D01*
X157595795Y-48818147D01*
X157997297Y-48800617D01*
X158002706Y-48800500D01*
X158047595Y-48800500D01*
X187952405Y-48800500D01*
X187997294Y-48800500D01*
X188002702Y-48800617D01*
G37*
%TD.AperFunction*%
%TD*%
M02*
