M48
; DRILL file {KiCad 9.0.7} date 2026-05-10T13:12:52+0200
; FORMAT={-:-/ absolute / metric / decimal}
; #@! TF.CreationDate,2026-05-10T13:12:52+02:00
; #@! TF.GenerationSoftware,Kicad,Pcbnew,9.0.7
; #@! TF.FileFunction,Plated,1,2,PTH
FMAT,2
METRIC
; #@! TA.AperFunction,Plated,PTH,ViaDrill
T1C0.400
; #@! TA.AperFunction,Plated,PTH,ComponentDrill
T2C1.000
; #@! TA.AperFunction,Plated,PTH,ComponentDrill
T3C1.600
; #@! TA.AperFunction,Plated,PTH,ComponentDrill
T4C3.200
%
G90
G05
T1
X62.807Y-171.464
X67.5Y-169.25
X68.5Y-156.75
X69.443Y-168.204
X75.75Y-183.25
T2
X58.38Y-133.5
X60.92Y-133.5
X63.46Y-133.5
X66.0Y-133.5
T3
X54.5Y-147.195
X54.5Y-152.275
X55.0Y-161.42
X55.0Y-166.5
X64.66Y-176.642
X69.74Y-176.642
X91.0Y-161.92
X91.0Y-167.0
X91.142Y-148.42
X91.142Y-153.5
T4
X50.0Y-135.0
X50.0Y-180.0
X95.0Y-135.0
X95.0Y-180.0
M30
