%TF.GenerationSoftware,KiCad,Pcbnew,9.0.7*%
%TF.CreationDate,2026-05-10T13:11:59+02:00*%
%TF.ProjectId,Serre_CartePuissance,53657272-655f-4436-9172-746550756973,rev?*%
%TF.SameCoordinates,Original*%
%TF.FileFunction,Soldermask,Top*%
%TF.FilePolarity,Negative*%
%FSLAX46Y46*%
G04 Gerber Fmt 4.6, Leading zero omitted, Abs format (unit mm)*
G04 Created by KiCad (PCBNEW 9.0.7) date 2026-05-10 13:11:59*
%MOMM*%
%LPD*%
G01*
G04 APERTURE LIST*
G04 Aperture macros list*
%AMRoundRect*
0 Rectangle with rounded corners*
0 $1 Rounding radius*
0 $2 $3 $4 $5 $6 $7 $8 $9 X,Y pos of 4 corners*
0 Add a 4 corners polygon primitive as box body*
4,1,4,$2,$3,$4,$5,$6,$7,$8,$9,$2,$3,0*
0 Add four circle primitives for the rounded corners*
1,1,$1+$1,$2,$3*
1,1,$1+$1,$4,$5*
1,1,$1+$1,$6,$7*
1,1,$1+$1,$8,$9*
0 Add four rect primitives between the rounded corners*
20,1,$1+$1,$2,$3,$4,$5,0*
20,1,$1+$1,$4,$5,$6,$7,0*
20,1,$1+$1,$6,$7,$8,$9,0*
20,1,$1+$1,$8,$9,$2,$3,0*%
G04 Aperture macros list end*
%ADD10C,5.600000*%
%ADD11RoundRect,0.237500X-0.250000X-0.237500X0.250000X-0.237500X0.250000X0.237500X-0.250000X0.237500X0*%
%ADD12RoundRect,0.237500X0.237500X-0.300000X0.237500X0.300000X-0.237500X0.300000X-0.237500X-0.300000X0*%
%ADD13RoundRect,0.250000X-0.850000X-0.350000X0.850000X-0.350000X0.850000X0.350000X-0.850000X0.350000X0*%
%ADD14RoundRect,0.249997X-2.950003X-2.650003X2.950003X-2.650003X2.950003X2.650003X-2.950003X2.650003X0*%
%ADD15RoundRect,0.250001X-0.949999X0.949999X-0.949999X-0.949999X0.949999X-0.949999X0.949999X0.949999X0*%
%ADD16C,2.400000*%
%ADD17R,1.700000X1.700000*%
%ADD18C,1.700000*%
%ADD19RoundRect,0.250001X-0.949999X-0.949999X0.949999X-0.949999X0.949999X0.949999X-0.949999X0.949999X0*%
%ADD20RoundRect,0.250000X-0.900000X1.500000X-0.900000X-1.500000X0.900000X-1.500000X0.900000X1.500000X0*%
%ADD21RoundRect,0.250001X0.949999X-0.949999X0.949999X0.949999X-0.949999X0.949999X-0.949999X-0.949999X0*%
%ADD22C,1.500000*%
%ADD23RoundRect,0.250000X0.475000X-0.337500X0.475000X0.337500X-0.475000X0.337500X-0.475000X-0.337500X0*%
G04 APERTURE END LIST*
D10*
%TO.C,H4*%
X95000000Y-180000000D03*
%TD*%
%TO.C,H3*%
X50000000Y-180000000D03*
%TD*%
D11*
%TO.C,R1*%
X71000000Y-168250000D03*
X72825000Y-168250000D03*
%TD*%
D12*
%TO.C,C4*%
X62250000Y-163500000D03*
X62250000Y-161775000D03*
%TD*%
D13*
%TO.C,Q3*%
X75750000Y-175695000D03*
D14*
X82050000Y-177975000D03*
D13*
X75750000Y-180255000D03*
%TD*%
%TO.C,Q1*%
X69525000Y-161195000D03*
D14*
X75825000Y-163475000D03*
D13*
X69525000Y-165755000D03*
%TD*%
D11*
%TO.C,R4*%
X75250000Y-168250000D03*
X77075000Y-168250000D03*
%TD*%
D15*
%TO.C,J2*%
X55000000Y-161420000D03*
D16*
X55000000Y-166500000D03*
%TD*%
D13*
%TO.C,Q2*%
X69525000Y-148695000D03*
D14*
X75825000Y-150975000D03*
D13*
X69525000Y-153255000D03*
%TD*%
D17*
%TO.C,J3*%
X66000000Y-133500000D03*
D18*
X63460000Y-133500000D03*
X60920000Y-133500000D03*
X58380000Y-133500000D03*
%TD*%
D12*
%TO.C,C1*%
X62250000Y-155500000D03*
X62250000Y-153775000D03*
%TD*%
D10*
%TO.C,H1*%
X50000000Y-135000000D03*
%TD*%
D19*
%TO.C,J6*%
X64660000Y-176642500D03*
D16*
X69740000Y-176642500D03*
%TD*%
D10*
%TO.C,H2*%
X95000000Y-135000000D03*
%TD*%
D20*
%TO.C,D1*%
X82750000Y-161600000D03*
X82750000Y-167000000D03*
%TD*%
D21*
%TO.C,J4*%
X91142500Y-153500000D03*
D16*
X91142500Y-148420000D03*
%TD*%
D21*
%TO.C,J5*%
X91000000Y-167000000D03*
D16*
X91000000Y-161920000D03*
%TD*%
D11*
%TO.C,R6*%
X82675000Y-173250000D03*
X84500000Y-173250000D03*
%TD*%
D22*
%TO.C,TP3*%
X76000000Y-134500000D03*
%TD*%
%TO.C,TP2*%
X81000000Y-134500000D03*
%TD*%
D11*
%TO.C,R3*%
X78675000Y-173250000D03*
X80500000Y-173250000D03*
%TD*%
D15*
%TO.C,J1*%
X54500000Y-147195000D03*
D16*
X54500000Y-152275000D03*
%TD*%
D23*
%TO.C,C3*%
X62200000Y-150500000D03*
X62200000Y-148425000D03*
%TD*%
%TO.C,C2*%
X62250000Y-168500000D03*
X62250000Y-166425000D03*
%TD*%
D22*
%TO.C,TP1*%
X50000000Y-174000000D03*
%TD*%
D11*
%TO.C,R5*%
X76250000Y-146000000D03*
X78075000Y-146000000D03*
%TD*%
%TO.C,R2*%
X72175000Y-146000000D03*
X74000000Y-146000000D03*
%TD*%
D20*
%TO.C,D2*%
X82750000Y-147600000D03*
X82750000Y-153000000D03*
%TD*%
M02*
